<svg width="624" height="491" xmlns="http://www.w3.org/2000/svg" xmlns:xlink="http://www.w3.org/1999/xlink" overflow="hidden"><defs><filter id="fx0" x="-10%" y="-10%" width="120%" height="120%" filterUnits="userSpaceOnUse" primitiveUnits="userSpaceOnUse"><feComponentTransfer color-interpolation-filters="sRGB"><feFuncR type="discrete" tableValues="0 0"/><feFuncG type="discrete" tableValues="0 0"/><feFuncB type="discrete" tableValues="0 0"/><feFuncA type="linear" slope="0.4" intercept="0"/></feComponentTransfer><feGaussianBlur stdDeviation="1.77873 1.77657"/></filter><filter id="fx1" x="-10%" y="-10%" width="120%" height="120%" filterUnits="userSpaceOnUse" primitiveUnits="userSpaceOnUse"><feComponentTransfer color-interpolation-filters="sRGB"><feFuncR type="discrete" tableValues="0 0"/><feFuncG type="discrete" tableValues="0 0"/><feFuncB type="discrete" tableValues="0 0"/><feFuncA type="linear" slope="0.4" intercept="0"/></feComponentTransfer><feGaussianBlur stdDeviation="1.77873 1.77657"/></filter><filter id="fx2" x="-10%" y="-10%" width="120%" height="120%" filterUnits="userSpaceOnUse" primitiveUnits="userSpaceOnUse"><feComponentTransfer color-interpolation-filters="sRGB"><feFuncR type="discrete" tableValues="0 0"/><feFuncG type="discrete" tableValues="0 0"/><feFuncB type="discrete" tableValues="0 0"/><feFuncA type="linear" slope="0.4" intercept="0"/></feComponentTransfer><feGaussianBlur stdDeviation="1.77873 1.77657"/></filter><filter id="fx3" x="-10%" y="-10%" width="120%" height="120%" filterUnits="userSpaceOnUse" primitiveUnits="userSpaceOnUse"><feComponentTransfer color-interpolation-filters="sRGB"><feFuncR type="discrete" tableValues="0 0"/><feFuncG type="discrete" tableValues="0 0"/><feFuncB type="discrete" tableValues="0 0"/><feFuncA type="linear" slope="0.4" intercept="0"/></feComponentTransfer><feGaussianBlur stdDeviation="1.77873 1.77657"/></filter><clipPath id="clip4"><rect x="0" y="0" width="624" height="491"/></clipPath><clipPath id="clip5"><rect x="-2" y="-2" width="205" height="205"/></clipPath><clipPath id="clip6"><rect x="0" y="0" width="203" height="202"/></clipPath><clipPath id="clip7"><rect x="-2" y="-2" width="87" height="33"/></clipPath><clipPath id="clip8"><rect x="0" y="0" width="84" height="30"/></clipPath><linearGradient x1="88.3211" y1="274.206" x2="158.692" y2="274.206" gradientUnits="userSpaceOnUse" spreadMethod="reflect" id="fill9"><stop offset="0" stop-color="#00B050"/><stop offset="0.00689655" stop-color="#01B050"/><stop offset="0.0137931" stop-color="#03B050"/><stop offset="0.0206897" stop-color="#05B150"/><stop offset="0.0275862" stop-color="#07B150"/><stop offset="0.0344828" stop-color="#09B250"/><stop offset="0.0413793" stop-color="#0BB250"/><stop offset="0.0482759" stop-color="#0CB250"/><stop offset="0.0551724" stop-color="#0EB350"/><stop offset="0.062069" stop-color="#10B350"/><stop offset="0.0689655" stop-color="#12B450"/><stop offset="0.0758621" stop-color="#14B450"/><stop offset="0.0827586" stop-color="#15B450"/><stop offset="0.0896552" stop-color="#17B550"/><stop offset="0.0965517" stop-color="#19B550"/><stop offset="0.103448" stop-color="#1BB550"/><stop offset="0.110345" stop-color="#1CB650"/><stop offset="0.117241" stop-color="#1EB650"/><stop offset="0.124138" stop-color="#20B750"/><stop offset="0.131034" stop-color="#21B750"/><stop offset="0.137931" stop-color="#23B74F"/><stop offset="0.144828" stop-color="#25B850"/><stop offset="0.151724" stop-color="#26B850"/><stop offset="0.158621" stop-color="#28B850"/><stop offset="0.165517" stop-color="#2AB950"/><stop offset="0.172414" stop-color="#2BB950"/><stop offset="0.17931" stop-color="#2DB950"/><stop offset="0.186207" stop-color="#2EBA50"/><stop offset="0.193103" stop-color="#30BA50"/><stop offset="0.2" stop-color="#31BA50"/><stop offset="0.206897" stop-color="#33BB50"/><stop offset="0.213793" stop-color="#34BB50"/><stop offset="0.22069" stop-color="#36BB50"/><stop offset="0.227586" stop-color="#38BC50"/><stop offset="0.234483" stop-color="#39BC50"/><stop offset="0.241379" stop-color="#3BBC50"/><stop offset="0.248276" stop-color="#3CBD50"/><stop offset="0.255172" stop-color="#3DBD50"/><stop offset="0.262069" stop-color="#3FBD50"/><stop offset="0.268966" stop-color="#40BE50"/><stop offset="0.275862" stop-color="#42BE4F"/><stop offset="0.282759" stop-color="#43BE4F"/><stop offset="0.289655" stop-color="#45BF50"/><stop offset="0.296552" stop-color="#46BF50"/><stop offset="0.303448" stop-color="#47BF50"/><stop offset="0.310345" stop-color="#49C050"/><stop offset="0.317241" stop-color="#4AC04F"/><stop offset="0.324138" stop-color="#4BC050"/><stop offset="0.331034" stop-color="#4DC050"/><stop offset="0.337931" stop-color="#4EC14F"/><stop offset="0.344828" stop-color="#4FC150"/><stop offset="0.351724" stop-color="#51C150"/><stop offset="0.358621" stop-color="#52C24F"/><stop offset="0.365517" stop-color="#53C250"/><stop offset="0.372414" stop-color="#55C250"/><stop offset="0.37931" stop-color="#56C250"/><stop offset="0.386207" stop-color="#57C350"/><stop offset="0.393103" stop-color="#58C350"/><stop offset="0.4" stop-color="#59C350"/><stop offset="0.406897" stop-color="#5BC350"/><stop offset="0.413793" stop-color="#5CC450"/><stop offset="0.42069" stop-color="#5DC450"/><stop offset="0.427586" stop-color="#5EC450"/><stop offset="0.434483" stop-color="#5FC550"/><stop offset="0.441379" stop-color="#60C550"/><stop offset="0.448276" stop-color="#62C550"/><stop offset="0.455172" stop-color="#63C550"/><stop offset="0.462069" stop-color="#64C550"/><stop offset="0.468966" stop-color="#65C650"/><stop offset="0.475862" stop-color="#66C650"/><stop offset="0.482759" stop-color="#67C650"/><stop offset="0.489655" stop-color="#68C650"/><stop offset="0.496552" stop-color="#69C750"/><stop offset="0.503448" stop-color="#6AC750"/><stop offset="0.510345" stop-color="#6BC750"/><stop offset="0.517241" stop-color="#6CC750"/><stop offset="0.524138" stop-color="#6DC850"/><stop offset="0.531034" stop-color="#6EC850"/><stop offset="0.537931" stop-color="#6FC850"/><stop offset="0.544828" stop-color="#70C850"/><stop offset="0.551724" stop-color="#71C850"/><stop offset="0.558621" stop-color="#72C950"/><stop offset="0.565517" stop-color="#73C94F"/><stop offset="0.572414" stop-color="#74C950"/><stop offset="0.57931" stop-color="#75C950"/><stop offset="0.586207" stop-color="#76C950"/><stop offset="0.593103" stop-color="#76CA50"/><stop offset="0.6" stop-color="#77CA50"/><stop offset="0.606897" stop-color="#78CA50"/><stop offset="0.613793" stop-color="#79CA50"/><stop offset="0.62069" stop-color="#7ACA50"/><stop offset="0.627586" stop-color="#7BCA50"/><stop offset="0.634483" stop-color="#7BCB4F"/><stop offset="0.641379" stop-color="#7CCB4F"/><stop offset="0.648276" stop-color="#7DCB50"/><stop offset="0.655172" stop-color="#7ECB50"/><stop offset="0.662069" stop-color="#7ECB50"/><stop offset="0.668966" stop-color="#7FCB50"/><stop offset="0.675862" stop-color="#80CC50"/><stop offset="0.682759" stop-color="#81CC50"/><stop offset="0.689655" stop-color="#81CC50"/><stop offset="0.696552" stop-color="#82CC50"/><stop offset="0.703448" stop-color="#83CC50"/><stop offset="0.710345" stop-color="#83CC50"/><stop offset="0.717241" stop-color="#84CD50"/><stop offset="0.724138" stop-color="#84CD50"/><stop offset="0.731034" stop-color="#85CD50"/><stop offset="0.737931" stop-color="#86CD50"/><stop offset="0.744828" stop-color="#86CD50"/><stop offset="0.751724" stop-color="#87CD50"/><stop offset="0.758621" stop-color="#87CD50"/><stop offset="0.765517" stop-color="#88CD50"/><stop offset="0.772414" stop-color="#88CE50"/><stop offset="0.77931" stop-color="#89CE50"/><stop offset="0.786207" stop-color="#89CE50"/><stop offset="0.793103" stop-color="#8ACE50"/><stop offset="0.8" stop-color="#8ACE50"/><stop offset="0.806897" stop-color="#8BCE50"/><stop offset="0.813793" stop-color="#8BCE50"/><stop offset="0.82069" stop-color="#8CCE50"/><stop offset="0.827586" stop-color="#8CCE50"/><stop offset="0.834483" stop-color="#8CCE50"/><stop offset="0.841379" stop-color="#8DCE50"/><stop offset="0.848276" stop-color="#8DCF50"/><stop offset="0.855172" stop-color="#8ECF50"/><stop offset="0.862069" stop-color="#8ECF50"/><stop offset="0.868966" stop-color="#8ECF50"/><stop offset="0.875862" stop-color="#8FCF50"/><stop offset="0.882759" stop-color="#8FCF50"/><stop offset="0.889655" stop-color="#8FCF50"/><stop offset="0.896552" stop-color="#8FCF50"/><stop offset="0.903448" stop-color="#90CF50"/><stop offset="0.910345" stop-color="#90CF50"/><stop offset="0.917241" stop-color="#90CF50"/><stop offset="0.924138" stop-color="#90CF50"/><stop offset="0.931035" stop-color="#91CF50"/><stop offset="0.937931" stop-color="#91CF50"/><stop offset="0.944828" stop-color="#91CF50"/><stop offset="0.951724" stop-color="#91CF50"/><stop offset="0.958621" stop-color="#91CF50"/><stop offset="0.965517" stop-color="#91CF50"/><stop offset="0.972414" stop-color="#91CF50"/><stop offset="0.97931" stop-color="#91CF50"/><stop offset="0.986207" stop-color="#91CF50"/><stop offset="0.993103" stop-color="#91CF50"/><stop offset="1" stop-color="#92D050"/></linearGradient><clipPath id="clip10"><rect x="-2" y="-2" width="205" height="205"/></clipPath><clipPath id="clip11"><rect x="0" y="0" width="203" height="202"/></clipPath><clipPath id="clip12"><rect x="-2" y="-2" width="139" height="62"/></clipPath><clipPath id="clip13"><rect x="0" y="0" width="136" height="60"/></clipPath><linearGradient x1="412.843" y1="261.43" x2="519.567" y2="261.43" gradientUnits="userSpaceOnUse" spreadMethod="reflect" id="fill14"><stop offset="0" stop-color="#7030A0"/><stop offset="0.00900901" stop-color="#6F31A0"/><stop offset="0.018018" stop-color="#6F32A1"/><stop offset="0.027027" stop-color="#6F33A1"/><stop offset="0.036036" stop-color="#6F34A2"/><stop offset="0.045045" stop-color="#6F35A2"/><stop offset="0.0540541" stop-color="#6F36A3"/><stop offset="0.0630631" stop-color="#6F37A3"/><stop offset="0.0720721" stop-color="#6F38A4"/><stop offset="0.0810811" stop-color="#6E39A4"/><stop offset="0.0900901" stop-color="#6E3AA5"/><stop offset="0.0990991" stop-color="#6E3BA5"/><stop offset="0.108108" stop-color="#6E3CA6"/><stop offset="0.117117" stop-color="#6D3DA6"/><stop offset="0.126126" stop-color="#6D3EA7"/><stop offset="0.135135" stop-color="#6D3FA7"/><stop offset="0.144144" stop-color="#6D40A8"/><stop offset="0.153153" stop-color="#6C41A8"/><stop offset="0.162162" stop-color="#6C42A9"/><stop offset="0.171171" stop-color="#6B42A9"/><stop offset="0.18018" stop-color="#6B43A9"/><stop offset="0.189189" stop-color="#6B44AA"/><stop offset="0.198198" stop-color="#6A45AA"/><stop offset="0.207207" stop-color="#6A46AB"/><stop offset="0.216216" stop-color="#6947AB"/><stop offset="0.225225" stop-color="#6948AC"/><stop offset="0.234234" stop-color="#6849AC"/><stop offset="0.243243" stop-color="#684AAD"/><stop offset="0.252252" stop-color="#674AAD"/><stop offset="0.261261" stop-color="#664BAD"/><stop offset="0.27027" stop-color="#664CAE"/><stop offset="0.279279" stop-color="#654DAE"/><stop offset="0.288288" stop-color="#654EAF"/><stop offset="0.297297" stop-color="#644EAF"/><stop offset="0.306306" stop-color="#634FAF"/><stop offset="0.315315" stop-color="#6350B0"/><stop offset="0.324324" stop-color="#6251B0"/><stop offset="0.333333" stop-color="#6152B1"/><stop offset="0.342342" stop-color="#6052B1"/><stop offset="0.351351" stop-color="#6053B1"/><stop offset="0.36036" stop-color="#5F54B2"/><stop offset="0.369369" stop-color="#5E55B2"/><stop offset="0.378378" stop-color="#5D55B2"/><stop offset="0.387387" stop-color="#5D56B3"/><stop offset="0.396396" stop-color="#5C57B3"/><stop offset="0.405405" stop-color="#5B57B3"/><stop offset="0.414414" stop-color="#5A58B4"/><stop offset="0.423423" stop-color="#5959B4"/><stop offset="0.432432" stop-color="#5859B4"/><stop offset="0.441441" stop-color="#575AB5"/><stop offset="0.45045" stop-color="#565BB5"/><stop offset="0.459459" stop-color="#555BB5"/><stop offset="0.468468" stop-color="#545CB6"/><stop offset="0.477477" stop-color="#535DB6"/><stop offset="0.486486" stop-color="#525DB6"/><stop offset="0.495495" stop-color="#515EB7"/><stop offset="0.504505" stop-color="#505EB7"/><stop offset="0.513514" stop-color="#4F5FB7"/><stop offset="0.522523" stop-color="#4E5FB7"/><stop offset="0.531532" stop-color="#4D60B8"/><stop offset="0.540541" stop-color="#4C61B8"/><stop offset="0.54955" stop-color="#4B61B8"/><stop offset="0.558559" stop-color="#4A62B9"/><stop offset="0.567568" stop-color="#4962B9"/><stop offset="0.576577" stop-color="#4863B9"/><stop offset="0.585586" stop-color="#4663B9"/><stop offset="0.594595" stop-color="#4564BA"/><stop offset="0.603604" stop-color="#4464BA"/><stop offset="0.612613" stop-color="#4365BA"/><stop offset="0.621622" stop-color="#4265BA"/><stop offset="0.630631" stop-color="#4066BB"/><stop offset="0.63964" stop-color="#3F66BB"/><stop offset="0.648649" stop-color="#3E66BB"/><stop offset="0.657658" stop-color="#3C67BB"/><stop offset="0.666667" stop-color="#3B67BB"/><stop offset="0.675676" stop-color="#3A68BC"/><stop offset="0.684685" stop-color="#3868BC"/><stop offset="0.693694" stop-color="#3769BC"/><stop offset="0.702703" stop-color="#3669BC"/><stop offset="0.711712" stop-color="#3469BC"/><stop offset="0.720721" stop-color="#336ABD"/><stop offset="0.72973" stop-color="#316ABD"/><stop offset="0.738739" stop-color="#306ABD"/><stop offset="0.747748" stop-color="#2F6BBD"/><stop offset="0.756757" stop-color="#2D6BBD"/><stop offset="0.765766" stop-color="#2C6BBD"/><stop offset="0.774775" stop-color="#2A6CBE"/><stop offset="0.783784" stop-color="#296CBE"/><stop offset="0.792793" stop-color="#276CBE"/><stop offset="0.801802" stop-color="#256CBE"/><stop offset="0.810811" stop-color="#246DBE"/><stop offset="0.81982" stop-color="#226DBE"/><stop offset="0.828829" stop-color="#216DBE"/><stop offset="0.837838" stop-color="#1F6DBE"/><stop offset="0.846847" stop-color="#1D6EBF"/><stop offset="0.855856" stop-color="#1C6EBF"/><stop offset="0.864865" stop-color="#1A6EBF"/><stop offset="0.873874" stop-color="#196EBF"/><stop offset="0.882883" stop-color="#176EBF"/><stop offset="0.891892" stop-color="#156FBF"/><stop offset="0.900901" stop-color="#136FBF"/><stop offset="0.90991" stop-color="#126FBF"/><stop offset="0.918919" stop-color="#106FBF"/><stop offset="0.927928" stop-color="#0E6FBF"/><stop offset="0.936937" stop-color="#0C6FBF"/><stop offset="0.945946" stop-color="#0B6FBF"/><stop offset="0.954955" stop-color="#096FBF"/><stop offset="0.963964" stop-color="#076FBF"/><stop offset="0.972973" stop-color="#056FBF"/><stop offset="0.981982" stop-color="#036FBF"/><stop offset="0.990991" stop-color="#016FBF"/><stop offset="1" stop-color="#0070C0"/></linearGradient><linearGradient x1="412.843" y1="261.43" x2="519.567" y2="261.43" gradientUnits="userSpaceOnUse" spreadMethod="reflect" id="fill15"><stop offset="0" stop-color="#7030A0"/><stop offset="0.00900901" stop-color="#6F31A0"/><stop offset="0.018018" stop-color="#6F32A1"/><stop offset="0.027027" stop-color="#6F33A1"/><stop offset="0.036036" stop-color="#6F34A2"/><stop offset="0.045045" stop-color="#6F35A2"/><stop offset="0.0540541" stop-color="#6F36A3"/><stop offset="0.0630631" stop-color="#6F37A3"/><stop offset="0.0720721" stop-color="#6F38A4"/><stop offset="0.0810811" stop-color="#6E39A4"/><stop offset="0.0900901" stop-color="#6E3AA5"/><stop offset="0.0990991" stop-color="#6E3BA5"/><stop offset="0.108108" stop-color="#6E3CA6"/><stop offset="0.117117" stop-color="#6D3DA6"/><stop offset="0.126126" stop-color="#6D3EA7"/><stop offset="0.135135" stop-color="#6D3FA7"/><stop offset="0.144144" stop-color="#6D40A8"/><stop offset="0.153153" stop-color="#6C41A8"/><stop offset="0.162162" stop-color="#6C42A9"/><stop offset="0.171171" stop-color="#6B42A9"/><stop offset="0.18018" stop-color="#6B43A9"/><stop offset="0.189189" stop-color="#6B44AA"/><stop offset="0.198198" stop-color="#6A45AA"/><stop offset="0.207207" stop-color="#6A46AB"/><stop offset="0.216216" stop-color="#6947AB"/><stop offset="0.225225" stop-color="#6948AC"/><stop offset="0.234234" stop-color="#6849AC"/><stop offset="0.243243" stop-color="#684AAD"/><stop offset="0.252252" stop-color="#674AAD"/><stop offset="0.261261" stop-color="#664BAD"/><stop offset="0.27027" stop-color="#664CAE"/><stop offset="0.279279" stop-color="#654DAE"/><stop offset="0.288288" stop-color="#654EAF"/><stop offset="0.297297" stop-color="#644EAF"/><stop offset="0.306306" stop-color="#634FAF"/><stop offset="0.315315" stop-color="#6350B0"/><stop offset="0.324324" stop-color="#6251B0"/><stop offset="0.333333" stop-color="#6152B1"/><stop offset="0.342342" stop-color="#6052B1"/><stop offset="0.351351" stop-color="#6053B1"/><stop offset="0.36036" stop-color="#5F54B2"/><stop offset="0.369369" stop-color="#5E55B2"/><stop offset="0.378378" stop-color="#5D55B2"/><stop offset="0.387387" stop-color="#5D56B3"/><stop offset="0.396396" stop-color="#5C57B3"/><stop offset="0.405405" stop-color="#5B57B3"/><stop offset="0.414414" stop-color="#5A58B4"/><stop offset="0.423423" stop-color="#5959B4"/><stop offset="0.432432" stop-color="#5859B4"/><stop offset="0.441441" stop-color="#575AB5"/><stop offset="0.45045" stop-color="#565BB5"/><stop offset="0.459459" stop-color="#555BB5"/><stop offset="0.468468" stop-color="#545CB6"/><stop offset="0.477477" stop-color="#535DB6"/><stop offset="0.486486" stop-color="#525DB6"/><stop offset="0.495495" stop-color="#515EB7"/><stop offset="0.504505" stop-color="#505EB7"/><stop offset="0.513514" stop-color="#4F5FB7"/><stop offset="0.522523" stop-color="#4E5FB7"/><stop offset="0.531532" stop-color="#4D60B8"/><stop offset="0.540541" stop-color="#4C61B8"/><stop offset="0.54955" stop-color="#4B61B8"/><stop offset="0.558559" stop-color="#4A62B9"/><stop offset="0.567568" stop-color="#4962B9"/><stop offset="0.576577" stop-color="#4863B9"/><stop offset="0.585586" stop-color="#4663B9"/><stop offset="0.594595" stop-color="#4564BA"/><stop offset="0.603604" stop-color="#4464BA"/><stop offset="0.612613" stop-color="#4365BA"/><stop offset="0.621622" stop-color="#4265BA"/><stop offset="0.630631" stop-color="#4066BB"/><stop offset="0.63964" stop-color="#3F66BB"/><stop offset="0.648649" stop-color="#3E66BB"/><stop offset="0.657658" stop-color="#3C67BB"/><stop offset="0.666667" stop-color="#3B67BB"/><stop offset="0.675676" stop-color="#3A68BC"/><stop offset="0.684685" stop-color="#3868BC"/><stop offset="0.693694" stop-color="#3769BC"/><stop offset="0.702703" stop-color="#3669BC"/><stop offset="0.711712" stop-color="#3469BC"/><stop offset="0.720721" stop-color="#336ABD"/><stop offset="0.72973" stop-color="#316ABD"/><stop offset="0.738739" stop-color="#306ABD"/><stop offset="0.747748" stop-color="#2F6BBD"/><stop offset="0.756757" stop-color="#2D6BBD"/><stop offset="0.765766" stop-color="#2C6BBD"/><stop offset="0.774775" stop-color="#2A6CBE"/><stop offset="0.783784" stop-color="#296CBE"/><stop offset="0.792793" stop-color="#276CBE"/><stop offset="0.801802" stop-color="#256CBE"/><stop offset="0.810811" stop-color="#246DBE"/><stop offset="0.81982" stop-color="#226DBE"/><stop offset="0.828829" stop-color="#216DBE"/><stop offset="0.837838" stop-color="#1F6DBE"/><stop offset="0.846847" stop-color="#1D6EBF"/><stop offset="0.855856" stop-color="#1C6EBF"/><stop offset="0.864865" stop-color="#1A6EBF"/><stop offset="0.873874" stop-color="#196EBF"/><stop offset="0.882883" stop-color="#176EBF"/><stop offset="0.891892" stop-color="#156FBF"/><stop offset="0.900901" stop-color="#136FBF"/><stop offset="0.90991" stop-color="#126FBF"/><stop offset="0.918919" stop-color="#106FBF"/><stop offset="0.927928" stop-color="#0E6FBF"/><stop offset="0.936937" stop-color="#0C6FBF"/><stop offset="0.945946" stop-color="#0B6FBF"/><stop offset="0.954955" stop-color="#096FBF"/><stop offset="0.963964" stop-color="#076FBF"/><stop offset="0.972973" stop-color="#056FBF"/><stop offset="0.981982" stop-color="#036FBF"/><stop offset="0.990991" stop-color="#016FBF"/><stop offset="1" stop-color="#0070C0"/></linearGradient><linearGradient x1="412.843" y1="261.43" x2="519.567" y2="261.43" gradientUnits="userSpaceOnUse" spreadMethod="reflect" id="fill16"><stop offset="0" stop-color="#7030A0"/><stop offset="0.00900901" stop-color="#6F31A0"/><stop offset="0.018018" stop-color="#6F32A1"/><stop offset="0.027027" stop-color="#6F33A1"/><stop offset="0.036036" stop-color="#6F34A2"/><stop offset="0.045045" stop-color="#6F35A2"/><stop offset="0.0540541" stop-color="#6F36A3"/><stop offset="0.0630631" stop-color="#6F37A3"/><stop offset="0.0720721" stop-color="#6F38A4"/><stop offset="0.0810811" stop-color="#6E39A4"/><stop offset="0.0900901" stop-color="#6E3AA5"/><stop offset="0.0990991" stop-color="#6E3BA5"/><stop offset="0.108108" stop-color="#6E3CA6"/><stop offset="0.117117" stop-color="#6D3DA6"/><stop offset="0.126126" stop-color="#6D3EA7"/><stop offset="0.135135" stop-color="#6D3FA7"/><stop offset="0.144144" stop-color="#6D40A8"/><stop offset="0.153153" stop-color="#6C41A8"/><stop offset="0.162162" stop-color="#6C42A9"/><stop offset="0.171171" stop-color="#6B42A9"/><stop offset="0.18018" stop-color="#6B43A9"/><stop offset="0.189189" stop-color="#6B44AA"/><stop offset="0.198198" stop-color="#6A45AA"/><stop offset="0.207207" stop-color="#6A46AB"/><stop offset="0.216216" stop-color="#6947AB"/><stop offset="0.225225" stop-color="#6948AC"/><stop offset="0.234234" stop-color="#6849AC"/><stop offset="0.243243" stop-color="#684AAD"/><stop offset="0.252252" stop-color="#674AAD"/><stop offset="0.261261" stop-color="#664BAD"/><stop offset="0.27027" stop-color="#664CAE"/><stop offset="0.279279" stop-color="#654DAE"/><stop offset="0.288288" stop-color="#654EAF"/><stop offset="0.297297" stop-color="#644EAF"/><stop offset="0.306306" stop-color="#634FAF"/><stop offset="0.315315" stop-color="#6350B0"/><stop offset="0.324324" stop-color="#6251B0"/><stop offset="0.333333" stop-color="#6152B1"/><stop offset="0.342342" stop-color="#6052B1"/><stop offset="0.351351" stop-color="#6053B1"/><stop offset="0.36036" stop-color="#5F54B2"/><stop offset="0.369369" stop-color="#5E55B2"/><stop offset="0.378378" stop-color="#5D55B2"/><stop offset="0.387387" stop-color="#5D56B3"/><stop offset="0.396396" stop-color="#5C57B3"/><stop offset="0.405405" stop-color="#5B57B3"/><stop offset="0.414414" stop-color="#5A58B4"/><stop offset="0.423423" stop-color="#5959B4"/><stop offset="0.432432" stop-color="#5859B4"/><stop offset="0.441441" stop-color="#575AB5"/><stop offset="0.45045" stop-color="#565BB5"/><stop offset="0.459459" stop-color="#555BB5"/><stop offset="0.468468" stop-color="#545CB6"/><stop offset="0.477477" stop-color="#535DB6"/><stop offset="0.486486" stop-color="#525DB6"/><stop offset="0.495495" stop-color="#515EB7"/><stop offset="0.504505" stop-color="#505EB7"/><stop offset="0.513514" stop-color="#4F5FB7"/><stop offset="0.522523" stop-color="#4E5FB7"/><stop offset="0.531532" stop-color="#4D60B8"/><stop offset="0.540541" stop-color="#4C61B8"/><stop offset="0.54955" stop-color="#4B61B8"/><stop offset="0.558559" stop-color="#4A62B9"/><stop offset="0.567568" stop-color="#4962B9"/><stop offset="0.576577" stop-color="#4863B9"/><stop offset="0.585586" stop-color="#4663B9"/><stop offset="0.594595" stop-color="#4564BA"/><stop offset="0.603604" stop-color="#4464BA"/><stop offset="0.612613" stop-color="#4365BA"/><stop offset="0.621622" stop-color="#4265BA"/><stop offset="0.630631" stop-color="#4066BB"/><stop offset="0.63964" stop-color="#3F66BB"/><stop offset="0.648649" stop-color="#3E66BB"/><stop offset="0.657658" stop-color="#3C67BB"/><stop offset="0.666667" stop-color="#3B67BB"/><stop offset="0.675676" stop-color="#3A68BC"/><stop offset="0.684685" stop-color="#3868BC"/><stop offset="0.693694" stop-color="#3769BC"/><stop offset="0.702703" stop-color="#3669BC"/><stop offset="0.711712" stop-color="#3469BC"/><stop offset="0.720721" stop-color="#336ABD"/><stop offset="0.72973" stop-color="#316ABD"/><stop offset="0.738739" stop-color="#306ABD"/><stop offset="0.747748" stop-color="#2F6BBD"/><stop offset="0.756757" stop-color="#2D6BBD"/><stop offset="0.765766" stop-color="#2C6BBD"/><stop offset="0.774775" stop-color="#2A6CBE"/><stop offset="0.783784" stop-color="#296CBE"/><stop offset="0.792793" stop-color="#276CBE"/><stop offset="0.801802" stop-color="#256CBE"/><stop offset="0.810811" stop-color="#246DBE"/><stop offset="0.81982" stop-color="#226DBE"/><stop offset="0.828829" stop-color="#216DBE"/><stop offset="0.837838" stop-color="#1F6DBE"/><stop offset="0.846847" stop-color="#1D6EBF"/><stop offset="0.855856" stop-color="#1C6EBF"/><stop offset="0.864865" stop-color="#1A6EBF"/><stop offset="0.873874" stop-color="#196EBF"/><stop offset="0.882883" stop-color="#176EBF"/><stop offset="0.891892" stop-color="#156FBF"/><stop offset="0.900901" stop-color="#136FBF"/><stop offset="0.90991" stop-color="#126FBF"/><stop offset="0.918919" stop-color="#106FBF"/><stop offset="0.927928" stop-color="#0E6FBF"/><stop offset="0.936937" stop-color="#0C6FBF"/><stop offset="0.945946" stop-color="#0B6FBF"/><stop offset="0.954955" stop-color="#096FBF"/><stop offset="0.963964" stop-color="#076FBF"/><stop offset="0.972973" stop-color="#056FBF"/><stop offset="0.981982" stop-color="#036FBF"/><stop offset="0.990991" stop-color="#016FBF"/><stop offset="1" stop-color="#0070C0"/></linearGradient><linearGradient x1="403.585" y1="286.982" x2="528.818" y2="286.982" gradientUnits="userSpaceOnUse" spreadMethod="reflect" id="fill17"><stop offset="0" stop-color="#7030A0"/><stop offset="0.00900901" stop-color="#6F31A0"/><stop offset="0.018018" stop-color="#6F32A1"/><stop offset="0.027027" stop-color="#6F33A1"/><stop offset="0.036036" stop-color="#6F34A2"/><stop offset="0.045045" stop-color="#6F35A2"/><stop offset="0.0540541" stop-color="#6F36A3"/><stop offset="0.0630631" stop-color="#6F37A3"/><stop offset="0.0720721" stop-color="#6F38A4"/><stop offset="0.0810811" stop-color="#6E39A4"/><stop offset="0.0900901" stop-color="#6E3AA5"/><stop offset="0.0990991" stop-color="#6E3BA5"/><stop offset="0.108108" stop-color="#6E3CA6"/><stop offset="0.117117" stop-color="#6D3DA6"/><stop offset="0.126126" stop-color="#6D3EA7"/><stop offset="0.135135" stop-color="#6D3FA7"/><stop offset="0.144144" stop-color="#6D40A8"/><stop offset="0.153153" stop-color="#6C41A8"/><stop offset="0.162162" stop-color="#6C42A9"/><stop offset="0.171171" stop-color="#6B42A9"/><stop offset="0.18018" stop-color="#6B43A9"/><stop offset="0.189189" stop-color="#6B44AA"/><stop offset="0.198198" stop-color="#6A45AA"/><stop offset="0.207207" stop-color="#6A46AB"/><stop offset="0.216216" stop-color="#6947AB"/><stop offset="0.225225" stop-color="#6948AC"/><stop offset="0.234234" stop-color="#6849AC"/><stop offset="0.243243" stop-color="#684AAD"/><stop offset="0.252252" stop-color="#674AAD"/><stop offset="0.261261" stop-color="#664BAD"/><stop offset="0.27027" stop-color="#664CAE"/><stop offset="0.279279" stop-color="#654DAE"/><stop offset="0.288288" stop-color="#654EAF"/><stop offset="0.297297" stop-color="#644EAF"/><stop offset="0.306306" stop-color="#634FAF"/><stop offset="0.315315" stop-color="#6350B0"/><stop offset="0.324324" stop-color="#6251B0"/><stop offset="0.333333" stop-color="#6152B1"/><stop offset="0.342342" stop-color="#6052B1"/><stop offset="0.351351" stop-color="#6053B1"/><stop offset="0.36036" stop-color="#5F54B2"/><stop offset="0.369369" stop-color="#5E55B2"/><stop offset="0.378378" stop-color="#5D55B2"/><stop offset="0.387387" stop-color="#5D56B3"/><stop offset="0.396396" stop-color="#5C57B3"/><stop offset="0.405405" stop-color="#5B57B3"/><stop offset="0.414414" stop-color="#5A58B4"/><stop offset="0.423423" stop-color="#5959B4"/><stop offset="0.432432" stop-color="#5859B4"/><stop offset="0.441441" stop-color="#575AB5"/><stop offset="0.45045" stop-color="#565BB5"/><stop offset="0.459459" stop-color="#555BB5"/><stop offset="0.468468" stop-color="#545CB6"/><stop offset="0.477477" stop-color="#535DB6"/><stop offset="0.486486" stop-color="#525DB6"/><stop offset="0.495495" stop-color="#515EB7"/><stop offset="0.504505" stop-color="#505EB7"/><stop offset="0.513514" stop-color="#4F5FB7"/><stop offset="0.522523" stop-color="#4E5FB7"/><stop offset="0.531532" stop-color="#4D60B8"/><stop offset="0.540541" stop-color="#4C61B8"/><stop offset="0.54955" stop-color="#4B61B8"/><stop offset="0.558559" stop-color="#4A62B9"/><stop offset="0.567568" stop-color="#4962B9"/><stop offset="0.576577" stop-color="#4863B9"/><stop offset="0.585586" stop-color="#4663B9"/><stop offset="0.594595" stop-color="#4564BA"/><stop offset="0.603604" stop-color="#4464BA"/><stop offset="0.612613" stop-color="#4365BA"/><stop offset="0.621622" stop-color="#4265BA"/><stop offset="0.630631" stop-color="#4066BB"/><stop offset="0.63964" stop-color="#3F66BB"/><stop offset="0.648649" stop-color="#3E66BB"/><stop offset="0.657658" stop-color="#3C67BB"/><stop offset="0.666667" stop-color="#3B67BB"/><stop offset="0.675676" stop-color="#3A68BC"/><stop offset="0.684685" stop-color="#3868BC"/><stop offset="0.693694" stop-color="#3769BC"/><stop offset="0.702703" stop-color="#3669BC"/><stop offset="0.711712" stop-color="#3469BC"/><stop offset="0.720721" stop-color="#336ABD"/><stop offset="0.72973" stop-color="#316ABD"/><stop offset="0.738739" stop-color="#306ABD"/><stop offset="0.747748" stop-color="#2F6BBD"/><stop offset="0.756757" stop-color="#2D6BBD"/><stop offset="0.765766" stop-color="#2C6BBD"/><stop offset="0.774775" stop-color="#2A6CBE"/><stop offset="0.783784" stop-color="#296CBE"/><stop offset="0.792793" stop-color="#276CBE"/><stop offset="0.801802" stop-color="#256CBE"/><stop offset="0.810811" stop-color="#246DBE"/><stop offset="0.81982" stop-color="#226DBE"/><stop offset="0.828829" stop-color="#216DBE"/><stop offset="0.837838" stop-color="#1F6DBE"/><stop offset="0.846847" stop-color="#1D6EBF"/><stop offset="0.855856" stop-color="#1C6EBF"/><stop offset="0.864865" stop-color="#1A6EBF"/><stop offset="0.873874" stop-color="#196EBF"/><stop offset="0.882883" stop-color="#176EBF"/><stop offset="0.891892" stop-color="#156FBF"/><stop offset="0.900901" stop-color="#136FBF"/><stop offset="0.90991" stop-color="#126FBF"/><stop offset="0.918919" stop-color="#106FBF"/><stop offset="0.927928" stop-color="#0E6FBF"/><stop offset="0.936937" stop-color="#0C6FBF"/><stop offset="0.945946" stop-color="#0B6FBF"/><stop offset="0.954955" stop-color="#096FBF"/><stop offset="0.963964" stop-color="#076FBF"/><stop offset="0.972973" stop-color="#056FBF"/><stop offset="0.981982" stop-color="#036FBF"/><stop offset="0.990991" stop-color="#016FBF"/><stop offset="1" stop-color="#0070C0"/></linearGradient></defs><g clip-path="url(#clip4)"><rect x="0" y="0" width="624" height="491.404" fill="#FFFFFF"/><g clip-path="url(#clip5)" filter="url(#fx0)" transform="translate(25 176)"><g clip-path="url(#clip6)"><rect x="6.82989" y="6.60829" width="189" height="188.771" fill="#F2F2F2"/></g></g><g clip-path="url(#clip7)" filter="url(#fx1)" transform="translate(85 262)"><g clip-path="url(#clip8)"><path d="M61.1991 14.1436C60.8351 14.1436 60.4921 14.21 60.1701 14.3428 59.8481 14.4757 59.5611 14.6679 59.3091 14.9196 59.0571 15.1713 58.8576 15.4789 58.7106 15.8425 58.5636 16.2061 58.4901 16.6186 58.4901 17.08 58.4901 17.5414 58.5636 17.9539 58.7106 18.3175 58.8576 18.6811 59.0571 18.9887 59.3091 19.2404 59.5611 19.4921 59.8481 19.6843 60.1701 19.8172 60.4921 19.95 60.8351 20.0164 61.1991 20.0164 61.5491 20.0164 61.8886 19.95 62.2176 19.8172 62.5466 19.6843 62.8371 19.4921 63.0891 19.2404 63.3411 18.9887 63.5406 18.6811 63.6876 18.3175 63.8346 17.9539 63.9081 17.5414 63.9081 17.08 63.9081 16.6186 63.8346 16.2061 63.6876 15.8425 63.5406 15.4789 63.3411 15.1713 63.0891 14.9196 62.8371 14.6679 62.5466 14.4757 62.2176 14.3428 61.8886 14.21 61.5491 14.1436 61.1991 14.1436ZM29.0941 13.8499C28.5061 13.8499 27.9881 14.0177 27.5401 14.3533 27.0921 14.6889 26.7771 15.1573 26.5951 15.7586L31.5721 15.7586C31.5581 15.5768 31.4986 15.3741 31.3936 15.1503 31.2886 14.9266 31.1346 14.7169 30.9316 14.5211 30.7286 14.3253 30.4766 14.1645 30.1756 14.0387 29.8746 13.9128 29.5141 13.8499 29.0941 13.8499ZM75.0181 11.6056C75.3821 11.6056 75.6936 11.6445 75.9526 11.7222 76.2116 11.7998 76.4321 11.9008 76.6141 12.0251L75.8791 14.4792C75.7111 14.3953 75.5256 14.3288 75.3226 14.2799 75.1196 14.231 74.8711 14.2065 74.5771 14.2065 74.1991 14.2065 73.8561 14.2803 73.5481 14.4279 73.2401 14.5755 72.9776 14.7828 72.7606 15.0499 72.5436 15.317 72.3756 15.6298 72.2566 15.9882 72.1376 16.3466 72.0781 16.7366 72.0781 17.1583L72.0781 22.2188 69.3271 22.2188 69.3271 11.9412 71.9101 11.9412 71.9101 13.3675 72.0781 13.3675C72.2041 13.1158 72.3721 12.8851 72.5821 12.6753 72.7921 12.4656 73.0266 12.2828 73.2856 12.1271 73.5446 11.9713 73.8246 11.8454 74.1256 11.7495 74.4266 11.6536 74.7241 11.6056 75.0181 11.6056ZM61.1991 11.6056C61.9971 11.6056 62.7286 11.742 63.3936 12.0146 64.0586 12.2873 64.6326 12.6649 65.1156 13.1473 65.5986 13.6297 65.9766 14.2065 66.2496 14.8777 66.5226 15.5489 66.6591 16.283 66.6591 17.08 66.6591 17.877 66.5226 18.6111 66.2496 19.2823 65.9766 19.9535 65.5986 20.5303 65.1156 21.0127 64.6326 21.4951 64.0586 21.8727 63.3936 22.1453 62.7286 22.418 61.9971 22.5544 61.1991 22.5544 60.4011 22.5544 59.6696 22.418 59.0046 22.1453 58.3396 21.8727 57.7656 21.4951 57.2826 21.0127 56.7996 20.5303 56.4216 19.9535 56.1486 19.2823 55.8756 18.6111 55.7391 17.877 55.7391 17.08 55.7391 16.283 55.8756 15.5489 56.1486 14.8777 56.4216 14.2065 56.7996 13.6297 57.2826 13.1473 57.7656 12.6649 58.3396 12.2873 59.0046 12.0146 59.6696 11.742 60.4011 11.6056 61.1991 11.6056ZM41.1991 11.6056C42.3891 11.6056 43.3901 11.8783 44.2021 12.4236 45.0141 12.969 45.6091 13.6751 45.9871 14.5421L43.4671 15.5908C43.2291 15.1154 42.9246 14.7553 42.5536 14.5106 42.1826 14.2659 41.7171 14.1436 41.1571 14.1436 40.7931 14.1436 40.4501 14.2135 40.1281 14.3533 39.8061 14.4931 39.5226 14.6889 39.2776 14.9406 39.0326 15.1923 38.8401 15.4999 38.7001 15.8635 38.5601 16.227 38.4901 16.6325 38.4901 17.08 38.4901 17.5275 38.5601 17.933 38.7001 18.2965 38.8401 18.6601 39.0326 18.9677 39.2776 19.2194 39.5226 19.4711 39.8061 19.6669 40.1281 19.8067 40.4501 19.9465 40.7931 20.0164 41.1571 20.0164 41.7311 20.0164 42.2176 19.8871 42.6166 19.6284 43.0156 19.3697 43.3341 18.9957 43.5721 18.5063L46.0921 19.5969C45.6441 20.4639 45.0176 21.1735 44.2126 21.7259 43.4076 22.2782 42.4031 22.5544 41.1991 22.5544 40.4011 22.5544 39.6696 22.418 39.0046 22.1453 38.3396 21.8727 37.7656 21.4916 37.2826 21.0022 36.7996 20.5128 36.4216 19.936 36.1486 19.2718 35.8756 18.6076 35.7391 17.877 35.7391 17.08 35.7391 16.283 35.8756 15.5489 36.1486 14.8777 36.4216 14.2065 36.7996 13.6297 37.2826 13.1473 37.7656 12.6649 38.3396 12.2873 39.0046 12.0146 39.6696 11.742 40.4011 11.6056 41.1991 11.6056ZM29.0941 11.6056C29.9201 11.6056 30.6551 11.742 31.2991 12.0146 31.9431 12.2873 32.4821 12.6649 32.9161 13.1473 33.3501 13.6297 33.6791 14.1995 33.9031 14.8567 34.1271 15.5139 34.2391 16.227 34.2391 16.9961 34.2391 17.094 34.2391 17.1779 34.2391 17.2478 34.2251 17.3317 34.2181 17.4086 34.2181 17.4785 34.2041 17.5484 34.1971 17.6253 34.1971 17.7092L26.4481 17.7092C26.5041 18.1287 26.6196 18.4888 26.7946 18.7894 26.9696 19.0901 27.1866 19.3418 27.4456 19.5445 27.7046 19.7473 27.9881 19.8941 28.2961 19.985 28.6041 20.0759 28.9191 20.1213 29.2411 20.1213 29.8711 20.1213 30.3926 19.978 30.8056 19.6913 31.2186 19.4047 31.5441 19.0446 31.7821 18.6111L34.0711 19.7438C33.5951 20.5827 32.9546 21.2609 32.1496 21.7783 31.3446 22.2957 30.3611 22.5544 29.1991 22.5544 28.4151 22.5544 27.6906 22.418 27.0256 22.1453 26.3606 21.8727 25.7831 21.4916 25.2931 21.0022 24.8031 20.5128 24.4216 19.936 24.1486 19.2718 23.8756 18.6076 23.7391 17.877 23.7391 17.08 23.7391 16.3389 23.8721 15.6363 24.1381 14.9721 24.4041 14.3079 24.7751 13.7276 25.2511 13.2312 25.7271 12.7348 26.2906 12.3397 26.9416 12.0461 27.5926 11.7525 28.3101 11.6056 29.0941 11.6056ZM49.4611 8.79505 52.2121 8.79505 52.2121 11.9412 54.7321 11.9412 54.7321 14.2904 52.2121 14.2904 52.2121 18.3971C52.2121 18.6423 52.2366 18.8693 52.2856 19.0782 52.3346 19.287 52.4291 19.4636 52.5691 19.6078 52.7651 19.8383 53.0451 19.9535 53.4091 19.9535 53.6471 19.9535 53.8361 19.929 53.9761 19.8801 54.1161 19.8312 54.2491 19.7647 54.3751 19.6808L55.1521 22.0929C54.8301 22.2467 54.4836 22.3621 54.1126 22.439 53.7416 22.5159 53.3321 22.5544 52.8841 22.5544 52.3661 22.5544 51.9006 22.4723 51.4876 22.3081 51.0746 22.1439 50.7281 21.9191 50.4481 21.6338 49.7901 20.9914 49.4611 20.0779 49.4611 18.8933L49.4611 14.2904 47.6551 14.2904 47.6551 11.9412 49.4611 11.9412ZM14.8661 6.86539C16.0841 6.86539 17.1726 7.07514 18.1316 7.49463 19.0906 7.91412 19.9131 8.49442 20.5991 9.23552L18.6461 11.1442C18.1561 10.6268 17.6101 10.2318 17.0081 9.95914 16.4061 9.68647 15.6851 9.55014 14.8451 9.55014 14.1591 9.55014 13.5081 9.67249 12.8921 9.91719 12.2761 10.1619 11.7371 10.508 11.2751 10.9554 10.8131 11.4029 10.4456 11.9447 10.1726 12.581 9.89959 13.2172 9.76309 13.9268 9.76309 14.7099 9.76309 15.4929 9.89959 16.2026 10.1726 16.8388 10.4456 17.475 10.8166 18.0169 11.2856 18.4643 11.7546 18.9118 12.2971 19.2579 12.9131 19.5026 13.5291 19.7473 14.1871 19.8696 14.8871 19.8696 15.6851 19.8696 16.3606 19.7542 16.9136 19.5235 17.4666 19.2928 17.9391 18.9957 18.3311 18.6321 18.6111 18.3804 18.8526 18.0623 19.0556 17.6778 19.2586 17.2932 19.4161 16.8633 19.5281 16.3878L14.8031 16.3878 14.8031 13.9758 22.1741 13.9758C22.2161 14.1436 22.2511 14.3463 22.2791 14.584 22.3071 14.8217 22.3211 15.0594 22.3211 15.2972 22.3211 16.262 22.1741 17.1709 21.8801 18.0239 21.5861 18.8768 21.1241 19.6389 20.4941 20.3101 19.8221 21.0232 19.0171 21.5755 18.0791 21.9671 17.1411 22.3586 16.0701 22.5544 14.8661 22.5544 13.7741 22.5544 12.7451 22.3586 11.7791 21.9671 10.8131 21.5755 9.97309 21.0302 9.25908 20.331 8.54509 19.6319 7.97808 18.8034 7.55808 17.8456 7.13809 16.8877 6.92809 15.8425 6.92809 14.7099 6.92809 13.5772 7.13809 12.532 7.55808 11.5742 7.97808 10.6163 8.54509 9.78784 9.25908 9.08869 9.97309 8.38954 10.8131 7.84421 11.7791 7.45268 12.7451 7.06116 13.7741 6.86539 14.8661 6.86539Z" fill="#FF0000" fill-rule="evenodd"/></g></g><rect x="29" y="179.782" width="189" height="188.771" fill="#F2F2F2"/><path d="M143.369 273.317C143.005 273.317 142.662 273.383 142.34 273.516 142.018 273.649 141.731 273.841 141.479 274.093 141.227 274.345 141.028 274.652 140.881 275.016 140.734 275.38 140.66 275.792 140.66 276.253 140.66 276.715 140.734 277.127 140.881 277.491 141.028 277.855 141.227 278.162 141.479 278.414 141.731 278.666 142.018 278.858 142.34 278.991 142.662 279.124 143.005 279.19 143.369 279.19 143.719 279.19 144.059 279.124 144.388 278.991 144.717 278.858 145.007 278.666 145.259 278.414 145.511 278.162 145.711 277.855 145.858 277.491 146.005 277.127 146.078 276.715 146.078 276.253 146.078 275.792 146.005 275.38 145.858 275.016 145.711 274.652 145.511 274.345 145.259 274.093 145.007 273.841 144.717 273.649 144.388 273.516 144.059 273.383 143.719 273.317 143.369 273.317ZM111.264 273.023C110.676 273.023 110.158 273.191 109.71 273.527 109.262 273.862 108.947 274.331 108.765 274.932L113.742 274.932C113.728 274.75 113.669 274.548 113.564 274.324 113.459 274.1 113.305 273.89 113.102 273.695 112.899 273.499 112.647 273.338 112.346 273.212 112.045 273.086 111.684 273.023 111.264 273.023ZM157.188 270.779C157.552 270.779 157.864 270.818 158.123 270.896 158.382 270.973 158.602 271.074 158.784 271.199L158.049 273.653C157.881 273.569 157.696 273.502 157.493 273.453 157.29 273.404 157.041 273.38 156.747 273.38 156.369 273.38 156.026 273.454 155.718 273.601 155.41 273.749 155.148 273.956 154.931 274.223 154.714 274.49 154.546 274.803 154.427 275.162 154.308 275.52 154.248 275.91 154.248 276.332L154.248 281.392 151.497 281.392 151.497 271.115 154.08 271.115 154.08 272.541 154.248 272.541C154.374 272.289 154.542 272.059 154.752 271.849 154.962 271.639 155.197 271.456 155.456 271.301 155.715 271.145 155.995 271.019 156.296 270.923 156.597 270.827 156.894 270.779 157.188 270.779ZM143.369 270.779C144.167 270.779 144.899 270.915 145.564 271.188 146.229 271.461 146.803 271.838 147.286 272.321 147.769 272.803 148.147 273.38 148.42 274.051 148.693 274.722 148.829 275.456 148.829 276.253 148.829 277.051 148.693 277.785 148.42 278.456 148.147 279.127 147.769 279.704 147.286 280.186 146.803 280.669 146.229 281.046 145.564 281.319 144.899 281.591 144.167 281.728 143.369 281.728 142.571 281.728 141.84 281.591 141.175 281.319 140.51 281.046 139.936 280.669 139.453 280.186 138.97 279.704 138.592 279.127 138.319 278.456 138.046 277.785 137.909 277.051 137.909 276.253 137.909 275.456 138.046 274.722 138.319 274.051 138.592 273.38 138.97 272.803 139.453 272.321 139.936 271.838 140.51 271.461 141.175 271.188 141.84 270.915 142.571 270.779 143.369 270.779ZM123.369 270.779C124.559 270.779 125.56 271.052 126.372 271.597 127.184 272.142 127.779 272.849 128.157 273.716L125.637 274.764C125.399 274.289 125.095 273.929 124.724 273.684 124.353 273.439 123.887 273.317 123.327 273.317 122.963 273.317 122.62 273.387 122.298 273.527 121.976 273.667 121.693 273.862 121.448 274.114 121.203 274.366 121.01 274.673 120.87 275.037 120.73 275.401 120.66 275.806 120.66 276.253 120.66 276.701 120.73 277.106 120.87 277.47 121.01 277.834 121.203 278.141 121.448 278.393 121.693 278.645 121.976 278.84 122.298 278.98 122.62 279.12 122.963 279.19 123.327 279.19 123.901 279.19 124.388 279.061 124.787 278.802 125.186 278.543 125.504 278.169 125.742 277.68L128.262 278.77C127.814 279.637 127.188 280.347 126.383 280.899 125.578 281.452 124.573 281.728 123.369 281.728 122.571 281.728 121.84 281.591 121.175 281.319 120.51 281.046 119.936 280.665 119.453 280.176 118.97 279.686 118.592 279.11 118.319 278.445 118.046 277.781 117.909 277.051 117.909 276.253 117.909 275.456 118.046 274.722 118.319 274.051 118.592 273.38 118.97 272.803 119.453 272.321 119.936 271.838 120.51 271.461 121.175 271.188 121.84 270.915 122.571 270.779 123.369 270.779ZM111.264 270.779C112.09 270.779 112.825 270.915 113.469 271.188 114.113 271.461 114.652 271.838 115.086 272.321 115.52 272.803 115.849 273.373 116.073 274.03 116.297 274.687 116.409 275.401 116.409 276.17 116.409 276.267 116.409 276.351 116.409 276.421 116.395 276.505 116.388 276.582 116.388 276.652 116.374 276.722 116.367 276.799 116.367 276.883L108.618 276.883C108.674 277.302 108.79 277.662 108.965 277.963 109.14 278.264 109.357 278.515 109.616 278.718 109.875 278.921 110.158 279.068 110.466 279.158 110.774 279.249 111.089 279.295 111.411 279.295 112.041 279.295 112.563 279.151 112.976 278.865 113.389 278.578 113.714 278.218 113.952 277.785L116.241 278.917C115.765 279.756 115.125 280.434 114.32 280.952 113.515 281.469 112.531 281.728 111.369 281.728 110.585 281.728 109.861 281.591 109.196 281.319 108.531 281.046 107.953 280.665 107.463 280.176 106.973 279.686 106.592 279.11 106.319 278.445 106.046 277.781 105.909 277.051 105.909 276.253 105.909 275.512 106.042 274.81 106.308 274.146 106.574 273.481 106.945 272.901 107.421 272.405 107.897 271.908 108.461 271.513 109.112 271.22 109.763 270.926 110.48 270.779 111.264 270.779ZM131.631 267.969 134.382 267.969 134.382 271.115 136.902 271.115 136.902 273.464 134.382 273.464 134.382 277.571C134.382 277.816 134.407 278.043 134.456 278.252 134.505 278.461 134.599 278.637 134.739 278.781 134.935 279.012 135.215 279.127 135.579 279.127 135.817 279.127 136.006 279.103 136.146 279.054 136.286 279.005 136.419 278.938 136.545 278.854L137.322 281.266C137 281.42 136.654 281.536 136.283 281.612 135.912 281.689 135.502 281.728 135.054 281.728 134.536 281.728 134.071 281.646 133.658 281.482 133.245 281.317 132.898 281.093 132.618 280.807 131.96 280.165 131.631 279.251 131.631 278.067L131.631 273.464 129.825 273.464 129.825 271.115 131.631 271.115ZM97.0362 266.039C98.2542 266.039 99.3427 266.249 100.302 266.668 101.261 267.088 102.083 267.668 102.769 268.409L100.816 270.318C100.326 269.8 99.7802 269.405 99.1781 269.133 98.5761 268.86 97.8552 268.724 97.0152 268.724 96.3291 268.724 95.6781 268.846 95.0621 269.091 94.4462 269.335 93.9072 269.681 93.4452 270.129 92.9832 270.576 92.6156 271.118 92.3426 271.754 92.0696 272.391 91.9332 273.1 91.9332 273.883 91.9332 274.666 92.0696 275.376 92.3426 276.012 92.6156 276.648 92.9867 277.19 93.4557 277.638 93.9246 278.085 94.4671 278.431 95.0831 278.676 95.6992 278.921 96.3571 279.043 97.0572 279.043 97.8552 279.043 98.5307 278.928 99.0836 278.697 99.6367 278.466 100.109 278.169 100.501 277.806 100.781 277.554 101.023 277.236 101.226 276.851 101.429 276.467 101.586 276.037 101.698 275.561L96.9732 275.561 96.9732 273.149 104.344 273.149C104.386 273.317 104.421 273.52 104.449 273.758 104.477 273.995 104.491 274.233 104.491 274.471 104.491 275.435 104.344 276.344 104.05 277.197 103.756 278.05 103.294 278.812 102.664 279.484 101.992 280.197 101.187 280.749 100.249 281.141 99.3111 281.532 98.2402 281.728 97.0362 281.728 95.9442 281.728 94.9152 281.532 93.9492 281.141 92.9832 280.749 92.1432 280.204 91.4291 279.505 90.7151 278.805 90.1481 277.977 89.7281 277.019 89.3082 276.061 89.0982 275.016 89.0982 273.883 89.0982 272.751 89.3082 271.706 89.7281 270.748 90.1481 269.79 90.7151 268.961 91.4291 268.262 92.1432 267.563 92.9832 267.018 93.9492 266.626 94.9152 266.235 95.9442 266.039 97.0362 266.039Z" fill="url(#fill9)" fill-rule="evenodd"/><text fill="#000000" fill-opacity="0" font-family="Arial,Arial_MSFontService,sans-serif" font-size="15.689" x="89.0982" y="279.767">Gector</text><g clip-path="url(#clip10)" filter="url(#fx2)" transform="translate(368 176)"><g clip-path="url(#clip11)"><rect x="6.82993" y="6.60829" width="189" height="188.771" fill="#F2F2F2"/></g></g><g clip-path="url(#clip12)" filter="url(#fx3)" transform="translate(401 249)"><g clip-path="url(#clip13)"><path d="M46.6157 14.0741C46.0277 14.0741 45.5097 14.2419 45.0617 14.5775 44.6137 14.9131 44.2987 15.3815 44.1167 15.9828L49.0937 15.9828C49.0797 15.801 49.0202 15.5983 48.9152 15.3745 48.8102 15.1508 48.6562 14.9411 48.4532 14.7453 48.2502 14.5495 47.9982 14.3887 47.6972 14.2629 47.3962 14.137 47.0357 14.0741 46.6157 14.0741ZM24.7647 12.1654 27.5157 12.1654 27.5157 18.0593C27.5157 18.8004 27.6802 19.3492 28.0092 19.7058 28.3382 20.0623 28.8177 20.2406 29.4477 20.2406 29.8257 20.2406 30.1582 20.1602 30.4452 19.9994 30.7322 19.8386 30.9772 19.6219 31.1802 19.3492 31.3832 19.0765 31.5372 18.7549 31.6422 18.3844 31.7472 18.0138 31.7997 17.6188 31.7997 17.1993L31.7997 12.1654 34.5507 12.1654 34.5507 22.4429 31.9677 22.4429 31.9677 21.1006 31.7997 21.1006C31.4777 21.618 31.0437 22.027 30.4977 22.3276 29.9517 22.6282 29.3287 22.7785 28.6287 22.7785 27.3267 22.7785 26.3572 22.38 25.7202 21.583 25.0832 20.786 24.7647 19.7233 24.7647 18.3949ZM46.6157 11.8298C47.4417 11.8298 48.1767 11.9662 48.8207 12.2388 49.4647 12.5115 50.0037 12.889 50.4377 13.3715 50.8717 13.8539 51.2007 14.4237 51.4247 15.0809 51.6487 15.7381 51.7607 16.4512 51.7607 17.2203 51.7607 17.3182 51.7607 17.4021 51.7607 17.472 51.7467 17.5559 51.7397 17.6328 51.7397 17.7027 51.7257 17.7726 51.7187 17.8495 51.7187 17.9334L43.9697 17.9334C44.0257 18.3529 44.1412 18.713 44.3162 19.0136 44.4912 19.3142 44.7082 19.5659 44.9672 19.7687 45.2262 19.9715 45.5097 20.1183 45.8177 20.2092 46.1257 20.3001 46.4407 20.3455 46.7627 20.3455 47.3927 20.3455 47.9142 20.2022 48.3272 19.9155 48.7402 19.6289 49.0657 19.2688 49.3037 18.8353L51.5927 19.968C51.1167 20.8069 50.4762 21.4851 49.6712 22.0025 48.8662 22.5199 47.8827 22.7785 46.7207 22.7785 45.9367 22.7785 45.2122 22.6422 44.5472 22.3695 43.8822 22.0969 43.3047 21.7158 42.8147 21.2264 42.3247 20.737 41.9432 20.1602 41.6702 19.496 41.3972 18.8318 41.2607 18.1012 41.2607 17.3042 41.2607 16.5631 41.3937 15.8604 41.6597 15.1963 41.9257 14.5321 42.2967 13.9518 42.7727 13.4554 43.2487 12.959 43.8122 12.5639 44.4632 12.2703 45.1142 11.9767 45.8317 11.8298 46.6157 11.8298ZM21.5397 11.8298C21.9037 11.8298 22.2152 11.8687 22.4742 11.9463 22.7332 12.024 22.9537 12.125 23.1357 12.2493L22.4007 14.7033C22.2327 14.6194 22.0472 14.553 21.8442 14.5041 21.6412 14.4551 21.3927 14.4307 21.0987 14.4307 20.7207 14.4307 20.3777 14.5045 20.0697 14.6521 19.7617 14.7996 19.4992 15.007 19.2822 15.2741 19.0652 15.5412 18.8972 15.8539 18.7782 16.2124 18.6592 16.5708 18.5997 16.9608 18.5997 17.3825L18.5997 22.4429 15.8487 22.4429 15.8487 12.1654 18.4317 12.1654 18.4317 13.5917 18.5997 13.5917C18.7257 13.34 18.8937 13.1093 19.1037 12.8995 19.3137 12.6898 19.5482 12.507 19.8072 12.3512 20.0662 12.1955 20.3462 12.0696 20.6472 11.9737 20.9482 11.8778 21.2457 11.8298 21.5397 11.8298ZM36.8487 7.42518 39.5997 7.42518 39.5997 22.4429 36.8487 22.4429Z" fill="#FF0000" fill-rule="evenodd"/><path d="M53.7022 14.7243 60.8212 14.7243 60.8212 17.1574 53.7022 17.1574Z" fill="#FF0000" fill-rule="evenodd"/><path d="M80.5951 17.7656C79.9371 17.7656 79.4296 17.909 79.0726 18.1956 78.7156 18.4823 78.5371 18.8353 78.5371 19.2548 78.5371 19.6743 78.7086 20.0099 79.0516 20.2616 79.3946 20.5133 79.7901 20.6391 80.2381 20.6391 80.6021 20.6391 80.9381 20.5727 81.2461 20.4399 81.5541 20.307 81.8166 20.1323 82.0336 19.9155 82.2506 19.6988 82.4186 19.4471 82.5376 19.1604 82.6566 18.8738 82.7161 18.5766 82.7161 18.269 82.3941 18.1152 82.0616 17.9929 81.7186 17.902 81.3756 17.8111 81.0011 17.7656 80.5951 17.7656ZM114.288 14.3677C113.924 14.3677 113.578 14.4377 113.249 14.5775 112.92 14.7173 112.629 14.9131 112.377 15.1648 112.125 15.4165 111.922 15.7241 111.768 16.0877 111.614 16.4512 111.537 16.8567 111.537 17.3042 111.537 17.7516 111.614 18.1572 111.768 18.5207 111.922 18.8843 112.125 19.1919 112.377 19.4436 112.629 19.6953 112.92 19.891 113.249 20.0309 113.578 20.1707 113.924 20.2406 114.288 20.2406 114.652 20.2406 114.999 20.1742 115.328 20.0414 115.657 19.9085 115.947 19.7163 116.199 19.4646 116.451 19.2129 116.654 18.9052 116.808 18.5417 116.962 18.1781 117.039 17.7656 117.039 17.3042 117.039 16.8428 116.962 16.4302 116.808 16.0667 116.654 15.7031 116.451 15.3955 116.199 15.1438 115.947 14.8921 115.657 14.6998 115.328 14.567 114.999 14.4342 114.652 14.3677 114.288 14.3677ZM68.7081 14.3677C68.3441 14.3677 67.9976 14.4342 67.6686 14.567 67.3396 14.6998 67.0491 14.8921 66.7971 15.1438 66.5451 15.3955 66.3421 15.7031 66.1881 16.0667 66.0341 16.4302 65.9571 16.8428 65.9571 17.3042 65.9571 17.7656 66.0341 18.1781 66.1881 18.5417 66.3421 18.9052 66.5451 19.2129 66.7971 19.4646 67.0491 19.7163 67.3396 19.9085 67.6686 20.0414 67.9976 20.1742 68.3441 20.2406 68.7081 20.2406 69.0721 20.2406 69.4186 20.1707 69.7476 20.0309 70.0766 19.891 70.3671 19.6953 70.6191 19.4436 70.8711 19.1919 71.0741 18.8843 71.2281 18.5207 71.3821 18.1572 71.4591 17.7516 71.4591 17.3042 71.4591 16.8567 71.3821 16.4512 71.2281 16.0877 71.0741 15.7241 70.8711 15.4165 70.6191 15.1648 70.3671 14.9131 70.0766 14.7173 69.7476 14.5775 69.4186 14.4377 69.0721 14.3677 68.7081 14.3677ZM103.141 14.0741C102.553 14.0741 102.035 14.2419 101.587 14.5775 101.139 14.9131 100.824 15.3815 100.642 15.9828L105.619 15.9828C105.605 15.801 105.546 15.5983 105.441 15.3745 105.336 15.1508 105.182 14.9411 104.979 14.7453 104.776 14.5495 104.524 14.3887 104.223 14.2629 103.922 14.137 103.561 14.0741 103.141 14.0741ZM103.141 11.8298C103.967 11.8298 104.702 11.9662 105.346 12.2388 105.99 12.5115 106.529 12.889 106.963 13.3715 107.397 13.8539 107.726 14.4237 107.95 15.0809 108.174 15.7381 108.286 16.4512 108.286 17.2203 108.286 17.3182 108.286 17.4021 108.286 17.472 108.272 17.5559 108.265 17.6328 108.265 17.7027 108.251 17.7726 108.244 17.8495 108.244 17.9334L100.495 17.9334C100.551 18.3529 100.667 18.713 100.842 19.0136 101.017 19.3142 101.234 19.5659 101.493 19.7687 101.752 19.9715 102.035 20.1183 102.343 20.2092 102.651 20.3001 102.966 20.3455 103.288 20.3455 103.918 20.3455 104.44 20.2022 104.853 19.9155 105.266 19.6289 105.591 19.2688 105.829 18.8353L108.118 19.968C107.642 20.8069 107.002 21.4851 106.197 22.0025 105.392 22.5199 104.408 22.7785 103.246 22.7785 102.462 22.7785 101.738 22.6422 101.073 22.3695 100.408 22.0969 99.8301 21.7158 99.3401 21.2264 98.8501 20.737 98.4686 20.1602 98.1956 19.496 97.9226 18.8318 97.7861 18.1012 97.7861 17.3042 97.7861 16.5631 97.9191 15.8604 98.1851 15.1963 98.4511 14.5321 98.8221 13.9518 99.2981 13.4554 99.7741 12.959 100.338 12.5639 100.989 12.2703 101.64 11.9767 102.357 11.8298 103.141 11.8298ZM91.3011 11.8298C92.2811 11.8298 93.1561 12.0221 93.9261 12.4066 94.6961 12.7912 95.2631 13.4029 95.6271 14.2419L93.2541 15.2067C93.0581 14.8012 92.7711 14.5076 92.3931 14.3258 92.0151 14.144 91.6371 14.0531 91.2591 14.0531 90.8671 14.0531 90.5241 14.1335 90.2301 14.2943 89.9361 14.4551 89.7891 14.6614 89.7891 14.9131 89.7891 15.1508 89.9116 15.3396 90.1566 15.4794 90.4016 15.6192 90.7341 15.7451 91.1541 15.8569L92.7291 16.2345C93.7791 16.4862 94.5596 16.8882 95.0706 17.4405 95.5816 17.9929 95.8371 18.6466 95.8371 19.4016 95.8371 19.8491 95.7321 20.2756 95.5221 20.6811 95.3121 21.0866 95.0146 21.4467 94.6296 21.7613 94.2446 22.0759 93.7826 22.3241 93.2436 22.5059 92.7046 22.6877 92.1061 22.7785 91.4481 22.7785 90.7761 22.7785 90.1776 22.6946 89.6526 22.5268 89.1276 22.3591 88.6726 22.1388 88.2876 21.8661 87.9026 21.5935 87.5771 21.2789 87.3111 20.9223 87.0451 20.5657 86.8421 20.2057 86.7021 19.8421L89.1591 18.7934C89.3971 19.3247 89.7156 19.7198 90.1146 19.9784 90.5136 20.2371 90.9581 20.3665 91.4481 20.3665 91.9521 20.3665 92.3511 20.2756 92.6451 20.0938 92.9391 19.912 93.0861 19.6953 93.0861 19.4436 93.0861 19.1639 92.9636 18.9367 92.7186 18.7619 92.4736 18.5871 92.0501 18.4298 91.4481 18.29L89.9991 17.9754C89.6771 17.9055 89.3446 17.7936 89.0016 17.6398 88.6586 17.486 88.3471 17.2902 88.0671 17.0525 87.7871 16.8148 87.5561 16.5281 87.3741 16.1925 87.1921 15.8569 87.1011 15.4654 87.1011 15.018 87.1011 14.5146 87.2096 14.0671 87.4266 13.6756 87.6436 13.2841 87.9411 12.952 88.3191 12.6793 88.6971 12.4066 89.1416 12.1969 89.6526 12.0501 90.1636 11.9032 90.7131 11.8298 91.3011 11.8298ZM80.5111 11.8298C82.1071 11.8298 83.3251 12.2039 84.1651 12.952 85.0051 13.7001 85.4251 14.8082 85.4251 16.2764L85.4251 22.4429 82.7161 22.4429 82.7161 21.3523 82.5481 21.3523C82.2261 21.7438 81.8376 22.0794 81.3826 22.3591 80.9276 22.6387 80.3431 22.7785 79.6291 22.7785 79.0971 22.7785 78.5966 22.6911 78.1276 22.5164 77.6586 22.3416 77.2491 22.1004 76.8991 21.7927 76.5491 21.4851 76.2761 21.1146 76.0801 20.6811 75.8841 20.2476 75.7861 19.7722 75.7861 19.2548 75.7861 18.7235 75.8911 18.2445 76.1011 17.8181 76.3111 17.3916 76.6051 17.0245 76.9831 16.7169 77.3611 16.4093 77.8056 16.1751 78.3166 16.0143 78.8276 15.8534 79.3841 15.773 79.9861 15.773 80.6581 15.773 81.2111 15.8255 81.6451 15.9304 82.0791 16.0352 82.4361 16.1436 82.7161 16.2555L82.7161 15.9408C82.7161 15.3955 82.4991 14.9445 82.0651 14.588 81.6311 14.2314 81.0921 14.0531 80.4481 14.0531 79.4961 14.0531 78.6911 14.4516 78.0331 15.2487L76.0381 13.8853C77.1301 12.515 78.6211 11.8298 80.5111 11.8298ZM116.871 7.42518 119.622 7.42518 119.622 22.4429 117.039 22.4429 117.039 21.2055 116.871 21.2055C116.619 21.6389 116.227 22.0095 115.695 22.3171 115.163 22.6247 114.505 22.7785 113.721 22.7785 113.063 22.7785 112.437 22.6422 111.842 22.3695 111.247 22.0969 110.722 21.7193 110.267 21.2369 109.812 20.7545 109.451 20.1777 109.185 19.5065 108.919 18.8353 108.786 18.1012 108.786 17.3042 108.786 16.5072 108.919 15.773 109.185 15.1019 109.451 14.4307 109.812 13.8539 110.267 13.3715 110.722 12.889 111.247 12.5115 111.842 12.2388 112.437 11.9662 113.063 11.8298 113.721 11.8298 114.505 11.8298 115.163 11.9836 115.695 12.2913 116.227 12.5989 116.619 12.9695 116.871 13.4029L117.039 13.4029 116.871 11.9347ZM63.3741 7.42518 66.1251 7.42518 66.1251 11.9347 65.9571 13.4029 66.1251 13.4029C66.3771 12.9695 66.7691 12.5989 67.3011 12.2913 67.8331 11.9836 68.4911 11.8298 69.2751 11.8298 69.9331 11.8298 70.5596 11.9662 71.1546 12.2388 71.7496 12.5115 72.2746 12.889 72.7296 13.3715 73.1846 13.8539 73.5451 14.4307 73.8111 15.1019 74.0771 15.773 74.2101 16.5072 74.2101 17.3042 74.2101 18.1012 74.0771 18.8353 73.8111 19.5065 73.5451 20.1777 73.1846 20.7545 72.7296 21.2369 72.2746 21.7193 71.7496 22.0969 71.1546 22.3695 70.5596 22.6422 69.9331 22.7785 69.2751 22.7785 68.4911 22.7785 67.8331 22.6247 67.3011 22.3171 66.7691 22.0095 66.3771 21.6389 66.1251 21.2055L65.9571 21.2055 65.9571 22.4429 63.3741 22.4429Z" fill="#FF0000" fill-rule="evenodd"/><path d="M85.8114 43.7341C85.1534 43.7341 84.6459 43.8774 84.2889 44.1641 83.9319 44.4507 83.7534 44.8038 83.7534 45.2233 83.7534 45.6428 83.9249 45.9784 84.2679 46.2301 84.6109 46.4818 85.0064 46.6076 85.4544 46.6076 85.8184 46.6076 86.1544 46.5412 86.4624 46.4084 86.7704 46.2755 87.0329 46.1007 87.2499 45.884 87.4669 45.6673 87.6349 45.4156 87.7539 45.1289 87.8729 44.8423 87.9324 44.5451 87.9324 44.2375 87.6104 44.0837 87.2779 43.9613 86.9349 43.8704 86.5919 43.7795 86.2174 43.7341 85.8114 43.7341ZM112.462 40.3362C112.098 40.3362 111.755 40.4026 111.433 40.5355 111.111 40.6683 110.824 40.8606 110.572 41.1123 110.32 41.364 110.121 41.6716 109.974 42.0352 109.827 42.3987 109.753 42.8112 109.753 43.2727 109.753 43.7341 109.827 44.1466 109.974 44.5102 110.121 44.8737 110.32 45.1814 110.572 45.4331 110.824 45.6847 111.111 45.877 111.433 46.0098 111.755 46.1427 112.098 46.2091 112.462 46.2091 112.812 46.2091 113.152 46.1427 113.481 46.0098 113.81 45.877 114.1 45.6847 114.352 45.4331 114.604 45.1814 114.804 44.8737 114.951 44.5102 115.098 44.1466 115.171 43.7341 115.171 43.2727 115.171 42.8112 115.098 42.3987 114.951 42.0352 114.804 41.6716 114.604 41.364 114.352 41.1123 114.1 40.8606 113.81 40.6683 113.481 40.5355 113.152 40.4026 112.812 40.3362 112.462 40.3362ZM74.9244 40.3362C74.5604 40.3362 74.2139 40.4026 73.8849 40.5355 73.5559 40.6683 73.2654 40.8606 73.0134 41.1123 72.7614 41.364 72.5584 41.6716 72.4044 42.0352 72.2504 42.3987 72.1734 42.8112 72.1734 43.2727 72.1734 43.7341 72.2504 44.1466 72.4044 44.5102 72.5584 44.8737 72.7614 45.1814 73.0134 45.4331 73.2654 45.6847 73.5559 45.877 73.8849 46.0098 74.2139 46.1427 74.5604 46.2091 74.9244 46.2091 75.2884 46.2091 75.6349 46.1392 75.9639 45.9994 76.2929 45.8595 76.5834 45.6638 76.8354 45.4121 77.0874 45.1604 77.2904 44.8527 77.4444 44.4892 77.5984 44.1256 77.6754 43.7201 77.6754 43.2727 77.6754 42.8252 77.5984 42.4197 77.4444 42.0562 77.2904 41.6926 77.0874 41.385 76.8354 41.1333 76.5834 40.8816 76.2929 40.6858 75.9639 40.546 75.6349 40.4061 75.2884 40.3362 74.9244 40.3362ZM11.8404 40.3362C11.4764 40.3362 11.1299 40.4026 10.8009 40.5355 10.4719 40.6683 10.1814 40.8606 9.92941 41.1123 9.67741 41.364 9.47441 41.6716 9.32041 42.0352 9.16641 42.3987 9.08941 42.8112 9.08941 43.2727 9.08941 43.7341 9.16641 44.1466 9.32041 44.5102 9.47441 44.8737 9.67741 45.1814 9.92941 45.4331 10.1814 45.6847 10.4719 45.877 10.8009 46.0098 11.1299 46.1427 11.4764 46.2091 11.8404 46.2091 12.2044 46.2091 12.5509 46.1392 12.8799 45.9994 13.2089 45.8595 13.4994 45.6638 13.7514 45.4121 14.0034 45.1604 14.2064 44.8527 14.3604 44.4892 14.5144 44.1256 14.5914 43.7201 14.5914 43.2727 14.5914 42.8252 14.5144 42.4197 14.3604 42.0562 14.2064 41.6926 14.0034 41.385 13.7514 41.1333 13.4994 40.8816 13.2089 40.6858 12.8799 40.546 12.5509 40.4061 12.2044 40.3362 11.8404 40.3362ZM24.3574 40.0426C23.7694 40.0426 23.2514 40.2104 22.8034 40.546 22.3554 40.8816 22.0404 41.35 21.8584 41.9513L26.8354 41.9513C26.8214 41.7695 26.7619 41.5667 26.6569 41.343 26.5519 41.1193 26.3979 40.9095 26.1949 40.7138 25.9919 40.518 25.7399 40.3572 25.4389 40.2314 25.1379 40.1055 24.7774 40.0426 24.3574 40.0426ZM101.758 38.1339 104.509 38.1339 104.509 48.4114 101.758 48.4114ZM48.5064 38.1339 51.2574 38.1339 51.2574 44.0278C51.2574 44.7689 51.4219 45.3177 51.7509 45.6742 52.0799 46.0308 52.5594 46.2091 53.1894 46.2091 53.5674 46.2091 53.8999 46.1287 54.1869 45.9679 54.4739 45.8071 54.7189 45.5904 54.9219 45.3177 55.1249 45.045 55.2789 44.7234 55.3839 44.3529 55.4889 43.9823 55.5414 43.5873 55.5414 43.1678L55.5414 38.1339 58.2924 38.1339 58.2924 48.4114 55.7094 48.4114 55.7094 47.0691 55.5414 47.0691C55.2194 47.5864 54.7854 47.9954 54.2394 48.2961 53.6934 48.5967 53.0704 48.747 52.3704 48.747 51.0684 48.747 50.0989 48.3485 49.4619 47.5515 48.8249 46.7544 48.5064 45.6917 48.5064 44.3633ZM125.512 37.7983C126.156 37.7983 126.723 37.9032 127.213 38.1129 127.703 38.3227 128.106 38.6198 128.421 39.0043 128.736 39.3889 128.974 39.8503 129.135 40.3887 129.296 40.927 129.376 41.5248 129.376 42.182L129.376 48.4114 126.625 48.4114 126.625 42.5176C126.625 41.7765 126.461 41.2276 126.132 40.8711 125.803 40.5145 125.323 40.3362 124.693 40.3362 124.315 40.3362 123.983 40.4166 123.696 40.5774 123.409 40.7382 123.164 40.955 122.961 41.2276 122.758 41.5003 122.604 41.8219 122.499 42.1925 122.394 42.563 122.341 42.958 122.341 43.3775L122.341 48.4114 119.59 48.4114 119.59 38.1339 122.173 38.1339 122.173 39.4763 122.341 39.4763C122.663 38.9589 123.097 38.5499 123.643 38.2493 124.189 37.9486 124.812 37.7983 125.512 37.7983ZM112.462 37.7983C113.26 37.7983 113.992 37.9346 114.657 38.2073 115.322 38.48 115.896 38.8575 116.379 39.3399 116.862 39.8224 117.24 40.3992 117.513 41.0703 117.786 41.7415 117.922 42.4756 117.922 43.2727 117.922 44.0697 117.786 44.8038 117.513 45.475 117.24 46.1462 116.862 46.723 116.379 47.2054 115.896 47.6878 115.322 48.0654 114.657 48.338 113.992 48.6107 113.26 48.747 112.462 48.747 111.664 48.747 110.933 48.6107 110.268 48.338 109.603 48.0654 109.029 47.6878 108.546 47.2054 108.063 46.723 107.685 46.1462 107.412 45.475 107.139 44.8038 107.002 44.0697 107.002 43.2727 107.002 42.4756 107.139 41.7415 107.412 41.0703 107.685 40.3992 108.063 39.8224 108.546 39.3399 109.029 38.8575 109.603 38.48 110.268 38.2073 110.933 37.9346 111.664 37.7983 112.462 37.7983ZM85.7274 37.7983C87.3234 37.7983 88.5414 38.1724 89.3814 38.9204 90.2214 39.6685 90.6414 40.7767 90.6414 42.2449L90.6414 48.4114 87.9324 48.4114 87.9324 47.3208 87.7644 47.3208C87.4424 47.7123 87.0539 48.0479 86.5989 48.3275 86.1439 48.6072 85.5594 48.747 84.8454 48.747 84.3134 48.747 83.8129 48.6596 83.3439 48.4848 82.8749 48.3101 82.4654 48.0688 82.1154 47.7612 81.7654 47.4536 81.4924 47.083 81.2964 46.6496 81.1004 46.2161 81.0024 45.7407 81.0024 45.2233 81.0024 44.6919 81.1074 44.213 81.3174 43.7865 81.5274 43.3601 81.8214 42.993 82.1994 42.6854 82.5774 42.3778 83.0219 42.1435 83.5329 41.9827 84.0439 41.8219 84.6004 41.7415 85.2024 41.7415 85.8744 41.7415 86.4274 41.794 86.8614 41.8988 87.2954 42.0037 87.6524 42.1121 87.9324 42.2239L87.9324 41.9093C87.9324 41.364 87.7154 40.913 87.2814 40.5565 86.8474 40.1999 86.3084 40.0216 85.6644 40.0216 84.7124 40.0216 83.9074 40.4201 83.2494 41.2172L81.2544 39.8538C82.3464 38.4835 83.8374 37.7983 85.7274 37.7983ZM66.2814 37.7983C66.6454 37.7983 66.9569 37.8372 67.2159 37.9148 67.4749 37.9925 67.6954 38.0935 67.8774 38.2178L67.1424 40.6718C66.9744 40.5879 66.7889 40.5215 66.5859 40.4726 66.3829 40.4236 66.1344 40.3992 65.8404 40.3992 65.4624 40.3992 65.1194 40.473 64.8114 40.6205 64.5034 40.7681 64.2409 40.9755 64.0239 41.2426 63.8069 41.5097 63.6389 41.8224 63.5199 42.1808 63.4009 42.5393 63.3414 42.9293 63.3414 43.351L63.3414 48.4114 60.5904 48.4114 60.5904 38.1339 63.1734 38.1339 63.1734 39.5602 63.3414 39.5602C63.4674 39.3085 63.6354 39.0778 63.8454 38.868 64.0554 38.6583 64.2899 38.4755 64.5489 38.3197 64.8079 38.1639 65.0879 38.0381 65.3889 37.9422 65.6899 37.8463 65.9874 37.7983 66.2814 37.7983ZM37.2814 37.7983C37.6454 37.7983 37.9569 37.8372 38.2159 37.9148 38.4749 37.9925 38.6954 38.0935 38.8774 38.2178L38.1424 40.6718C37.9744 40.5879 37.7889 40.5215 37.5859 40.4726 37.3829 40.4236 37.1344 40.3992 36.8404 40.3992 36.4624 40.3992 36.1194 40.473 35.8114 40.6205 35.5034 40.7681 35.2409 40.9755 35.0239 41.2426 34.8069 41.5097 34.6389 41.8224 34.5199 42.1808 34.4009 42.5393 34.3414 42.9293 34.3414 43.351L34.3414 48.4114 31.5904 48.4114 31.5904 38.1339 34.1734 38.1339 34.1734 39.5602 34.3414 39.5602C34.4674 39.3085 34.6354 39.0778 34.8454 38.868 35.0554 38.6583 35.2899 38.4755 35.5489 38.3197 35.8079 38.1639 36.0879 38.0381 36.3889 37.9422 36.6899 37.8463 36.9874 37.7983 37.2814 37.7983ZM24.3574 37.7983C25.1834 37.7983 25.9184 37.9346 26.5624 38.2073 27.2064 38.48 27.7454 38.8575 28.1794 39.3399 28.6134 39.8224 28.9424 40.3922 29.1664 41.0494 29.3904 41.7066 29.5024 42.4197 29.5024 43.1888 29.5024 43.2867 29.5024 43.3706 29.5024 43.4405 29.4884 43.5244 29.4814 43.6013 29.4814 43.6712 29.4674 43.7411 29.4604 43.818 29.4604 43.9019L21.7114 43.9019C21.7674 44.3214 21.8829 44.6815 22.0579 44.9821 22.2329 45.2827 22.4499 45.5344 22.7089 45.7372 22.9679 45.9399 23.2514 46.0868 23.5594 46.1777 23.8674 46.2685 24.1824 46.314 24.5044 46.314 25.1344 46.314 25.6559 46.1706 26.0689 45.884 26.4819 45.5973 26.8074 45.2373 27.0454 44.8038L29.3344 45.9364C28.8584 46.7754 28.2179 47.4536 27.4129 47.971 26.6079 48.4883 25.6244 48.747 24.4624 48.747 23.6784 48.747 22.9539 48.6107 22.2889 48.338 21.6239 48.0654 21.0464 47.6843 20.5564 47.1949 20.0664 46.7055 19.6849 46.1287 19.4119 45.4645 19.1389 44.8003 19.0024 44.0697 19.0024 43.2727 19.0024 42.5316 19.1354 41.8289 19.4014 41.1647 19.6674 40.5005 20.0384 39.9202 20.5144 39.4238 20.9904 38.9274 21.5539 38.5324 22.2049 38.2388 22.8559 37.9451 23.5734 37.7983 24.3574 37.7983ZM12.4074 37.7983C13.0654 37.7983 13.6919 37.9346 14.2869 38.2073 14.8819 38.48 15.4069 38.8575 15.8619 39.3399 16.3169 39.8224 16.6774 40.3992 16.9434 41.0703 17.2094 41.7415 17.3424 42.4756 17.3424 43.2727 17.3424 44.0697 17.2094 44.8038 16.9434 45.475 16.6774 46.1462 16.3169 46.723 15.8619 47.2054 15.4069 47.6878 14.8819 48.0654 14.2869 48.338 13.6919 48.6107 13.0654 48.747 12.4074 48.747 11.6234 48.747 10.9654 48.5932 10.4334 48.2856 9.90141 47.978 9.50941 47.6074 9.25741 47.1739L9.08941 47.1739 9.25741 48.6422 9.25741 52.9419 6.5064 52.9419 6.5064 38.1339 9.08941 38.1339 9.08941 39.3714 9.25741 39.3714C9.50941 38.9379 9.90141 38.5674 10.4334 38.2598 10.9654 37.9521 11.6234 37.7983 12.4074 37.7983ZM94.7244 34.9877 97.4754 34.9877 97.4754 38.1339 99.9954 38.1339 99.9954 40.4831 97.4754 40.4831 97.4754 44.5898C97.4754 44.835 97.4999 45.062 97.5489 45.2708 97.5979 45.4797 97.6924 45.6562 97.8324 45.8004 98.0284 46.0309 98.3084 46.1462 98.6724 46.1462 98.9104 46.1462 99.0994 46.1217 99.2394 46.0728 99.3794 46.0238 99.5124 45.9574 99.6384 45.8735L100.415 48.2856C100.093 48.4394 99.7469 48.5548 99.3759 48.6317 99.0049 48.7086 98.5954 48.747 98.1474 48.747 97.6294 48.747 97.1639 48.6649 96.7509 48.5007 96.3379 48.3365 95.9914 48.1118 95.7114 47.8264 95.0534 47.1841 94.7244 46.2706 94.7244 45.086L94.7244 40.4831 92.9184 40.4831 92.9184 38.1339 94.7244 38.1339ZM40.7244 34.9877 43.4754 34.9877 43.4754 38.1339 45.9954 38.1339 45.9954 40.4831 43.4754 40.4831 43.4754 44.5898C43.4754 44.835 43.4999 45.062 43.5489 45.2708 43.5979 45.4797 43.6924 45.6562 43.8324 45.8004 44.0284 46.0309 44.3084 46.1462 44.6724 46.1462 44.9104 46.1462 45.0994 46.1217 45.2394 46.0728 45.3794 46.0238 45.5124 45.9574 45.6384 45.8735L46.4154 48.2856C46.0934 48.4394 45.7469 48.5548 45.3759 48.6317 45.0049 48.7086 44.5954 48.747 44.1474 48.747 43.6294 48.747 43.1639 48.6649 42.7509 48.5007 42.3379 48.3365 41.9914 48.1118 41.7114 47.8264 41.0534 47.1841 40.7244 46.2706 40.7244 45.086L40.7244 40.4831 38.9184 40.4831 38.9184 38.1339 40.7244 38.1339ZM69.5904 33.3937 72.3414 33.3937 72.3414 37.9032 72.1734 39.3714 72.3414 39.3714C72.5934 38.9379 72.9854 38.5674 73.5174 38.2598 74.0494 37.9521 74.7074 37.7983 75.4914 37.7983 76.1494 37.7983 76.7759 37.9346 77.3709 38.2073 77.9659 38.48 78.4909 38.8575 78.9459 39.3399 79.4009 39.8224 79.7614 40.3992 80.0274 41.0703 80.2934 41.7415 80.4264 42.4756 80.4264 43.2727 80.4264 44.0697 80.2934 44.8038 80.0274 45.475 79.7614 46.1462 79.4009 46.723 78.9459 47.2054 78.4909 47.6878 77.9659 48.0654 77.3709 48.338 76.7759 48.6107 76.1494 48.747 75.4914 48.747 74.7074 48.747 74.0494 48.5932 73.5174 48.2856 72.9854 47.978 72.5934 47.6074 72.3414 47.1739L72.1734 47.1739 72.1734 48.4114 69.5904 48.4114ZM103.123 33.2259C103.613 33.2259 104.033 33.3972 104.383 33.7397 104.733 34.0823 104.908 34.4983 104.908 34.9877 104.908 35.4771 104.733 35.8931 104.383 36.2357 104.033 36.5783 103.613 36.7496 103.123 36.7496 102.885 36.7496 102.658 36.7041 102.441 36.6133 102.224 36.5224 102.035 36.3965 101.874 36.2357 101.713 36.0749 101.587 35.8896 101.496 35.6799 101.405 35.4701 101.359 35.2394 101.359 34.9877 101.359 34.736 101.405 34.5053 101.496 34.2956 101.587 34.0858 101.713 33.9005 101.874 33.7397 102.035 33.5789 102.224 33.4531 102.441 33.3622 102.658 33.2713 102.885 33.2259 103.123 33.2259Z" fill="#FF0000" fill-rule="evenodd"/></g></g><rect x="372" y="179.782" width="189" height="188.771" fill="#F2F2F2"/><path d="M444.786 260.248C444.198 260.248 443.68 260.415 443.232 260.751 442.784 261.087 442.469 261.555 442.287 262.156L447.264 262.156C447.25 261.975 447.19 261.772 447.085 261.548 446.98 261.324 446.826 261.115 446.623 260.919 446.42 260.723 446.168 260.562 445.867 260.436 445.566 260.311 445.206 260.248 444.786 260.248ZM422.935 258.339 425.686 258.339 425.686 264.233C425.686 264.974 425.85 265.523 426.179 265.879 426.508 266.236 426.988 266.414 427.618 266.414 427.996 266.414 428.328 266.334 428.615 266.173 428.902 266.012 429.147 265.795 429.35 265.523 429.553 265.25 429.707 264.928 429.812 264.558 429.917 264.187 429.97 263.792 429.97 263.373L429.97 258.339 432.721 258.339 432.721 268.616 430.138 268.616 430.138 267.274 429.97 267.274C429.648 267.791 429.214 268.2 428.668 268.501 428.122 268.802 427.499 268.952 426.799 268.952 425.497 268.952 424.527 268.554 423.89 267.756 423.253 266.959 422.935 265.897 422.935 264.568ZM444.786 258.003C445.612 258.003 446.347 258.14 446.991 258.412 447.635 258.685 448.174 259.063 448.608 259.545 449.042 260.027 449.371 260.597 449.595 261.254 449.819 261.912 449.931 262.625 449.931 263.394 449.931 263.492 449.931 263.576 449.931 263.645 449.917 263.729 449.91 263.806 449.91 263.876 449.896 263.946 449.889 264.023 449.889 264.107L442.14 264.107C442.196 264.526 442.311 264.886 442.486 265.187 442.661 265.488 442.878 265.739 443.137 265.942 443.396 266.145 443.68 266.292 443.988 266.383 444.296 266.474 444.611 266.519 444.933 266.519 445.563 266.519 446.084 266.376 446.497 266.089 446.91 265.802 447.236 265.442 447.474 265.009L449.763 266.141C449.287 266.98 448.646 267.659 447.841 268.176 447.036 268.693 446.053 268.952 444.891 268.952 444.107 268.952 443.382 268.816 442.717 268.543 442.052 268.27 441.475 267.889 440.985 267.4 440.495 266.911 440.113 266.334 439.84 265.67 439.567 265.005 439.431 264.275 439.431 263.478 439.431 262.737 439.564 262.034 439.83 261.37 440.096 260.706 440.467 260.125 440.943 259.629 441.419 259.132 441.982 258.737 442.633 258.444 443.284 258.15 444.002 258.003 444.786 258.003ZM419.71 258.003C420.074 258.003 420.385 258.042 420.644 258.12 420.903 258.198 421.124 258.298 421.306 258.423L420.571 260.877C420.403 260.793 420.217 260.727 420.014 260.678 419.811 260.629 419.563 260.604 419.269 260.604 418.891 260.604 418.548 260.678 418.24 260.826 417.932 260.973 417.669 261.18 417.452 261.448 417.235 261.715 417.067 262.027 416.948 262.386 416.829 262.744 416.77 263.134 416.77 263.556L416.77 268.616 414.019 268.616 414.019 258.339 416.602 258.339 416.602 259.765 416.77 259.765C416.896 259.513 417.064 259.283 417.274 259.073 417.484 258.863 417.718 258.681 417.977 258.525 418.236 258.369 418.516 258.243 418.817 258.147 419.118 258.051 419.416 258.003 419.71 258.003ZM435.019 253.599 437.77 253.599 437.77 268.616 435.019 268.616Z" fill="url(#fill14)" fill-rule="evenodd"/><text fill="#000000" fill-opacity="0" font-family="Arial,Arial_MSFontService,sans-serif" font-size="15.3534" x="414.019" y="267.033">rule</text><path d="M451.872 260.898 458.991 260.898 458.991 263.331 451.872 263.331Z" fill="url(#fill15)" fill-rule="evenodd"/><text fill="#000000" fill-opacity="0" font-family="Arial,Arial_MSFontService,sans-serif" font-size="2.43304" x="451.872" y="263.027">-</text><path d="M478.765 263.939C478.107 263.939 477.6 264.082 477.243 264.369 476.886 264.656 476.707 265.009 476.707 265.428 476.707 265.848 476.879 266.183 477.222 266.435 477.565 266.687 477.96 266.813 478.408 266.813 478.772 266.813 479.108 266.746 479.416 266.613 479.724 266.481 479.987 266.306 480.204 266.089 480.421 265.872 480.589 265.621 480.708 265.334 480.827 265.047 480.886 264.75 480.886 264.443 480.564 264.289 480.232 264.166 479.889 264.075 479.546 263.985 479.171 263.939 478.765 263.939ZM512.458 260.541C512.094 260.541 511.748 260.611 511.419 260.751 511.09 260.891 510.799 261.087 510.547 261.338 510.295 261.59 510.092 261.898 509.938 262.261 509.784 262.625 509.707 263.03 509.707 263.478 509.707 263.925 509.784 264.331 509.938 264.694 510.092 265.058 510.295 265.365 510.547 265.617 510.799 265.869 511.09 266.065 511.419 266.204 511.748 266.344 512.094 266.414 512.458 266.414 512.822 266.414 513.169 266.348 513.498 266.215 513.827 266.082 514.117 265.89 514.369 265.638 514.621 265.386 514.824 265.079 514.978 264.715 515.132 264.352 515.209 263.939 515.209 263.478 515.209 263.016 515.132 262.604 514.978 262.24 514.824 261.877 514.621 261.569 514.369 261.317 514.117 261.066 513.827 260.873 513.498 260.741 513.169 260.608 512.822 260.541 512.458 260.541ZM466.878 260.541C466.514 260.541 466.168 260.608 465.839 260.741 465.51 260.873 465.219 261.066 464.967 261.317 464.715 261.569 464.512 261.877 464.358 262.24 464.204 262.604 464.127 263.016 464.127 263.478 464.127 263.939 464.204 264.352 464.358 264.715 464.512 265.079 464.715 265.386 464.967 265.638 465.219 265.89 465.51 266.082 465.839 266.215 466.168 266.348 466.514 266.414 466.878 266.414 467.242 266.414 467.589 266.344 467.918 266.204 468.247 266.065 468.537 265.869 468.789 265.617 469.041 265.365 469.244 265.058 469.398 264.694 469.552 264.331 469.629 263.925 469.629 263.478 469.629 263.03 469.552 262.625 469.398 262.261 469.244 261.898 469.041 261.59 468.789 261.338 468.537 261.087 468.247 260.891 467.918 260.751 467.589 260.611 467.242 260.541 466.878 260.541ZM501.311 260.248C500.723 260.248 500.205 260.415 499.757 260.751 499.309 261.087 498.994 261.555 498.812 262.156L503.789 262.156C503.775 261.975 503.716 261.772 503.611 261.548 503.506 261.324 503.352 261.115 503.149 260.919 502.946 260.723 502.694 260.562 502.393 260.436 502.092 260.311 501.731 260.248 501.311 260.248ZM501.311 258.003C502.137 258.003 502.872 258.14 503.516 258.412 504.16 258.685 504.699 259.063 505.133 259.545 505.567 260.027 505.896 260.597 506.12 261.254 506.344 261.912 506.456 262.625 506.456 263.394 506.456 263.492 506.456 263.576 506.456 263.645 506.442 263.729 506.435 263.806 506.435 263.876 506.421 263.946 506.414 264.023 506.414 264.107L498.665 264.107C498.721 264.526 498.837 264.886 499.012 265.187 499.187 265.488 499.404 265.739 499.663 265.942 499.922 266.145 500.205 266.292 500.513 266.383 500.821 266.474 501.136 266.519 501.458 266.519 502.088 266.519 502.61 266.376 503.023 266.089 503.436 265.802 503.761 265.442 503.999 265.009L506.288 266.141C505.812 266.98 505.172 267.659 504.367 268.176 503.562 268.693 502.578 268.952 501.416 268.952 500.632 268.952 499.908 268.816 499.243 268.543 498.578 268.27 498 267.889 497.51 267.4 497.02 266.911 496.639 266.334 496.366 265.67 496.093 265.005 495.956 264.275 495.956 263.478 495.956 262.737 496.089 262.034 496.355 261.37 496.621 260.706 496.992 260.125 497.468 259.629 497.944 259.132 498.508 258.737 499.159 258.444 499.81 258.15 500.527 258.003 501.311 258.003ZM489.471 258.003C490.451 258.003 491.326 258.196 492.096 258.58 492.866 258.965 493.433 259.576 493.797 260.415L491.424 261.38C491.228 260.975 490.941 260.681 490.563 260.499 490.185 260.318 489.807 260.227 489.429 260.227 489.037 260.227 488.694 260.307 488.4 260.468 488.106 260.629 487.959 260.835 487.959 261.087 487.959 261.324 488.082 261.513 488.327 261.653 488.572 261.793 488.904 261.919 489.324 262.03L490.899 262.408C491.949 262.66 492.73 263.062 493.241 263.614 493.752 264.166 494.007 264.82 494.007 265.575 494.007 266.023 493.902 266.449 493.692 266.855 493.482 267.26 493.185 267.62 492.8 267.935 492.415 268.249 491.953 268.498 491.414 268.679 490.875 268.861 490.276 268.952 489.618 268.952 488.946 268.952 488.348 268.868 487.823 268.7 487.298 268.533 486.843 268.312 486.458 268.04 486.073 267.767 485.747 267.452 485.481 267.096 485.215 266.739 485.012 266.379 484.872 266.016L487.329 264.967C487.567 265.498 487.886 265.893 488.285 266.152 488.684 266.411 489.128 266.54 489.618 266.54 490.122 266.54 490.521 266.449 490.815 266.267 491.109 266.086 491.256 265.869 491.256 265.617 491.256 265.337 491.134 265.11 490.889 264.935 490.644 264.761 490.22 264.603 489.618 264.464L488.169 264.149C487.847 264.079 487.515 263.967 487.172 263.813 486.829 263.659 486.517 263.464 486.237 263.226 485.957 262.988 485.726 262.702 485.544 262.366 485.362 262.03 485.271 261.639 485.271 261.191 485.271 260.688 485.38 260.241 485.597 259.849 485.814 259.458 486.111 259.125 486.489 258.853 486.867 258.58 487.312 258.37 487.823 258.224 488.334 258.077 488.883 258.003 489.471 258.003ZM478.681 258.003C480.277 258.003 481.495 258.377 482.335 259.125 483.175 259.874 483.595 260.982 483.595 262.45L483.595 268.616 480.886 268.616 480.886 267.526 480.718 267.526C480.396 267.917 480.008 268.253 479.553 268.533 479.098 268.812 478.513 268.952 477.799 268.952 477.267 268.952 476.767 268.865 476.298 268.69 475.829 268.515 475.419 268.274 475.069 267.966 474.719 267.659 474.446 267.288 474.25 266.855 474.054 266.421 473.956 265.946 473.956 265.428 473.956 264.897 474.061 264.418 474.271 263.992 474.481 263.565 474.775 263.198 475.153 262.89 475.531 262.583 475.976 262.349 476.487 262.188 476.998 262.027 477.554 261.947 478.156 261.947 478.828 261.947 479.381 261.999 479.815 262.104 480.249 262.209 480.606 262.317 480.886 262.429L480.886 262.114C480.886 261.569 480.669 261.118 480.235 260.761 479.801 260.405 479.262 260.227 478.618 260.227 477.666 260.227 476.861 260.625 476.203 261.422L474.208 260.059C475.3 258.688 476.791 258.003 478.681 258.003ZM515.041 253.599 517.792 253.599 517.792 268.616 515.209 268.616 515.209 267.379 515.041 267.379C514.789 267.812 514.397 268.183 513.865 268.491 513.333 268.798 512.675 268.952 511.891 268.952 511.233 268.952 510.607 268.816 510.012 268.543 509.417 268.27 508.892 267.893 508.437 267.41 507.982 266.928 507.621 266.351 507.355 265.68 507.089 265.009 506.956 264.275 506.956 263.478 506.956 262.681 507.089 261.947 507.355 261.275 507.621 260.604 507.982 260.027 508.437 259.545 508.892 259.063 509.417 258.685 510.012 258.412 510.607 258.14 511.233 258.003 511.891 258.003 512.675 258.003 513.333 258.157 513.865 258.465 514.397 258.772 514.789 259.143 515.041 259.576L515.209 259.576 515.041 258.108ZM461.544 253.599 464.295 253.599 464.295 258.108 464.127 259.576 464.295 259.576C464.547 259.143 464.939 258.772 465.471 258.465 466.003 258.157 466.661 258.003 467.445 258.003 468.103 258.003 468.73 258.14 469.325 258.412 469.92 258.685 470.445 259.063 470.9 259.545 471.355 260.027 471.715 260.604 471.981 261.275 472.247 261.947 472.38 262.681 472.38 263.478 472.38 264.275 472.247 265.009 471.981 265.68 471.715 266.351 471.355 266.928 470.9 267.41 470.445 267.893 469.92 268.27 469.325 268.543 468.73 268.816 468.103 268.952 467.445 268.952 466.661 268.952 466.003 268.798 465.471 268.491 464.939 268.183 464.547 267.812 464.295 267.379L464.127 267.379 464.127 268.616 461.544 268.616Z" fill="url(#fill16)" fill-rule="evenodd"/><text fill="#000000" fill-opacity="0" font-family="Arial,Arial_MSFontService,sans-serif" font-size="15.3534" x="461.544" y="267.033">based</text><path d="M483.981 289.908C483.323 289.908 482.816 290.051 482.459 290.338 482.102 290.624 481.923 290.977 481.923 291.397 481.923 291.816 482.095 292.152 482.438 292.404 482.781 292.655 483.176 292.781 483.624 292.781 483.988 292.781 484.324 292.715 484.632 292.582 484.94 292.449 485.203 292.274 485.42 292.057 485.637 291.841 485.805 291.589 485.924 291.302 486.043 291.016 486.102 290.719 486.102 290.411 485.78 290.257 485.448 290.135 485.105 290.044 484.762 289.953 484.387 289.908 483.981 289.908ZM510.633 286.51C510.268 286.51 509.925 286.576 509.604 286.709 509.281 286.842 508.995 287.034 508.742 287.286 508.49 287.537 508.291 287.845 508.144 288.209 507.997 288.572 507.923 288.985 507.923 289.446 507.923 289.908 507.997 290.32 508.144 290.684 508.291 291.047 508.49 291.355 508.742 291.607 508.995 291.858 509.281 292.051 509.604 292.183 509.925 292.316 510.268 292.383 510.633 292.383 510.982 292.383 511.322 292.316 511.651 292.183 511.98 292.051 512.271 291.858 512.522 291.607 512.774 291.355 512.974 291.047 513.121 290.684 513.268 290.32 513.341 289.908 513.341 289.446 513.341 288.985 513.268 288.572 513.121 288.209 512.974 287.845 512.774 287.537 512.522 287.286 512.271 287.034 511.98 286.842 511.651 286.709 511.322 286.576 510.982 286.51 510.633 286.51ZM473.094 286.51C472.73 286.51 472.384 286.576 472.055 286.709 471.726 286.842 471.435 287.034 471.183 287.286 470.931 287.537 470.728 287.845 470.574 288.209 470.42 288.572 470.343 288.985 470.343 289.446 470.343 289.908 470.42 290.32 470.574 290.684 470.728 291.047 470.931 291.355 471.183 291.607 471.435 291.858 471.726 292.051 472.055 292.183 472.384 292.316 472.73 292.383 473.094 292.383 473.458 292.383 473.805 292.313 474.134 292.173 474.463 292.033 474.753 291.837 475.005 291.586 475.257 291.334 475.46 291.026 475.614 290.663 475.768 290.299 475.845 289.894 475.845 289.446 475.845 288.999 475.768 288.593 475.614 288.23 475.46 287.866 475.257 287.558 475.005 287.307 474.753 287.055 474.463 286.859 474.134 286.719 473.805 286.58 473.458 286.51 473.094 286.51ZM410.01 286.51C409.646 286.51 409.3 286.576 408.971 286.709 408.642 286.842 408.351 287.034 408.099 287.286 407.847 287.537 407.644 287.845 407.49 288.209 407.336 288.572 407.259 288.985 407.259 289.446 407.259 289.908 407.336 290.32 407.49 290.684 407.644 291.047 407.847 291.355 408.099 291.607 408.351 291.858 408.642 292.051 408.971 292.183 409.3 292.316 409.646 292.383 410.01 292.383 410.374 292.383 410.721 292.313 411.05 292.173 411.379 292.033 411.669 291.837 411.921 291.586 412.173 291.334 412.376 291.026 412.53 290.663 412.684 290.299 412.761 289.894 412.761 289.446 412.761 288.999 412.684 288.593 412.53 288.23 412.376 287.866 412.173 287.558 411.921 287.307 411.669 287.055 411.379 286.859 411.05 286.719 410.721 286.58 410.374 286.51 410.01 286.51ZM422.527 286.216C421.939 286.216 421.421 286.384 420.973 286.719 420.525 287.055 420.21 287.523 420.028 288.125L425.005 288.125C424.991 287.943 424.932 287.74 424.827 287.517 424.722 287.293 424.568 287.083 424.365 286.887 424.162 286.691 423.91 286.531 423.609 286.405 423.308 286.279 422.947 286.216 422.527 286.216ZM499.928 284.307 502.68 284.307 502.68 294.585 499.928 294.585ZM446.676 284.307 449.427 284.307 449.427 290.201C449.427 290.942 449.592 291.491 449.921 291.848 450.25 292.204 450.729 292.383 451.359 292.383 451.737 292.383 452.07 292.302 452.357 292.141 452.644 291.981 452.889 291.764 453.092 291.491 453.295 291.219 453.449 290.897 453.554 290.526 453.659 290.156 453.711 289.761 453.711 289.341L453.711 284.307 456.462 284.307 456.462 294.585 453.879 294.585 453.879 293.243 453.711 293.243C453.389 293.76 452.956 294.169 452.409 294.47 451.863 294.77 451.24 294.921 450.54 294.921 449.238 294.921 448.269 294.522 447.632 293.725 446.995 292.928 446.676 291.865 446.676 290.537ZM523.682 283.972C524.326 283.972 524.893 284.077 525.383 284.286 525.873 284.496 526.276 284.793 526.591 285.178 526.906 285.562 527.144 286.024 527.305 286.562 527.466 287.101 527.547 287.698 527.547 288.355L527.547 294.585 524.795 294.585 524.795 288.691C524.795 287.95 524.631 287.401 524.302 287.045 523.973 286.688 523.493 286.51 522.863 286.51 522.485 286.51 522.153 286.59 521.866 286.751 521.579 286.912 521.334 287.128 521.131 287.401 520.928 287.674 520.774 287.995 520.669 288.366 520.564 288.737 520.511 289.132 520.511 289.551L520.511 294.585 517.76 294.585 517.76 284.307 520.344 284.307 520.344 285.65 520.511 285.65C520.833 285.132 521.267 284.723 521.813 284.423 522.359 284.122 522.982 283.972 523.682 283.972ZM510.633 283.972C511.43 283.972 512.162 284.108 512.827 284.381 513.492 284.653 514.066 285.031 514.549 285.513 515.032 285.996 515.41 286.573 515.683 287.244 515.956 287.915 516.092 288.649 516.092 289.446 516.092 290.243 515.956 290.977 515.683 291.648 515.41 292.32 515.032 292.896 514.549 293.379 514.066 293.861 513.492 294.239 512.827 294.512 512.162 294.784 511.43 294.921 510.633 294.921 509.834 294.921 509.103 294.784 508.438 294.512 507.773 294.239 507.199 293.861 506.716 293.379 506.233 292.896 505.855 292.32 505.582 291.648 505.309 290.977 505.172 290.243 505.172 289.446 505.172 288.649 505.309 287.915 505.582 287.244 505.855 286.573 506.233 285.996 506.716 285.513 507.199 285.031 507.773 284.653 508.438 284.381 509.103 284.108 509.834 283.972 510.633 283.972ZM483.897 283.972C485.493 283.972 486.711 284.346 487.551 285.094 488.391 285.842 488.811 286.95 488.811 288.418L488.811 294.585 486.102 294.585 486.102 293.494 485.934 293.494C485.612 293.886 485.224 294.221 484.769 294.501 484.314 294.781 483.729 294.921 483.015 294.921 482.483 294.921 481.983 294.833 481.514 294.658 481.045 294.484 480.635 294.242 480.285 293.935 479.935 293.627 479.662 293.257 479.466 292.823 479.27 292.39 479.172 291.914 479.172 291.397 479.172 290.865 479.277 290.387 479.487 289.96 479.697 289.534 479.991 289.167 480.369 288.859 480.747 288.551 481.192 288.317 481.703 288.156 482.214 287.995 482.77 287.915 483.372 287.915 484.044 287.915 484.597 287.967 485.031 288.072 485.465 288.177 485.822 288.286 486.102 288.397L486.102 288.083C486.102 287.537 485.885 287.087 485.451 286.73 485.017 286.373 484.478 286.195 483.834 286.195 482.882 286.195 482.077 286.594 481.419 287.391L479.424 286.027C480.516 284.657 482.007 283.972 483.897 283.972ZM464.451 283.972C464.815 283.972 465.127 284.011 465.386 284.088 465.645 284.166 465.865 284.267 466.047 284.391L465.312 286.845C465.144 286.761 464.959 286.695 464.756 286.646 464.553 286.597 464.304 286.573 464.01 286.573 463.632 286.573 463.289 286.646 462.981 286.794 462.673 286.942 462.411 287.149 462.194 287.416 461.977 287.683 461.809 287.996 461.69 288.354 461.571 288.713 461.511 289.103 461.511 289.524L461.511 294.585 458.76 294.585 458.76 284.307 461.343 284.307 461.343 285.734 461.511 285.734C461.637 285.482 461.805 285.251 462.015 285.042 462.225 284.832 462.46 284.649 462.719 284.493 462.978 284.337 463.258 284.212 463.559 284.116 463.86 284.02 464.157 283.972 464.451 283.972ZM435.451 283.972C435.815 283.972 436.127 284.011 436.386 284.088 436.645 284.166 436.865 284.267 437.047 284.391L436.312 286.845C436.144 286.761 435.959 286.695 435.756 286.646 435.553 286.597 435.304 286.573 435.01 286.573 434.632 286.573 434.289 286.646 433.981 286.794 433.673 286.942 433.411 287.149 433.194 287.416 432.977 287.683 432.809 287.996 432.69 288.354 432.571 288.713 432.511 289.103 432.511 289.524L432.511 294.585 429.76 294.585 429.76 284.307 432.343 284.307 432.343 285.734 432.511 285.734C432.637 285.482 432.805 285.251 433.015 285.042 433.225 284.832 433.46 284.649 433.719 284.493 433.978 284.337 434.258 284.212 434.559 284.116 434.86 284.02 435.157 283.972 435.451 283.972ZM422.527 283.972C423.353 283.972 424.088 284.108 424.732 284.381 425.376 284.653 425.915 285.031 426.349 285.513 426.783 285.996 427.112 286.566 427.336 287.223 427.56 287.88 427.672 288.593 427.672 289.362 427.672 289.46 427.672 289.544 427.672 289.614 427.658 289.698 427.651 289.775 427.651 289.845 427.637 289.915 427.63 289.991 427.63 290.075L419.881 290.075C419.938 290.495 420.053 290.855 420.228 291.156 420.403 291.456 420.62 291.708 420.879 291.911 421.138 292.113 421.421 292.26 421.729 292.351 422.037 292.442 422.352 292.487 422.674 292.487 423.304 292.487 423.826 292.344 424.239 292.057 424.652 291.771 424.977 291.411 425.215 290.977L427.504 292.11C427.028 292.949 426.388 293.627 425.583 294.144 424.778 294.662 423.794 294.921 422.632 294.921 421.848 294.921 421.124 294.784 420.459 294.512 419.794 294.239 419.216 293.858 418.726 293.368 418.236 292.879 417.855 292.302 417.582 291.638 417.309 290.974 417.172 290.243 417.172 289.446 417.172 288.705 417.305 288.002 417.571 287.338 417.837 286.674 418.208 286.094 418.684 285.597 419.16 285.101 419.724 284.706 420.375 284.412 421.026 284.119 421.743 283.972 422.527 283.972ZM410.577 283.972C411.235 283.972 411.862 284.108 412.457 284.381 413.052 284.653 413.577 285.031 414.032 285.513 414.487 285.996 414.847 286.573 415.113 287.244 415.379 287.915 415.512 288.649 415.512 289.446 415.512 290.243 415.379 290.977 415.113 291.648 414.847 292.32 414.487 292.896 414.032 293.379 413.577 293.861 413.052 294.239 412.457 294.512 411.862 294.784 411.235 294.921 410.577 294.921 409.793 294.921 409.135 294.767 408.603 294.459 408.071 294.151 407.679 293.781 407.427 293.347L407.259 293.347 407.427 294.816 407.427 299.115 404.676 299.115 404.676 284.307 407.259 284.307 407.259 285.545 407.427 285.545C407.679 285.111 408.071 284.741 408.603 284.433 409.135 284.126 409.793 283.972 410.577 283.972ZM492.894 281.161 495.645 281.161 495.645 284.307 498.165 284.307 498.165 286.657 495.645 286.657 495.645 290.763C495.645 291.008 495.67 291.235 495.719 291.444 495.768 291.653 495.862 291.83 496.003 291.974 496.198 292.204 496.478 292.32 496.842 292.32 497.081 292.32 497.27 292.295 497.409 292.246 497.549 292.197 497.682 292.131 497.809 292.047L498.585 294.459C498.263 294.613 497.917 294.728 497.546 294.805 497.175 294.882 496.765 294.921 496.317 294.921 495.799 294.921 495.334 294.838 494.921 294.674 494.508 294.51 494.161 294.285 493.881 294 493.223 293.358 492.894 292.444 492.894 291.259L492.894 286.657 491.089 286.657 491.089 284.307 492.894 284.307ZM438.894 281.161 441.645 281.161 441.645 284.307 444.165 284.307 444.165 286.657 441.645 286.657 441.645 290.763C441.645 291.008 441.67 291.235 441.719 291.444 441.768 291.653 441.862 291.83 442.003 291.974 442.198 292.204 442.478 292.32 442.842 292.32 443.081 292.32 443.269 292.295 443.409 292.246 443.549 292.197 443.682 292.131 443.808 292.047L444.585 294.459C444.263 294.613 443.917 294.728 443.546 294.805 443.175 294.882 442.766 294.921 442.317 294.921 441.799 294.921 441.334 294.838 440.921 294.674 440.508 294.51 440.161 294.285 439.882 294 439.223 293.358 438.894 292.444 438.894 291.259L438.894 286.657 437.089 286.657 437.089 284.307 438.894 284.307ZM467.76 279.567 470.511 279.567 470.511 284.077 470.343 285.545 470.511 285.545C470.763 285.111 471.155 284.741 471.688 284.433 472.219 284.126 472.877 283.972 473.661 283.972 474.319 283.972 474.946 284.108 475.541 284.381 476.136 284.653 476.661 285.031 477.116 285.513 477.571 285.996 477.931 286.573 478.197 287.244 478.464 287.915 478.596 288.649 478.596 289.446 478.596 290.243 478.464 290.977 478.197 291.648 477.931 292.32 477.571 292.896 477.116 293.379 476.661 293.861 476.136 294.239 475.541 294.512 474.946 294.784 474.319 294.921 473.661 294.921 472.877 294.921 472.219 294.767 471.688 294.459 471.155 294.151 470.763 293.781 470.511 293.347L470.343 293.347 470.343 294.585 467.76 294.585ZM501.293 279.399C501.784 279.399 502.203 279.571 502.553 279.913 502.904 280.256 503.078 280.672 503.078 281.161 503.078 281.651 502.904 282.067 502.553 282.409 502.203 282.752 501.784 282.923 501.293 282.923 501.055 282.923 500.828 282.878 500.611 282.787 500.394 282.696 500.205 282.57 500.044 282.409 499.883 282.248 499.757 282.063 499.666 281.853 499.575 281.644 499.529 281.413 499.529 281.161 499.529 280.91 499.575 280.679 499.666 280.469 499.757 280.259 499.883 280.074 500.044 279.913 500.205 279.752 500.394 279.627 500.611 279.536 500.828 279.445 501.055 279.399 501.293 279.399Z" fill="url(#fill17)" fill-rule="evenodd"/><text fill="#000000" fill-opacity="0" font-family="Arial,Arial_MSFontService,sans-serif" font-size="19.7161" x="404.676" y="296.651">perturbation</text><rect x="349" y="48.9406" width="189" height="37.9539" fill="#F2F2F2"/><text font-family="Product Sans,Product Sans_MSFontService,sans-serif" font-weight="400" font-size="17" transform="matrix(1 0 0 0.998788 367.968 74)">perturbed sentence</text><rect x="372" y="67.9176" width="189" height="37.954" fill="#F2F2F2"/><text font-family="Product Sans,Product Sans_MSFontService,sans-serif" font-weight="400" font-size="17" transform="matrix(1 0 0 0.998788 391.078 93)">perturbed sentence</text><rect x="29" y="438.468" width="189" height="37.954" fill="#F2F2F2"/><text font-family="Product Sans,Product Sans_MSFontService,sans-serif" font-weight="400" font-size="17" transform="matrix(1 0 0 0.998788 88.6547 462)">sentence</text><rect x="402" y="86.8945" width="189" height="37.954" fill="#F2F2F2"/><text font-family="Product Sans,Product Sans_MSFontService,sans-serif" font-weight="400" font-size="17" transform="matrix(1 0 0 0.998788 421.228 111)">perturbed sentence</text><path d="M0.333107-5.04826e-07 0.333202 62.5659-0.333012 62.5659-0.333107 5.04826e-07ZM3.99738 61.2335 0.000104916 69.2281-3.99719 61.2335Z" transform="matrix(1.00121 0 0 -1 124.5 438.28)"/><path d="M218.5 274.833 365.447 274.833 365.447 275.499 218.5 275.499ZM364.113 271.169 372.117 275.166 364.113 279.163Z"/><path d="M0 0 342.279 0.000104916" stroke="#000000" stroke-width="0.666214" stroke-miterlimit="8" fill="none" fill-rule="evenodd" transform="matrix(1.00121 0 0 -1 124.5 404.01)"/><path d="M466.834 375.714 466.834 403.666 466.167 403.666 466.167 375.714ZM462.498 377.047 466.5 369.052 470.502 377.047Z"/><path d="M0.333107-6.31709e-07 0.333199 48.661-0.333015 48.661-0.333107 6.31709e-07ZM3.99738 47.3286 0.000104916 55.3232-3.9972 47.3286Z" transform="matrix(1.00121 0 0 -1 466.5 180.671)"/><rect x="336.5" y="33.4594" width="268" height="107.869" stroke="#7F7F7F" stroke-width="1.33405" stroke-miterlimit="8" stroke-dasharray="5.33618 4.00214" fill="none"/><rect x="29" y="86.8945" width="189" height="37.954" fill="#F2F2F2"/><text font-family="Product Sans,Product Sans_MSFontService,sans-serif" font-weight="400" font-size="17" transform="matrix(1 0 0 0.998788 49.1335 111)">corrected sentence</text><path d="M0.333107-6.30927e-07 0.333199 48.7296-0.333015 48.7296-0.333107 6.30927e-07ZM3.99738 47.3972 0.000104916 55.3918-3.9972 47.3972Z" transform="matrix(1.00121 0 0 -1 124.5 180.74)"/><text fill="#7F7F7F" font-family="Product Sans,Product Sans_MSFontService,sans-serif" font-weight="400" font-size="13" transform="matrix(1 0 0 0.998788 275.06 421)">tokens<tspan font-size="13" x="-8.38412" y="-128.155">extracted</tspan><tspan font-size="13" x="-30.9829" y="-112.136">attention weights</tspan><tspan font-size="13" x="204.163" y="-395.479">perturbed sentences</tspan></text></g></svg>