<svg width="1210" height="643" xmlns="http://www.w3.org/2000/svg" xmlns:xlink="http://www.w3.org/1999/xlink" overflow="hidden"><defs><clipPath id="clip0"><rect x="0" y="0" width="1210" height="643"/></clipPath></defs><g clip-path="url(#clip0)"><rect x="0" y="0" width="1210" height="643.234" fill="#FFFFFF"/><path d="M71.5422 42.1304 71.5 20.5075" stroke="#D9D9D9" stroke-width="0.867025" stroke-miterlimit="8" fill="none" fill-rule="evenodd"/><path d="M97.5423 42.1304 97.5 20.5075" stroke="#D9D9D9" stroke-width="0.867025" stroke-miterlimit="8" fill="none" fill-rule="evenodd"/><path d="M123.542 42.1304 123.5 20.5075" stroke="#D9D9D9" stroke-width="0.867025" stroke-miterlimit="8" fill="none" fill-rule="evenodd"/><path d="M148.542 42.1304 148.5 20.5075" stroke="#D9D9D9" stroke-width="0.867025" stroke-miterlimit="8" fill="none" fill-rule="evenodd"/><rect x="169" y="46.0168" width="70.9999" height="57.0208" fill="#FFC000"/><rect x="32" y="513.187" width="613" height="37.0134" fill="#F2F2F2"/><text font-family="Product Sans,Product Sans_MSFontService,sans-serif" font-weight="400" font-size="19" transform="matrix(1 0 0 1.00036 278.825 539)">attention<tspan font-size="19" x="78.6992" y="0">head</tspan></text><rect x="32" y="455.166" width="613" height="37.0135" fill="#F2F2F2"/><text font-family="Product Sans,Product Sans_MSFontService,sans-serif" font-weight="400" font-size="19" transform="matrix(1 0 0 1.00036 286.911 481)">feedforward</text><path d="M0.333471-1.07547e-06 0.333555 25.8974-0.333388 25.8974-0.333471 1.07547e-06ZM4.00173 24.5635 0.00010503 32.5668-4.00157 24.5635Z" fill="#D9D9D9" transform="matrix(1 0 0 -1.00036 72.5 583.279)"/><path d="M0.333471-1.07547e-06 0.333555 25.8974-0.333388 25.8974-0.333471 1.07547e-06ZM4.00173 24.5635 0.00010503 32.5668-4.00157 24.5635Z" fill="#D9D9D9" transform="matrix(1 0 0 -1.00036 285.5 583.279)"/><path d="M391.167 583.28 391.166 557.373 391.833 557.373 391.833 583.28ZM387.498 558.707 391.5 550.701 395.502 558.707Z" fill="#D9D9D9"/><path d="M0.333471-1.07547e-06 0.333555 25.8974-0.333388 25.8974-0.333471 1.07547e-06ZM4.00173 24.5635 0.00010503 32.5668-4.00157 24.5635Z" fill="#D9D9D9" transform="matrix(1 0 0 -1.00036 498.5 583.279)"/><path d="M0.333471-1.07547e-06 0.333555 25.8974-0.333388 25.8974-0.333471 1.07547e-06ZM4.00173 24.5635 0.00010503 32.5668-4.00157 24.5635Z" fill="#D9D9D9" transform="matrix(1 0 0 -1.00036 604.5 583.279)"/><path d="M0.333471-1.07547e-06 0.333555 25.8974-0.333388 25.8974-0.333471 1.07547e-06ZM4.00173 24.5635 0.00010503 32.5668-4.00157 24.5635Z" fill="#D9D9D9" transform="matrix(1 0 0 -1.00036 179.5 583.279)"/><path d="M0.333471-1.66422e-06 0.333543 14.3762-0.333399 14.3762-0.333471 1.66422e-06ZM4.00172 13.0423 0.00010503 21.0457-4.00159 13.0424Z" fill="#D9D9D9" transform="matrix(1 0 0 -1.00036 72.5 513.733)"/><path d="M0.333471-1.66422e-06 0.333543 14.3762-0.333399 14.3762-0.333471 1.66422e-06ZM4.00172 13.0423 0.00010503 21.0457-4.00159 13.0424Z" fill="#D9D9D9" transform="matrix(1 0 0 -1.00036 179.5 513.733)"/><path d="M0.333471-1.66422e-06 0.333543 14.3762-0.333399 14.3762-0.333471 1.66422e-06ZM4.00172 13.0423 0.00010503 21.0457-4.00159 13.0424Z" fill="#D9D9D9" transform="matrix(1 0 0 -1.00036 285.5 513.733)"/><path d="M0.333471-1.66422e-06 0.333543 14.3762-0.333399 14.3762-0.333471 1.66422e-06ZM4.00172 13.0423 0.00010503 21.0457-4.00159 13.0424Z" fill="#D9D9D9" transform="matrix(1 0 0 -1.00036 392.5 513.733)"/><path d="M0.333471-1.66422e-06 0.333543 14.3762-0.333399 14.3762-0.333471 1.66422e-06ZM4.00172 13.0423 0.00010503 21.0457-4.00159 13.0424Z" fill="#D9D9D9" transform="matrix(1 0 0 -1.00036 498.5 513.733)"/><path d="M0.333471-1.66422e-06 0.333543 14.3762-0.333399 14.3762-0.333471 1.66422e-06ZM4.00172 13.0423 0.00010503 21.0457-4.00159 13.0424Z" fill="#D9D9D9" transform="matrix(1 0 0 -1.00036 604.5 513.733)"/><path d="M0.333471-1.66422e-06 0.333543 14.3762-0.333399 14.3762-0.333471 1.66422e-06ZM4.00172 13.0423 0.00010503 21.0457-4.00159 13.0424Z" fill="#D9D9D9" transform="matrix(1 0 0 -1.00036 72.5 455.712)"/><path d="M0.333471-1.66422e-06 0.333543 14.3762-0.333399 14.3762-0.333471 1.66422e-06ZM4.00172 13.0423 0.00010503 21.0457-4.00159 13.0424Z" fill="#D9D9D9" transform="matrix(1 0 0 -1.00036 179.5 455.712)"/><path d="M0.333471-1.66422e-06 0.333543 14.3762-0.333399 14.3762-0.333471 1.66422e-06ZM4.00172 13.0423 0.00010503 21.0457-4.00159 13.0424Z" fill="#D9D9D9" transform="matrix(1 0 0 -1.00036 285.5 455.712)"/><path d="M0.333471-1.66422e-06 0.333543 14.3762-0.333399 14.3762-0.333471 1.66422e-06ZM4.00172 13.0423 0.00010503 21.0457-4.00159 13.0424Z" fill="#D9D9D9" transform="matrix(1 0 0 -1.00036 392.5 455.712)"/><path d="M0.333471-1.66422e-06 0.333543 14.3762-0.333399 14.3762-0.333471 1.66422e-06ZM4.00172 13.0423 0.00010503 21.0457-4.00159 13.0424Z" fill="#D9D9D9" transform="matrix(1 0 0 -1.00036 498.5 455.712)"/><path d="M0.333471-1.66422e-06 0.333543 14.3762-0.333399 14.3762-0.333471 1.66422e-06ZM4.00172 13.0423 0.00010503 21.0457-4.00159 13.0424Z" fill="#D9D9D9" transform="matrix(1 0 0 -1.00036 604.5 455.712)"/><path d="M0.333471-1.07547e-06 0.333555 25.8974-0.333388 25.8974-0.333471 1.07547e-06ZM4.00173 24.5635 0.00010503 32.5668-4.00157 24.5635Z" fill="#D9D9D9" transform="matrix(1 0 0 -1.00036 72.5 374.203)"/><path d="M0.333471-1.07547e-06 0.333555 25.8974-0.333388 25.8974-0.333471 1.07547e-06ZM4.00173 24.5635 0.00010503 32.5668-4.00157 24.5635Z" fill="#D9D9D9" transform="matrix(1 0 0 -1.00036 285.5 374.203)"/><path d="M0.333471-1.05981e-06 0.333555 26.3785-0.333387 26.3785-0.333471 1.05981e-06ZM4.00173 25.0446 0.00010503 33.0479-4.00157 25.0446Z" fill="#D9D9D9" transform="matrix(1 0 0 -1.00036 392.5 374.684)"/><path d="M0.333471-1.07547e-06 0.333555 25.8974-0.333388 25.8974-0.333471 1.07547e-06ZM4.00173 24.5635 0.00010503 32.5668-4.00157 24.5635Z" fill="#D9D9D9" transform="matrix(1 0 0 -1.00036 498.5 374.203)"/><path d="M0.333471-1.07547e-06 0.333555 25.8974-0.333388 25.8974-0.333471 1.07547e-06ZM4.00173 24.5635 0.00010503 32.5668-4.00157 24.5635Z" fill="#D9D9D9" transform="matrix(1 0 0 -1.00036 604.5 374.203)"/><path d="M0.333471-1.07547e-06 0.333555 25.8974-0.333388 25.8974-0.333471 1.07547e-06ZM4.00173 24.5635 0.00010503 32.5668-4.00157 24.5635Z" fill="#D9D9D9" transform="matrix(1 0 0 -1.00036 179.5 374.203)"/><path d="M0.333471-1.66422e-06 0.333543 14.3762-0.333399 14.3762-0.333471 1.66422e-06ZM4.00172 13.0423 0.00010503 21.0457-4.00159 13.0424Z" fill="#D9D9D9" transform="matrix(1 0 0 -1.00036 72.5 304.657)"/><path d="M0.333471-1.66422e-06 0.333543 14.3762-0.333399 14.3762-0.333471 1.66422e-06ZM4.00172 13.0423 0.00010503 21.0457-4.00159 13.0424Z" fill="#D9D9D9" transform="matrix(1 0 0 -1.00036 179.5 304.657)"/><path d="M0.333471-1.66422e-06 0.333543 14.3762-0.333399 14.3762-0.333471 1.66422e-06ZM4.00172 13.0423 0.00010503 21.0457-4.00159 13.0424Z" fill="#D9D9D9" transform="matrix(1 0 0 -1.00036 285.5 304.657)"/><path d="M0.333471-1.66422e-06 0.333543 14.3762-0.333399 14.3762-0.333471 1.66422e-06ZM4.00172 13.0423 0.00010503 21.0457-4.00159 13.0424Z" fill="#D9D9D9" transform="matrix(1 0 0 -1.00036 392.5 304.657)"/><path d="M0.333471-1.66422e-06 0.333543 14.3762-0.333399 14.3762-0.333471 1.66422e-06ZM4.00172 13.0423 0.00010503 21.0457-4.00159 13.0424Z" fill="#D9D9D9" transform="matrix(1 0 0 -1.00036 498.5 304.657)"/><path d="M0.333471-1.66422e-06 0.333543 14.3762-0.333399 14.3762-0.333471 1.66422e-06ZM4.00172 13.0423 0.00010503 21.0457-4.00159 13.0424Z" fill="#D9D9D9" transform="matrix(1 0 0 -1.00036 604.5 304.657)"/><path d="M0.333471-1.53352e-06 0.333545 16.1699-0.333397 16.1699-0.333471 1.53352e-06ZM4.00172 14.836 0.00010503 22.8394-4.00159 14.8361Z" fill="#D9D9D9" transform="matrix(1 0 0 -1.00036 72.5 247.43)"/><path d="M285.209 247.206 285.18 232.255 285.847 232.253 285.876 247.204ZM281.514 233.596 285.5 225.582 289.517 233.581Z" fill="#D9D9D9"/><path d="M392.209 247.43 392.179 231.254 392.846 231.253 392.876 247.429ZM388.513 232.596 392.5 224.582 396.517 232.581Z" fill="#D9D9D9"/><path d="M0.333471-1.5537e-06 0.333545 15.8732-0.333397 15.8732-0.333471 1.5537e-06ZM4.00172 14.5393 0.00010503 22.5426-4.00159 14.5394Z" fill="#D9D9D9" transform="matrix(1 0 0 -1.00036 498.5 247.133)"/><path d="M0.333471-1.53355e-06 0.333545 16.1695-0.333397 16.1695-0.333471 1.53355e-06ZM4.00172 14.8356 0.00010503 22.8389-4.00159 14.8356Z" fill="#D9D9D9" transform="matrix(1 0 0 -1.00036 604.5 247.429)"/><path d="M0.333471-1.53353e-06 0.333545 16.1697-0.333397 16.1697-0.333471 1.53353e-06ZM4.00172 14.8358 0.00010503 22.8391-4.00159 14.8359Z" fill="#D9D9D9" transform="matrix(1 0 0 -1.00036 179.5 247.429)"/><rect x="29.5" y="451.665" width="620" height="103.038" stroke="#000000" stroke-width="1.33388" stroke-miterlimit="8" fill="none"/><rect x="29.5" y="243.589" width="620" height="102.037" stroke="#000000" stroke-width="1.33388" stroke-miterlimit="8" fill="none"/><text fill="#7F7F7F" font-family="Cambria Math,Cambria Math_MSFontService,sans-serif" font-weight="400" font-size="24" transform="matrix(1 0 0 1.00036 335.758 409)">⋮</text><path d="M0.118635-0.311655 102.906 38.8158 102.669 39.4391-0.118635 0.311655ZM102.965 34.9131 109.021 41.5002 100.118 42.3928Z" fill="#D9D9D9" transform="matrix(1 0 0 -1.00036 72.5 224.082)"/><path d="M0.332814-0.0209279 2.52384 34.8226 1.85821 34.8644-0.332814 0.0209279ZM6.10108 33.2611 2.60958 41.4998-1.88645 33.7634Z" fill="#D9D9D9" transform="matrix(1 0 0 -1.00036 179.5 224.081)"/><path d="M285.136 224.391 187.569 185.354 187.816 184.734 285.383 223.772ZM187.445 189.257 181.5 182.567 190.417 181.823Z" fill="#D9D9D9"/><path d="M391.15 224.409 187.978 184.189 188.107 183.534 391.279 223.754ZM188.574 188.048 181.5 182.567 190.128 180.194Z" fill="#D9D9D9"/><path d="M497.54 224.412 188.068 183.766 188.155 183.104 497.627 223.751ZM188.914 187.578 181.5 182.567 189.956 179.64Z" fill="#D9D9D9"/><path d="M605.002 224.413 188.107 183.549 188.172 182.885 605.067 223.749ZM189.075 187.331 181.5 182.567 189.855 179.363Z" fill="#D9D9D9"/><path d="M0.0329495-0.331839 411.346 40.5089 411.28 41.1726-0.0329495 0.331839ZM410.382 36.7269 417.95 41.4998 409.591 44.6911Z" fill="#D9D9D9" transform="matrix(1 0 0 -1.00036 74.5 224.081)"/><path d="M0.0437411-0.33059 307.083 40.2945 306.995 40.9557-0.0437411 0.33059ZM306.241 36.4829 313.65 41.4998 305.191 44.4171Z" fill="#D9D9D9" transform="matrix(1 0 0 -1.00036 178.5 224.081)"/><path d="M0.0657953-0.326916 199.727 39.857 199.595 40.5109-0.0657953 0.326916ZM199.143 35.9977 206.199 41.4998 197.564 43.8437Z" fill="#D9D9D9" transform="matrix(1 0 0 -1.00036 286.5 224.081)"/><path d="M0.126969-0.308353 94.7449 38.6521 94.491 39.2688-0.126969 0.308353ZM94.9081 34.7523 100.785 41.4998 91.8608 42.1527Z" fill="#D9D9D9" transform="matrix(1 0 0 -1.00036 391.5 224.081)"/><path d="M498.295 224.86 493.127 189.217 493.787 189.121 498.955 224.764ZM489.689 191.064 492.5 182.567 497.609 189.915Z" fill="#D9D9D9"/><path d="M604.593 223.708 498.654 185.161 498.882 184.534 604.821 223.081ZM498.653 189.065 492.5 182.567 501.389 181.541Z" fill="#D9D9D9"/><path d="M181.653 146.149 77.5648 104.333 77.8134 103.714 181.901 145.53ZM77.4355 108.235 71.5 101.537 80.4181 100.806Z" fill="#D9D9D9"/><path d="M182.098 146.146 103.256 104.923 103.565 104.332 182.407 145.555ZM102.739 108.793 97.5 101.537 106.447 101.698Z" fill="#D9D9D9"/><path d="M181.956 146.791 128.636 106.806 129.036 106.272 182.356 146.258ZM127.503 110.543 123.5 102.537 132.304 104.137Z" fill="#D9D9D9"/><path d="M181.918 146.207 153.243 108.07 153.776 107.669 182.451 145.805ZM151.113 111.342 149.5 102.537 157.509 106.529Z" fill="#D9D9D9"/><path d="M492.261 146.165 308.919 103.378 309.071 102.728 492.413 145.515ZM309.385 107.254 302.5 101.537 311.203 99.4575Z" fill="#D9D9D9"/><path d="M491.951 146.383 395.485 104.499 395.751 103.887 492.216 145.771ZM395.248 108.397 389.5 101.537 398.435 101.052Z" fill="#D9D9D9"/><path d="M492.514 145.974 479.365 107.951 479.996 107.733 493.145 145.755ZM476.335 110.412 477.5 101.537 483.898 107.794Z" fill="#D9D9D9"/><path d="M0.175379-0.283629 66.1647 40.5201 65.814 41.0874-0.175379 0.283629ZM66.9594 36.6987 71.6619 44.3113 62.7503 43.5058Z" fill="#D9D9D9" transform="matrix(1 0 0 -1.00036 492.5 145.865)"/><rect x="743.5" y="326.619" width="19" height="19.007" stroke="#000000" stroke-width="1.33388" stroke-miterlimit="8" fill="#92D050"/><rect x="762.5" y="326.619" width="19.0001" height="19.007" stroke="#000000" stroke-width="1.33388" stroke-miterlimit="8" fill="#92D050"/><rect x="743.5" y="345.626" width="19" height="19.0069" stroke="#000000" stroke-width="1.33388" stroke-miterlimit="8" fill="#92D050"/><rect x="762.5" y="345.626" width="19.0001" height="19.0069" stroke="#000000" stroke-width="1.33388" stroke-miterlimit="8" fill="#92D050"/><rect x="753.5" y="335.622" width="19" height="19.0069" stroke="#000000" stroke-width="1.33388" stroke-miterlimit="8" fill="#D9D9D9"/><rect x="772.5" y="335.622" width="19" height="19.0069" stroke="#000000" stroke-width="1.33388" stroke-miterlimit="8" fill="#D9D9D9"/><rect x="753.5" y="354.629" width="19" height="19.0069" stroke="#000000" stroke-width="1.33388" stroke-miterlimit="8" fill="#D9D9D9"/><rect x="772.5" y="354.629" width="19" height="19.0069" stroke="#000000" stroke-width="1.33388" stroke-miterlimit="8" fill="#D9D9D9"/><rect x="762.5" y="345.626" width="19.0001" height="19.0069" stroke="#000000" stroke-width="1.33388" stroke-miterlimit="8" fill="#D9D9D9"/><rect x="781.5" y="345.626" width="19" height="19.0069" stroke="#000000" stroke-width="1.33388" stroke-miterlimit="8" fill="#D9D9D9"/><rect x="762.5" y="364.633" width="19.0001" height="18.0066" stroke="#000000" stroke-width="1.33388" stroke-miterlimit="8" fill="#D9D9D9"/><rect x="781.5" y="364.633" width="19" height="18.0066" stroke="#000000" stroke-width="1.33388" stroke-miterlimit="8" fill="#D9D9D9"/><rect x="794.5" y="374.637" width="19.0001" height="19.007" stroke="#000000" stroke-width="1.33388" stroke-miterlimit="8" fill="#D9D9D9"/><rect x="813.5" y="374.637" width="19" height="19.007" stroke="#000000" stroke-width="1.33388" stroke-miterlimit="8" fill="#D9D9D9"/><rect x="794.5" y="393.644" width="19.0001" height="19.0069" stroke="#000000" stroke-width="1.33388" stroke-miterlimit="8" fill="#D9D9D9"/><rect x="813.5" y="393.644" width="19" height="19.0069" stroke="#000000" stroke-width="1.33388" stroke-miterlimit="8" fill="#D9D9D9"/><rect x="804.5" y="382.639" width="19" height="19.0069" stroke="#000000" stroke-width="1.33388" stroke-miterlimit="8" fill="#D9D9D9"/><rect x="823.5" y="382.639" width="19" height="19.0069" stroke="#000000" stroke-width="1.33388" stroke-miterlimit="8" fill="#D9D9D9"/><rect x="804.5" y="401.646" width="19" height="19.0069" stroke="#000000" stroke-width="1.33388" stroke-miterlimit="8" fill="#D9D9D9"/><rect x="823.5" y="401.646" width="19" height="19.0069" stroke="#000000" stroke-width="1.33388" stroke-miterlimit="8" fill="#D9D9D9"/><rect x="813.5" y="391.643" width="19" height="19.0069" stroke="#000000" stroke-width="1.33388" stroke-miterlimit="8" fill="#00B0F0"/><rect x="832.5" y="391.643" width="19" height="19.0069" stroke="#000000" stroke-width="1.33388" stroke-miterlimit="8" fill="#00B0F0"/><rect x="813.5" y="410.65" width="19" height="19.0069" stroke="#000000" stroke-width="1.33388" stroke-miterlimit="8" fill="#00B0F0"/><rect x="832.5" y="410.65" width="19" height="19.0069" stroke="#000000" stroke-width="1.33388" stroke-miterlimit="8" fill="#00B0F0"/><path d="M0.333471-3.07955e-07 0.33357 107.063-0.333372 107.063-0.333471 3.07955e-07ZM4.00175 105.73 0.00010503 113.733-4.00156 105.73Z" transform="matrix(1 0 0 -1.00036 948.5 425.388)"/><text font-family="Product Sans,Product Sans_MSFontService,sans-serif" font-weight="400" font-size="11" transform="matrix(1 0 0 1.00036 978.13 447)">He<tspan font-size="11" x="46.3672" y="0">play</tspan><tspan font-size="11" x="87.8113" y="0">football</tspan><tspan font-size="11" x="151.669" y="0">.</tspan></text><rect x="972" y="399.146" width="26.0001" height="26.0094" fill="#D9D9D9"/><rect x="1021" y="393.143" width="26.0001" height="31.0113" fill="#D9D9D9"/><rect x="1071" y="374.136" width="25.9999" height="50.0182" fill="#7F7F7F"/><rect x="1118" y="387.141" width="25.9999" height="37.0135" fill="#D9D9D9"/><text font-family="Product Sans,Product Sans_MSFontService,sans-serif" font-weight="400" font-size="13" transform="matrix(1 0 0 1.00036 740.698 495)">Extracted <tspan font-size="13" x="59.3579" y="0">attention</tspan><tspan font-size="13" x="-23.5897" y="15.9942">weights</tspan><tspan font-size="13" x="25.097" y="15.9942">from</tspan><tspan font-size="13" x="56.6101" y="15.9942">first</tspan><tspan font-size="13" x="82.9543" y="15.9942">attention</tspan><tspan font-size="13" x="41.6839" y="31.9883">head</tspan></text><path d="M657 362.382 685.5 362.382 685.5 354.129 702 370.635 685.5 387.141 685.5 378.888 657 378.888Z" fill-rule="evenodd"/><path d="M886 362.382 913.5 362.382 913.5 354.129 930 370.635 913.5 387.141 913.5 378.888 886 378.888Z" fill-rule="evenodd"/><text font-family="Product Sans,Product Sans_MSFontService,sans-serif" font-weight="400" font-size="13" transform="matrix(1 0 0 1.00036 1023.81 497)">relative <tspan font-size="13" x="46.019" y="0">weights</tspan></text><text fill="#7F7F7F" font-family="Cambria Math,Cambria Math_MSFontService,sans-serif" font-weight="400" font-size="24" transform="matrix(0.725466 -0.68876 0.688007 0.725731 787.622 403)">⋮</text><rect x="61" y="85.031" width="20" height="16.0058" fill="#D9D9D9" fill-opacity="0.701961"/><rect x="266.5" y="41.5151" width="71.9999" height="60.0219" stroke="#000000" stroke-width="1.33388" stroke-miterlimit="8" fill="#FFFFFF"/><text font-family="Product Sans,Product Sans_MSFontService,sans-serif" font-weight="400" font-size="17" transform="matrix(1 0 0 1.00036 277.827 77)">$KEEP</text><rect x="86.0001" y="46.0168" width="21" height="55.02" fill="#D9D9D9" fill-opacity="0.701961"/><rect x="354.5" y="41.5151" width="71" height="60.0219" stroke="#000000" stroke-width="1.33388" stroke-miterlimit="8" fill="#FFFFFF"/><text font-family="Product Sans,Product Sans_MSFontService,sans-serif" font-weight="400" font-size="17" transform="matrix(1 0 0 1.00036 364.414 66)">$VERB <tspan font-size="17" x="1.25388" y="20.9923">FORM</tspan></text><rect x="112" y="75.0274" width="21.0001" height="27.0099" fill="#D9D9D9" fill-opacity="0.701961"/><rect x="441.5" y="41.5151" width="71" height="60.0219" stroke="#000000" stroke-width="1.33388" stroke-miterlimit="8" fill="#FFFFFF"/><text font-family="Product Sans,Product Sans_MSFontService,sans-serif" font-weight="400" font-size="17" transform="matrix(1 0 0 1.00036 452.335 77)">$KEEP</text><rect x="138" y="94.0343" width="21" height="8.00297" fill="#D9D9D9" fill-opacity="0.701961"/><rect x="528.5" y="41.5151" width="71.0001" height="60.0219" stroke="#000000" stroke-width="1.33388" stroke-miterlimit="8" fill="#FFFFFF"/><text font-family="Product Sans,Product Sans_MSFontService,sans-serif" font-weight="400" font-size="17" transform="matrix(1 0 0 1.00036 539.326 77)">$KEEP</text><text fill="#7F7F7F" font-family="Cambria Math,Cambria Math_MSFontService,sans-serif" font-weight="400" font-size="24" transform="matrix(-1.83697e-16 -1.00073 0.999635 -1.83764e-16 149.284 536)">⋮<tspan font-size="24" x="-7.90125e-14" y="430.281">⋮</tspan></text><path d="M204.834 20.5075 204.834 36.4017 204.167 36.4017 204.167 20.5075ZM208.502 35.0674 204.5 43.0736 200.498 35.0674Z" fill="#D9D9D9"/><path d="M0 0 133.084 0.0165948" stroke="#D9D9D9" stroke-width="0.867025" stroke-miterlimit="8" fill="none" fill-rule="evenodd" transform="matrix(1 0 0 -1.00036 71.5 20.5241)"/><rect x="52.5" y="33.5123" width="193" height="77.0281" stroke="#7F7F7F" stroke-width="1.33388" stroke-miterlimit="8" stroke-dasharray="5.33554 4.00165" fill="none"/><rect x="259.5" y="33.5123" width="346" height="77.0281" stroke="#7F7F7F" stroke-width="1.33388" stroke-miterlimit="8" stroke-dasharray="5.33554 4.00165" fill="none"/><text font-family="Product Sans,Product Sans_MSFontService,sans-serif" font-weight="400" font-size="13" transform="matrix(1 0 0 1.00036 131.613 125)">error<tspan font-size="13" x="32.18" y="0">probabilities</tspan><tspan font-size="13" x="378.689" y="0">predicted</tspan><tspan font-size="13" x="438.547" y="0">tags</tspan></text><rect x="611.5" y="516.688" width="15" height="15.0055" stroke="#000000" stroke-width="1.33388" stroke-miterlimit="8" fill="#00B0F0"/><rect x="626.5" y="516.688" width="15" height="15.0055" stroke="#000000" stroke-width="1.33388" stroke-miterlimit="8" fill="#00B0F0"/><rect x="611.5" y="531.694" width="15" height="15.0055" stroke="#000000" stroke-width="1.33388" stroke-miterlimit="8" fill="#00B0F0"/><rect x="626.5" y="531.694" width="15" height="15.0055" stroke="#000000" stroke-width="1.33388" stroke-miterlimit="8" fill="#00B0F0"/><rect x="71.5" y="516.688" width="15" height="15.0055" stroke="#000000" stroke-width="1.33388" stroke-miterlimit="8" fill="#D9D9D9"/><rect x="86.5" y="516.688" width="15" height="15.0055" stroke="#000000" stroke-width="1.33388" stroke-miterlimit="8" fill="#D9D9D9"/><rect x="71.5" y="531.694" width="15" height="15.0055" stroke="#000000" stroke-width="1.33388" stroke-miterlimit="8" fill="#D9D9D9"/><rect x="86.5" y="531.694" width="15" height="15.0055" stroke="#000000" stroke-width="1.33388" stroke-miterlimit="8" fill="#D9D9D9"/><rect x="36.5" y="516.688" width="15" height="15.0055" stroke="#000000" stroke-width="1.33388" stroke-miterlimit="8" fill="#92D050"/><rect x="51.5" y="516.688" width="15" height="15.0055" stroke="#000000" stroke-width="1.33388" stroke-miterlimit="8" fill="#92D050"/><rect x="36.5" y="531.694" width="15" height="15.0055" stroke="#000000" stroke-width="1.33388" stroke-miterlimit="8" fill="#92D050"/><rect x="51.5" y="531.694" width="15" height="15.0055" stroke="#000000" stroke-width="1.33388" stroke-miterlimit="8" fill="#92D050"/><rect x="20.5" y="234.586" width="638" height="329.12" stroke="#7F7F7F" stroke-width="1.33388" stroke-miterlimit="8" stroke-dasharray="5.33554 4.00165" fill="none"/><rect x="20.5" y="135.549" width="638" height="89.0325" stroke="#7F7F7F" stroke-width="1.33388" stroke-miterlimit="8" stroke-dasharray="5.33554 4.00165" fill="none"/><rect x="32" y="304.111" width="613" height="37.0135" fill="#F2F2F2"/><text font-family="Product Sans,Product Sans_MSFontService,sans-serif" font-weight="400" font-size="19" transform="matrix(1 0 0 1.00036 278.824 330)">attention<tspan font-size="19" x="78.6992" y="0">head</tspan></text><rect x="32" y="247.09" width="613" height="36.0131" fill="#F2F2F2"/><text font-family="Product Sans,Product Sans_MSFontService,sans-serif" font-weight="400" font-size="19" transform="matrix(1 0 0 1.00036 286.911 272)">feedforward</text><rect x="29" y="146.053" width="305" height="36.0132" fill="#F2F2F2"/><text font-family="Product Sans,Product Sans_MSFontService,sans-serif" font-weight="400" font-size="19" transform="matrix(1 0 0 1.00036 137.323 171)">linear layer</text><rect x="339" y="146.053" width="306" height="36.0132" fill="#F2F2F2"/><text font-family="Product Sans,Product Sans_MSFontService,sans-serif" font-weight="400" font-size="19" transform="matrix(1 0 0 1.00036 447.823 171)">linear layer</text><rect x="61.5" y="41.5151" width="21.0001" height="60.0219" stroke="#000000" stroke-width="1.33388" stroke-miterlimit="8" fill="none"/><text font-family="Product Sans,Product Sans_MSFontService,sans-serif" font-weight="400" font-size="17" transform="matrix(1 0 0 1.00036 66.2289 77)">p</text><rect x="86.5" y="41.5151" width="21" height="60.0219" stroke="#000000" stroke-width="1.33388" stroke-miterlimit="8" fill="none"/><text font-family="Product Sans,Product Sans_MSFontService,sans-serif" font-weight="400" font-size="17" transform="matrix(1 0 0 1.00036 91.7532 77)">p</text><rect x="112.5" y="41.5151" width="21" height="61.0223" stroke="#000000" stroke-width="1.33388" stroke-miterlimit="8" fill="none"/><text font-family="Product Sans,Product Sans_MSFontService,sans-serif" font-weight="400" font-size="17" transform="matrix(1 0 0 1.00036 117.85 77)">p</text><rect x="138.5" y="42.5155" width="21.0001" height="60.0219" stroke="#000000" stroke-width="1.33388" stroke-miterlimit="8" fill="none"/><text font-family="Product Sans,Product Sans_MSFontService,sans-serif" font-weight="400" font-size="17" transform="matrix(1 0 0 1.00036 143.821 78)">p</text><path d="M948.5 424.321 1185.33 424.321 1185.33 424.989 948.5 424.988ZM1184 420.652 1192 424.655 1184 428.658Z"/><rect x="32.5" y="582.712" width="81" height="39.0142" stroke="#000000" stroke-width="1.33388" stroke-miterlimit="8" fill="none"/><text font-family="Product Sans,Product Sans_MSFontService,sans-serif" font-weight="400" font-size="17" transform="matrix(1 0 0 1.00036 51.5625 608)">[CLS]</text><rect x="564.5" y="582.712" width="81" height="39.0142" stroke="#000000" stroke-width="1.33388" stroke-miterlimit="8" fill="none"/><text font-family="Product Sans,Product Sans_MSFontService,sans-serif" font-weight="400" font-size="17" transform="matrix(1 0 0 1.00036 584.703 608)">[SEP]</text><rect x="139.5" y="582.712" width="80.0001" height="39.0142" stroke="#000000" stroke-width="1.33388" stroke-miterlimit="8" fill="none"/><text font-family="Product Sans,Product Sans_MSFontService,sans-serif" font-weight="400" font-size="17" transform="matrix(1 0 0 1.00036 168.228 608)">He</text><rect x="245.5" y="582.712" width="80" height="39.0142" stroke="#000000" stroke-width="1.33388" stroke-miterlimit="8" fill="none"/><text font-family="Product Sans,Product Sans_MSFontService,sans-serif" font-weight="400" font-size="17" transform="matrix(1 0 0 1.00036 269.804 608)">play</text><rect x="352.5" y="582.712" width="80" height="39.0142" stroke="#000000" stroke-width="1.33388" stroke-miterlimit="8" fill="none"/><text font-family="Product Sans,Product Sans_MSFontService,sans-serif" font-weight="400" font-size="17" transform="matrix(1 0 0 1.00036 362.793 608)">football</text><rect x="458.5" y="582.712" width="80" height="39.0142" stroke="#000000" stroke-width="1.33388" stroke-miterlimit="8" fill="none"/><text font-family="Product Sans,Product Sans_MSFontService,sans-serif" font-weight="400" font-size="17" transform="matrix(1 0 0 1.00036 496.049 608)">.</text><rect x="168.5" y="42.5155" width="72" height="61.0223" stroke="#000000" stroke-width="1.33388" stroke-miterlimit="8" fill="none"/><text font-family="Product Sans,Product Sans_MSFontService,sans-serif" font-weight="400" font-size="17" transform="matrix(1 0 0 1.00036 187.786 78)">max</text></g></svg>