<svg width="756" height="680" xmlns="http://www.w3.org/2000/svg" xmlns:xlink="http://www.w3.org/1999/xlink" overflow="hidden"><defs><clipPath id="clip0"><rect x="0" y="0" width="756" height="680"/></clipPath><linearGradient x1="310.237" y1="173.997" x2="492.611" y2="173.997" gradientUnits="userSpaceOnUse" spreadMethod="reflect" id="fill1"><stop offset="0" stop-color="#00B050"/><stop offset="0.00689655" stop-color="#01B050"/><stop offset="0.0137931" stop-color="#03B050"/><stop offset="0.0206897" stop-color="#05B150"/><stop offset="0.0275862" stop-color="#07B150"/><stop offset="0.0344828" stop-color="#09B250"/><stop offset="0.0413793" stop-color="#0BB250"/><stop offset="0.0482759" stop-color="#0CB250"/><stop offset="0.0551724" stop-color="#0EB350"/><stop offset="0.062069" stop-color="#10B350"/><stop offset="0.0689655" stop-color="#12B450"/><stop offset="0.0758621" stop-color="#14B450"/><stop offset="0.0827586" stop-color="#15B450"/><stop offset="0.0896552" stop-color="#17B550"/><stop offset="0.0965517" stop-color="#19B550"/><stop offset="0.103448" stop-color="#1BB550"/><stop offset="0.110345" stop-color="#1CB650"/><stop offset="0.117241" stop-color="#1EB650"/><stop offset="0.124138" stop-color="#20B750"/><stop offset="0.131034" stop-color="#21B750"/><stop offset="0.137931" stop-color="#23B74F"/><stop offset="0.144828" stop-color="#25B850"/><stop offset="0.151724" stop-color="#26B850"/><stop offset="0.158621" stop-color="#28B850"/><stop offset="0.165517" stop-color="#2AB950"/><stop offset="0.172414" stop-color="#2BB950"/><stop offset="0.17931" stop-color="#2DB950"/><stop offset="0.186207" stop-color="#2EBA50"/><stop offset="0.193103" stop-color="#30BA50"/><stop offset="0.2" stop-color="#31BA50"/><stop offset="0.206897" stop-color="#33BB50"/><stop offset="0.213793" stop-color="#34BB50"/><stop offset="0.22069" stop-color="#36BB50"/><stop offset="0.227586" stop-color="#38BC50"/><stop offset="0.234483" stop-color="#39BC50"/><stop offset="0.241379" stop-color="#3BBC50"/><stop offset="0.248276" stop-color="#3CBD50"/><stop offset="0.255172" stop-color="#3DBD50"/><stop offset="0.262069" stop-color="#3FBD50"/><stop offset="0.268966" stop-color="#40BE50"/><stop offset="0.275862" stop-color="#42BE4F"/><stop offset="0.282759" stop-color="#43BE4F"/><stop offset="0.289655" stop-color="#45BF50"/><stop offset="0.296552" stop-color="#46BF50"/><stop offset="0.303448" stop-color="#47BF50"/><stop offset="0.310345" stop-color="#49C050"/><stop offset="0.317241" stop-color="#4AC04F"/><stop offset="0.324138" stop-color="#4BC050"/><stop offset="0.331034" stop-color="#4DC050"/><stop offset="0.337931" stop-color="#4EC14F"/><stop offset="0.344828" stop-color="#4FC150"/><stop offset="0.351724" stop-color="#51C150"/><stop offset="0.358621" stop-color="#52C24F"/><stop offset="0.365517" stop-color="#53C250"/><stop offset="0.372414" stop-color="#55C250"/><stop offset="0.37931" stop-color="#56C250"/><stop offset="0.386207" stop-color="#57C350"/><stop offset="0.393103" stop-color="#58C350"/><stop offset="0.4" stop-color="#59C350"/><stop offset="0.406897" stop-color="#5BC350"/><stop offset="0.413793" stop-color="#5CC450"/><stop offset="0.42069" stop-color="#5DC450"/><stop offset="0.427586" stop-color="#5EC450"/><stop offset="0.434483" stop-color="#5FC550"/><stop offset="0.441379" stop-color="#60C550"/><stop offset="0.448276" stop-color="#62C550"/><stop offset="0.455172" stop-color="#63C550"/><stop offset="0.462069" stop-color="#64C550"/><stop offset="0.468966" stop-color="#65C650"/><stop offset="0.475862" stop-color="#66C650"/><stop offset="0.482759" stop-color="#67C650"/><stop offset="0.489655" stop-color="#68C650"/><stop offset="0.496552" stop-color="#69C750"/><stop offset="0.503448" stop-color="#6AC750"/><stop offset="0.510345" stop-color="#6BC750"/><stop offset="0.517241" stop-color="#6CC750"/><stop offset="0.524138" stop-color="#6DC850"/><stop offset="0.531034" stop-color="#6EC850"/><stop offset="0.537931" stop-color="#6FC850"/><stop offset="0.544828" stop-color="#70C850"/><stop offset="0.551724" stop-color="#71C850"/><stop offset="0.558621" stop-color="#72C950"/><stop offset="0.565517" stop-color="#73C94F"/><stop offset="0.572414" stop-color="#74C950"/><stop offset="0.57931" stop-color="#75C950"/><stop offset="0.586207" stop-color="#76C950"/><stop offset="0.593103" stop-color="#76CA50"/><stop offset="0.6" stop-color="#77CA50"/><stop offset="0.606897" stop-color="#78CA50"/><stop offset="0.613793" stop-color="#79CA50"/><stop offset="0.62069" stop-color="#7ACA50"/><stop offset="0.627586" stop-color="#7BCA50"/><stop offset="0.634483" stop-color="#7BCB4F"/><stop offset="0.641379" stop-color="#7CCB4F"/><stop offset="0.648276" stop-color="#7DCB50"/><stop offset="0.655172" stop-color="#7ECB50"/><stop offset="0.662069" stop-color="#7ECB50"/><stop offset="0.668966" stop-color="#7FCB50"/><stop offset="0.675862" stop-color="#80CC50"/><stop offset="0.682759" stop-color="#81CC50"/><stop offset="0.689655" stop-color="#81CC50"/><stop offset="0.696552" stop-color="#82CC50"/><stop offset="0.703448" stop-color="#83CC50"/><stop offset="0.710345" stop-color="#83CC50"/><stop offset="0.717241" stop-color="#84CD50"/><stop offset="0.724138" stop-color="#84CD50"/><stop offset="0.731034" stop-color="#85CD50"/><stop offset="0.737931" stop-color="#86CD50"/><stop offset="0.744828" stop-color="#86CD50"/><stop offset="0.751724" stop-color="#87CD50"/><stop offset="0.758621" stop-color="#87CD50"/><stop offset="0.765517" stop-color="#88CD50"/><stop offset="0.772414" stop-color="#88CE50"/><stop offset="0.77931" stop-color="#89CE50"/><stop offset="0.786207" stop-color="#89CE50"/><stop offset="0.793103" stop-color="#8ACE50"/><stop offset="0.8" stop-color="#8ACE50"/><stop offset="0.806897" stop-color="#8BCE50"/><stop offset="0.813793" stop-color="#8BCE50"/><stop offset="0.82069" stop-color="#8CCE50"/><stop offset="0.827586" stop-color="#8CCE50"/><stop offset="0.834483" stop-color="#8CCE50"/><stop offset="0.841379" stop-color="#8DCE50"/><stop offset="0.848276" stop-color="#8DCF50"/><stop offset="0.855172" stop-color="#8ECF50"/><stop offset="0.862069" stop-color="#8ECF50"/><stop offset="0.868966" stop-color="#8ECF50"/><stop offset="0.875862" stop-color="#8FCF50"/><stop offset="0.882759" stop-color="#8FCF50"/><stop offset="0.889655" stop-color="#8FCF50"/><stop offset="0.896552" stop-color="#8FCF50"/><stop offset="0.903448" stop-color="#90CF50"/><stop offset="0.910345" stop-color="#90CF50"/><stop offset="0.917241" stop-color="#90CF50"/><stop offset="0.924138" stop-color="#90CF50"/><stop offset="0.931035" stop-color="#91CF50"/><stop offset="0.937931" stop-color="#91CF50"/><stop offset="0.944828" stop-color="#91CF50"/><stop offset="0.951724" stop-color="#91CF50"/><stop offset="0.958621" stop-color="#91CF50"/><stop offset="0.965517" stop-color="#91CF50"/><stop offset="0.972414" stop-color="#91CF50"/><stop offset="0.97931" stop-color="#91CF50"/><stop offset="0.986207" stop-color="#91CF50"/><stop offset="0.993103" stop-color="#91CF50"/><stop offset="1" stop-color="#92D050"/></linearGradient><linearGradient x1="310.237" y1="173.997" x2="492.611" y2="173.997" gradientUnits="userSpaceOnUse" spreadMethod="reflect" id="fill2"><stop offset="0" stop-color="#00B050"/><stop offset="0.00689655" stop-color="#01B050"/><stop offset="0.0137931" stop-color="#03B050"/><stop offset="0.0206897" stop-color="#05B150"/><stop offset="0.0275862" stop-color="#07B150"/><stop offset="0.0344828" stop-color="#09B250"/><stop offset="0.0413793" stop-color="#0BB250"/><stop offset="0.0482759" stop-color="#0CB250"/><stop offset="0.0551724" stop-color="#0EB350"/><stop offset="0.062069" stop-color="#10B350"/><stop offset="0.0689655" stop-color="#12B450"/><stop offset="0.0758621" stop-color="#14B450"/><stop offset="0.0827586" stop-color="#15B450"/><stop offset="0.0896552" stop-color="#17B550"/><stop offset="0.0965517" stop-color="#19B550"/><stop offset="0.103448" stop-color="#1BB550"/><stop offset="0.110345" stop-color="#1CB650"/><stop offset="0.117241" stop-color="#1EB650"/><stop offset="0.124138" stop-color="#20B750"/><stop offset="0.131034" stop-color="#21B750"/><stop offset="0.137931" stop-color="#23B74F"/><stop offset="0.144828" stop-color="#25B850"/><stop offset="0.151724" stop-color="#26B850"/><stop offset="0.158621" stop-color="#28B850"/><stop offset="0.165517" stop-color="#2AB950"/><stop offset="0.172414" stop-color="#2BB950"/><stop offset="0.17931" stop-color="#2DB950"/><stop offset="0.186207" stop-color="#2EBA50"/><stop offset="0.193103" stop-color="#30BA50"/><stop offset="0.2" stop-color="#31BA50"/><stop offset="0.206897" stop-color="#33BB50"/><stop offset="0.213793" stop-color="#34BB50"/><stop offset="0.22069" stop-color="#36BB50"/><stop offset="0.227586" stop-color="#38BC50"/><stop offset="0.234483" stop-color="#39BC50"/><stop offset="0.241379" stop-color="#3BBC50"/><stop offset="0.248276" stop-color="#3CBD50"/><stop offset="0.255172" stop-color="#3DBD50"/><stop offset="0.262069" stop-color="#3FBD50"/><stop offset="0.268966" stop-color="#40BE50"/><stop offset="0.275862" stop-color="#42BE4F"/><stop offset="0.282759" stop-color="#43BE4F"/><stop offset="0.289655" stop-color="#45BF50"/><stop offset="0.296552" stop-color="#46BF50"/><stop offset="0.303448" stop-color="#47BF50"/><stop offset="0.310345" stop-color="#49C050"/><stop offset="0.317241" stop-color="#4AC04F"/><stop offset="0.324138" stop-color="#4BC050"/><stop offset="0.331034" stop-color="#4DC050"/><stop offset="0.337931" stop-color="#4EC14F"/><stop offset="0.344828" stop-color="#4FC150"/><stop offset="0.351724" stop-color="#51C150"/><stop offset="0.358621" stop-color="#52C24F"/><stop offset="0.365517" stop-color="#53C250"/><stop offset="0.372414" stop-color="#55C250"/><stop offset="0.37931" stop-color="#56C250"/><stop offset="0.386207" stop-color="#57C350"/><stop offset="0.393103" stop-color="#58C350"/><stop offset="0.4" stop-color="#59C350"/><stop offset="0.406897" stop-color="#5BC350"/><stop offset="0.413793" stop-color="#5CC450"/><stop offset="0.42069" stop-color="#5DC450"/><stop offset="0.427586" stop-color="#5EC450"/><stop offset="0.434483" stop-color="#5FC550"/><stop offset="0.441379" stop-color="#60C550"/><stop offset="0.448276" stop-color="#62C550"/><stop offset="0.455172" stop-color="#63C550"/><stop offset="0.462069" stop-color="#64C550"/><stop offset="0.468966" stop-color="#65C650"/><stop offset="0.475862" stop-color="#66C650"/><stop offset="0.482759" stop-color="#67C650"/><stop offset="0.489655" stop-color="#68C650"/><stop offset="0.496552" stop-color="#69C750"/><stop offset="0.503448" stop-color="#6AC750"/><stop offset="0.510345" stop-color="#6BC750"/><stop offset="0.517241" stop-color="#6CC750"/><stop offset="0.524138" stop-color="#6DC850"/><stop offset="0.531034" stop-color="#6EC850"/><stop offset="0.537931" stop-color="#6FC850"/><stop offset="0.544828" stop-color="#70C850"/><stop offset="0.551724" stop-color="#71C850"/><stop offset="0.558621" stop-color="#72C950"/><stop offset="0.565517" stop-color="#73C94F"/><stop offset="0.572414" stop-color="#74C950"/><stop offset="0.57931" stop-color="#75C950"/><stop offset="0.586207" stop-color="#76C950"/><stop offset="0.593103" stop-color="#76CA50"/><stop offset="0.6" stop-color="#77CA50"/><stop offset="0.606897" stop-color="#78CA50"/><stop offset="0.613793" stop-color="#79CA50"/><stop offset="0.62069" stop-color="#7ACA50"/><stop offset="0.627586" stop-color="#7BCA50"/><stop offset="0.634483" stop-color="#7BCB4F"/><stop offset="0.641379" stop-color="#7CCB4F"/><stop offset="0.648276" stop-color="#7DCB50"/><stop offset="0.655172" stop-color="#7ECB50"/><stop offset="0.662069" stop-color="#7ECB50"/><stop offset="0.668966" stop-color="#7FCB50"/><stop offset="0.675862" stop-color="#80CC50"/><stop offset="0.682759" stop-color="#81CC50"/><stop offset="0.689655" stop-color="#81CC50"/><stop offset="0.696552" stop-color="#82CC50"/><stop offset="0.703448" stop-color="#83CC50"/><stop offset="0.710345" stop-color="#83CC50"/><stop offset="0.717241" stop-color="#84CD50"/><stop offset="0.724138" stop-color="#84CD50"/><stop offset="0.731034" stop-color="#85CD50"/><stop offset="0.737931" stop-color="#86CD50"/><stop offset="0.744828" stop-color="#86CD50"/><stop offset="0.751724" stop-color="#87CD50"/><stop offset="0.758621" stop-color="#87CD50"/><stop offset="0.765517" stop-color="#88CD50"/><stop offset="0.772414" stop-color="#88CE50"/><stop offset="0.77931" stop-color="#89CE50"/><stop offset="0.786207" stop-color="#89CE50"/><stop offset="0.793103" stop-color="#8ACE50"/><stop offset="0.8" stop-color="#8ACE50"/><stop offset="0.806897" stop-color="#8BCE50"/><stop offset="0.813793" stop-color="#8BCE50"/><stop offset="0.82069" stop-color="#8CCE50"/><stop offset="0.827586" stop-color="#8CCE50"/><stop offset="0.834483" stop-color="#8CCE50"/><stop offset="0.841379" stop-color="#8DCE50"/><stop offset="0.848276" stop-color="#8DCF50"/><stop offset="0.855172" stop-color="#8ECF50"/><stop offset="0.862069" stop-color="#8ECF50"/><stop offset="0.868966" stop-color="#8ECF50"/><stop offset="0.875862" stop-color="#8FCF50"/><stop offset="0.882759" stop-color="#8FCF50"/><stop offset="0.889655" stop-color="#8FCF50"/><stop offset="0.896552" stop-color="#8FCF50"/><stop offset="0.903448" stop-color="#90CF50"/><stop offset="0.910345" stop-color="#90CF50"/><stop offset="0.917241" stop-color="#90CF50"/><stop offset="0.924138" stop-color="#90CF50"/><stop offset="0.931035" stop-color="#91CF50"/><stop offset="0.937931" stop-color="#91CF50"/><stop offset="0.944828" stop-color="#91CF50"/><stop offset="0.951724" stop-color="#91CF50"/><stop offset="0.958621" stop-color="#91CF50"/><stop offset="0.965517" stop-color="#91CF50"/><stop offset="0.972414" stop-color="#91CF50"/><stop offset="0.97931" stop-color="#91CF50"/><stop offset="0.986207" stop-color="#91CF50"/><stop offset="0.993103" stop-color="#91CF50"/><stop offset="1" stop-color="#92D050"/></linearGradient><linearGradient x1="310.237" y1="173.997" x2="492.611" y2="173.997" gradientUnits="userSpaceOnUse" spreadMethod="reflect" id="fill3"><stop offset="0" stop-color="#00B050"/><stop offset="0.00689655" stop-color="#01B050"/><stop offset="0.0137931" stop-color="#03B050"/><stop offset="0.0206897" stop-color="#05B150"/><stop offset="0.0275862" stop-color="#07B150"/><stop offset="0.0344828" stop-color="#09B250"/><stop offset="0.0413793" stop-color="#0BB250"/><stop offset="0.0482759" stop-color="#0CB250"/><stop offset="0.0551724" stop-color="#0EB350"/><stop offset="0.062069" stop-color="#10B350"/><stop offset="0.0689655" stop-color="#12B450"/><stop offset="0.0758621" stop-color="#14B450"/><stop offset="0.0827586" stop-color="#15B450"/><stop offset="0.0896552" stop-color="#17B550"/><stop offset="0.0965517" stop-color="#19B550"/><stop offset="0.103448" stop-color="#1BB550"/><stop offset="0.110345" stop-color="#1CB650"/><stop offset="0.117241" stop-color="#1EB650"/><stop offset="0.124138" stop-color="#20B750"/><stop offset="0.131034" stop-color="#21B750"/><stop offset="0.137931" stop-color="#23B74F"/><stop offset="0.144828" stop-color="#25B850"/><stop offset="0.151724" stop-color="#26B850"/><stop offset="0.158621" stop-color="#28B850"/><stop offset="0.165517" stop-color="#2AB950"/><stop offset="0.172414" stop-color="#2BB950"/><stop offset="0.17931" stop-color="#2DB950"/><stop offset="0.186207" stop-color="#2EBA50"/><stop offset="0.193103" stop-color="#30BA50"/><stop offset="0.2" stop-color="#31BA50"/><stop offset="0.206897" stop-color="#33BB50"/><stop offset="0.213793" stop-color="#34BB50"/><stop offset="0.22069" stop-color="#36BB50"/><stop offset="0.227586" stop-color="#38BC50"/><stop offset="0.234483" stop-color="#39BC50"/><stop offset="0.241379" stop-color="#3BBC50"/><stop offset="0.248276" stop-color="#3CBD50"/><stop offset="0.255172" stop-color="#3DBD50"/><stop offset="0.262069" stop-color="#3FBD50"/><stop offset="0.268966" stop-color="#40BE50"/><stop offset="0.275862" stop-color="#42BE4F"/><stop offset="0.282759" stop-color="#43BE4F"/><stop offset="0.289655" stop-color="#45BF50"/><stop offset="0.296552" stop-color="#46BF50"/><stop offset="0.303448" stop-color="#47BF50"/><stop offset="0.310345" stop-color="#49C050"/><stop offset="0.317241" stop-color="#4AC04F"/><stop offset="0.324138" stop-color="#4BC050"/><stop offset="0.331034" stop-color="#4DC050"/><stop offset="0.337931" stop-color="#4EC14F"/><stop offset="0.344828" stop-color="#4FC150"/><stop offset="0.351724" stop-color="#51C150"/><stop offset="0.358621" stop-color="#52C24F"/><stop offset="0.365517" stop-color="#53C250"/><stop offset="0.372414" stop-color="#55C250"/><stop offset="0.37931" stop-color="#56C250"/><stop offset="0.386207" stop-color="#57C350"/><stop offset="0.393103" stop-color="#58C350"/><stop offset="0.4" stop-color="#59C350"/><stop offset="0.406897" stop-color="#5BC350"/><stop offset="0.413793" stop-color="#5CC450"/><stop offset="0.42069" stop-color="#5DC450"/><stop offset="0.427586" stop-color="#5EC450"/><stop offset="0.434483" stop-color="#5FC550"/><stop offset="0.441379" stop-color="#60C550"/><stop offset="0.448276" stop-color="#62C550"/><stop offset="0.455172" stop-color="#63C550"/><stop offset="0.462069" stop-color="#64C550"/><stop offset="0.468966" stop-color="#65C650"/><stop offset="0.475862" stop-color="#66C650"/><stop offset="0.482759" stop-color="#67C650"/><stop offset="0.489655" stop-color="#68C650"/><stop offset="0.496552" stop-color="#69C750"/><stop offset="0.503448" stop-color="#6AC750"/><stop offset="0.510345" stop-color="#6BC750"/><stop offset="0.517241" stop-color="#6CC750"/><stop offset="0.524138" stop-color="#6DC850"/><stop offset="0.531034" stop-color="#6EC850"/><stop offset="0.537931" stop-color="#6FC850"/><stop offset="0.544828" stop-color="#70C850"/><stop offset="0.551724" stop-color="#71C850"/><stop offset="0.558621" stop-color="#72C950"/><stop offset="0.565517" stop-color="#73C94F"/><stop offset="0.572414" stop-color="#74C950"/><stop offset="0.57931" stop-color="#75C950"/><stop offset="0.586207" stop-color="#76C950"/><stop offset="0.593103" stop-color="#76CA50"/><stop offset="0.6" stop-color="#77CA50"/><stop offset="0.606897" stop-color="#78CA50"/><stop offset="0.613793" stop-color="#79CA50"/><stop offset="0.62069" stop-color="#7ACA50"/><stop offset="0.627586" stop-color="#7BCA50"/><stop offset="0.634483" stop-color="#7BCB4F"/><stop offset="0.641379" stop-color="#7CCB4F"/><stop offset="0.648276" stop-color="#7DCB50"/><stop offset="0.655172" stop-color="#7ECB50"/><stop offset="0.662069" stop-color="#7ECB50"/><stop offset="0.668966" stop-color="#7FCB50"/><stop offset="0.675862" stop-color="#80CC50"/><stop offset="0.682759" stop-color="#81CC50"/><stop offset="0.689655" stop-color="#81CC50"/><stop offset="0.696552" stop-color="#82CC50"/><stop offset="0.703448" stop-color="#83CC50"/><stop offset="0.710345" stop-color="#83CC50"/><stop offset="0.717241" stop-color="#84CD50"/><stop offset="0.724138" stop-color="#84CD50"/><stop offset="0.731034" stop-color="#85CD50"/><stop offset="0.737931" stop-color="#86CD50"/><stop offset="0.744828" stop-color="#86CD50"/><stop offset="0.751724" stop-color="#87CD50"/><stop offset="0.758621" stop-color="#87CD50"/><stop offset="0.765517" stop-color="#88CD50"/><stop offset="0.772414" stop-color="#88CE50"/><stop offset="0.77931" stop-color="#89CE50"/><stop offset="0.786207" stop-color="#89CE50"/><stop offset="0.793103" stop-color="#8ACE50"/><stop offset="0.8" stop-color="#8ACE50"/><stop offset="0.806897" stop-color="#8BCE50"/><stop offset="0.813793" stop-color="#8BCE50"/><stop offset="0.82069" stop-color="#8CCE50"/><stop offset="0.827586" stop-color="#8CCE50"/><stop offset="0.834483" stop-color="#8CCE50"/><stop offset="0.841379" stop-color="#8DCE50"/><stop offset="0.848276" stop-color="#8DCF50"/><stop offset="0.855172" stop-color="#8ECF50"/><stop offset="0.862069" stop-color="#8ECF50"/><stop offset="0.868966" stop-color="#8ECF50"/><stop offset="0.875862" stop-color="#8FCF50"/><stop offset="0.882759" stop-color="#8FCF50"/><stop offset="0.889655" stop-color="#8FCF50"/><stop offset="0.896552" stop-color="#8FCF50"/><stop offset="0.903448" stop-color="#90CF50"/><stop offset="0.910345" stop-color="#90CF50"/><stop offset="0.917241" stop-color="#90CF50"/><stop offset="0.924138" stop-color="#90CF50"/><stop offset="0.931035" stop-color="#91CF50"/><stop offset="0.937931" stop-color="#91CF50"/><stop offset="0.944828" stop-color="#91CF50"/><stop offset="0.951724" stop-color="#91CF50"/><stop offset="0.958621" stop-color="#91CF50"/><stop offset="0.965517" stop-color="#91CF50"/><stop offset="0.972414" stop-color="#91CF50"/><stop offset="0.97931" stop-color="#91CF50"/><stop offset="0.986207" stop-color="#91CF50"/><stop offset="0.993103" stop-color="#91CF50"/><stop offset="1" stop-color="#92D050"/></linearGradient><linearGradient x1="372.501" y1="477.65" x2="430.347" y2="477.65" gradientUnits="userSpaceOnUse" spreadMethod="reflect" id="fill4"><stop offset="0" stop-color="#00B050"/><stop offset="0.00689655" stop-color="#01B050"/><stop offset="0.0137931" stop-color="#03B050"/><stop offset="0.0206897" stop-color="#05B150"/><stop offset="0.0275862" stop-color="#07B150"/><stop offset="0.0344828" stop-color="#09B250"/><stop offset="0.0413793" stop-color="#0BB250"/><stop offset="0.0482759" stop-color="#0CB250"/><stop offset="0.0551724" stop-color="#0EB350"/><stop offset="0.062069" stop-color="#10B350"/><stop offset="0.0689655" stop-color="#12B450"/><stop offset="0.0758621" stop-color="#14B450"/><stop offset="0.0827586" stop-color="#15B450"/><stop offset="0.0896552" stop-color="#17B550"/><stop offset="0.0965517" stop-color="#19B550"/><stop offset="0.103448" stop-color="#1BB550"/><stop offset="0.110345" stop-color="#1CB650"/><stop offset="0.117241" stop-color="#1EB650"/><stop offset="0.124138" stop-color="#20B750"/><stop offset="0.131034" stop-color="#21B750"/><stop offset="0.137931" stop-color="#23B74F"/><stop offset="0.144828" stop-color="#25B850"/><stop offset="0.151724" stop-color="#26B850"/><stop offset="0.158621" stop-color="#28B850"/><stop offset="0.165517" stop-color="#2AB950"/><stop offset="0.172414" stop-color="#2BB950"/><stop offset="0.17931" stop-color="#2DB950"/><stop offset="0.186207" stop-color="#2EBA50"/><stop offset="0.193103" stop-color="#30BA50"/><stop offset="0.2" stop-color="#31BA50"/><stop offset="0.206897" stop-color="#33BB50"/><stop offset="0.213793" stop-color="#34BB50"/><stop offset="0.22069" stop-color="#36BB50"/><stop offset="0.227586" stop-color="#38BC50"/><stop offset="0.234483" stop-color="#39BC50"/><stop offset="0.241379" stop-color="#3BBC50"/><stop offset="0.248276" stop-color="#3CBD50"/><stop offset="0.255172" stop-color="#3DBD50"/><stop offset="0.262069" stop-color="#3FBD50"/><stop offset="0.268966" stop-color="#40BE50"/><stop offset="0.275862" stop-color="#42BE4F"/><stop offset="0.282759" stop-color="#43BE4F"/><stop offset="0.289655" stop-color="#45BF50"/><stop offset="0.296552" stop-color="#46BF50"/><stop offset="0.303448" stop-color="#47BF50"/><stop offset="0.310345" stop-color="#49C050"/><stop offset="0.317241" stop-color="#4AC04F"/><stop offset="0.324138" stop-color="#4BC050"/><stop offset="0.331034" stop-color="#4DC050"/><stop offset="0.337931" stop-color="#4EC14F"/><stop offset="0.344828" stop-color="#4FC150"/><stop offset="0.351724" stop-color="#51C150"/><stop offset="0.358621" stop-color="#52C24F"/><stop offset="0.365517" stop-color="#53C250"/><stop offset="0.372414" stop-color="#55C250"/><stop offset="0.37931" stop-color="#56C250"/><stop offset="0.386207" stop-color="#57C350"/><stop offset="0.393103" stop-color="#58C350"/><stop offset="0.4" stop-color="#59C350"/><stop offset="0.406897" stop-color="#5BC350"/><stop offset="0.413793" stop-color="#5CC450"/><stop offset="0.42069" stop-color="#5DC450"/><stop offset="0.427586" stop-color="#5EC450"/><stop offset="0.434483" stop-color="#5FC550"/><stop offset="0.441379" stop-color="#60C550"/><stop offset="0.448276" stop-color="#62C550"/><stop offset="0.455172" stop-color="#63C550"/><stop offset="0.462069" stop-color="#64C550"/><stop offset="0.468966" stop-color="#65C650"/><stop offset="0.475862" stop-color="#66C650"/><stop offset="0.482759" stop-color="#67C650"/><stop offset="0.489655" stop-color="#68C650"/><stop offset="0.496552" stop-color="#69C750"/><stop offset="0.503448" stop-color="#6AC750"/><stop offset="0.510345" stop-color="#6BC750"/><stop offset="0.517241" stop-color="#6CC750"/><stop offset="0.524138" stop-color="#6DC850"/><stop offset="0.531034" stop-color="#6EC850"/><stop offset="0.537931" stop-color="#6FC850"/><stop offset="0.544828" stop-color="#70C850"/><stop offset="0.551724" stop-color="#71C850"/><stop offset="0.558621" stop-color="#72C950"/><stop offset="0.565517" stop-color="#73C94F"/><stop offset="0.572414" stop-color="#74C950"/><stop offset="0.57931" stop-color="#75C950"/><stop offset="0.586207" stop-color="#76C950"/><stop offset="0.593103" stop-color="#76CA50"/><stop offset="0.6" stop-color="#77CA50"/><stop offset="0.606897" stop-color="#78CA50"/><stop offset="0.613793" stop-color="#79CA50"/><stop offset="0.62069" stop-color="#7ACA50"/><stop offset="0.627586" stop-color="#7BCA50"/><stop offset="0.634483" stop-color="#7BCB4F"/><stop offset="0.641379" stop-color="#7CCB4F"/><stop offset="0.648276" stop-color="#7DCB50"/><stop offset="0.655172" stop-color="#7ECB50"/><stop offset="0.662069" stop-color="#7ECB50"/><stop offset="0.668966" stop-color="#7FCB50"/><stop offset="0.675862" stop-color="#80CC50"/><stop offset="0.682759" stop-color="#81CC50"/><stop offset="0.689655" stop-color="#81CC50"/><stop offset="0.696552" stop-color="#82CC50"/><stop offset="0.703448" stop-color="#83CC50"/><stop offset="0.710345" stop-color="#83CC50"/><stop offset="0.717241" stop-color="#84CD50"/><stop offset="0.724138" stop-color="#84CD50"/><stop offset="0.731034" stop-color="#85CD50"/><stop offset="0.737931" stop-color="#86CD50"/><stop offset="0.744828" stop-color="#86CD50"/><stop offset="0.751724" stop-color="#87CD50"/><stop offset="0.758621" stop-color="#87CD50"/><stop offset="0.765517" stop-color="#88CD50"/><stop offset="0.772414" stop-color="#88CE50"/><stop offset="0.77931" stop-color="#89CE50"/><stop offset="0.786207" stop-color="#89CE50"/><stop offset="0.793103" stop-color="#8ACE50"/><stop offset="0.8" stop-color="#8ACE50"/><stop offset="0.806897" stop-color="#8BCE50"/><stop offset="0.813793" stop-color="#8BCE50"/><stop offset="0.82069" stop-color="#8CCE50"/><stop offset="0.827586" stop-color="#8CCE50"/><stop offset="0.834483" stop-color="#8CCE50"/><stop offset="0.841379" stop-color="#8DCE50"/><stop offset="0.848276" stop-color="#8DCF50"/><stop offset="0.855172" stop-color="#8ECF50"/><stop offset="0.862069" stop-color="#8ECF50"/><stop offset="0.868966" stop-color="#8ECF50"/><stop offset="0.875862" stop-color="#8FCF50"/><stop offset="0.882759" stop-color="#8FCF50"/><stop offset="0.889655" stop-color="#8FCF50"/><stop offset="0.896552" stop-color="#8FCF50"/><stop offset="0.903448" stop-color="#90CF50"/><stop offset="0.910345" stop-color="#90CF50"/><stop offset="0.917241" stop-color="#90CF50"/><stop offset="0.924138" stop-color="#90CF50"/><stop offset="0.931035" stop-color="#91CF50"/><stop offset="0.937931" stop-color="#91CF50"/><stop offset="0.944828" stop-color="#91CF50"/><stop offset="0.951724" stop-color="#91CF50"/><stop offset="0.958621" stop-color="#91CF50"/><stop offset="0.965517" stop-color="#91CF50"/><stop offset="0.972414" stop-color="#91CF50"/><stop offset="0.97931" stop-color="#91CF50"/><stop offset="0.986207" stop-color="#91CF50"/><stop offset="0.993103" stop-color="#91CF50"/><stop offset="1" stop-color="#92D050"/></linearGradient><linearGradient x1="334.409" y1="363.896" x2="468.439" y2="363.896" gradientUnits="userSpaceOnUse" spreadMethod="reflect" id="fill5"><stop offset="0" stop-color="#00B050"/><stop offset="0.00689655" stop-color="#01B050"/><stop offset="0.0137931" stop-color="#03B050"/><stop offset="0.0206897" stop-color="#05B150"/><stop offset="0.0275862" stop-color="#07B150"/><stop offset="0.0344828" stop-color="#09B250"/><stop offset="0.0413793" stop-color="#0BB250"/><stop offset="0.0482759" stop-color="#0CB250"/><stop offset="0.0551724" stop-color="#0EB350"/><stop offset="0.062069" stop-color="#10B350"/><stop offset="0.0689655" stop-color="#12B450"/><stop offset="0.0758621" stop-color="#14B450"/><stop offset="0.0827586" stop-color="#15B450"/><stop offset="0.0896552" stop-color="#17B550"/><stop offset="0.0965517" stop-color="#19B550"/><stop offset="0.103448" stop-color="#1BB550"/><stop offset="0.110345" stop-color="#1CB650"/><stop offset="0.117241" stop-color="#1EB650"/><stop offset="0.124138" stop-color="#20B750"/><stop offset="0.131034" stop-color="#21B750"/><stop offset="0.137931" stop-color="#23B74F"/><stop offset="0.144828" stop-color="#25B850"/><stop offset="0.151724" stop-color="#26B850"/><stop offset="0.158621" stop-color="#28B850"/><stop offset="0.165517" stop-color="#2AB950"/><stop offset="0.172414" stop-color="#2BB950"/><stop offset="0.17931" stop-color="#2DB950"/><stop offset="0.186207" stop-color="#2EBA50"/><stop offset="0.193103" stop-color="#30BA50"/><stop offset="0.2" stop-color="#31BA50"/><stop offset="0.206897" stop-color="#33BB50"/><stop offset="0.213793" stop-color="#34BB50"/><stop offset="0.22069" stop-color="#36BB50"/><stop offset="0.227586" stop-color="#38BC50"/><stop offset="0.234483" stop-color="#39BC50"/><stop offset="0.241379" stop-color="#3BBC50"/><stop offset="0.248276" stop-color="#3CBD50"/><stop offset="0.255172" stop-color="#3DBD50"/><stop offset="0.262069" stop-color="#3FBD50"/><stop offset="0.268966" stop-color="#40BE50"/><stop offset="0.275862" stop-color="#42BE4F"/><stop offset="0.282759" stop-color="#43BE4F"/><stop offset="0.289655" stop-color="#45BF50"/><stop offset="0.296552" stop-color="#46BF50"/><stop offset="0.303448" stop-color="#47BF50"/><stop offset="0.310345" stop-color="#49C050"/><stop offset="0.317241" stop-color="#4AC04F"/><stop offset="0.324138" stop-color="#4BC050"/><stop offset="0.331034" stop-color="#4DC050"/><stop offset="0.337931" stop-color="#4EC14F"/><stop offset="0.344828" stop-color="#4FC150"/><stop offset="0.351724" stop-color="#51C150"/><stop offset="0.358621" stop-color="#52C24F"/><stop offset="0.365517" stop-color="#53C250"/><stop offset="0.372414" stop-color="#55C250"/><stop offset="0.37931" stop-color="#56C250"/><stop offset="0.386207" stop-color="#57C350"/><stop offset="0.393103" stop-color="#58C350"/><stop offset="0.4" stop-color="#59C350"/><stop offset="0.406897" stop-color="#5BC350"/><stop offset="0.413793" stop-color="#5CC450"/><stop offset="0.42069" stop-color="#5DC450"/><stop offset="0.427586" stop-color="#5EC450"/><stop offset="0.434483" stop-color="#5FC550"/><stop offset="0.441379" stop-color="#60C550"/><stop offset="0.448276" stop-color="#62C550"/><stop offset="0.455172" stop-color="#63C550"/><stop offset="0.462069" stop-color="#64C550"/><stop offset="0.468966" stop-color="#65C650"/><stop offset="0.475862" stop-color="#66C650"/><stop offset="0.482759" stop-color="#67C650"/><stop offset="0.489655" stop-color="#68C650"/><stop offset="0.496552" stop-color="#69C750"/><stop offset="0.503448" stop-color="#6AC750"/><stop offset="0.510345" stop-color="#6BC750"/><stop offset="0.517241" stop-color="#6CC750"/><stop offset="0.524138" stop-color="#6DC850"/><stop offset="0.531034" stop-color="#6EC850"/><stop offset="0.537931" stop-color="#6FC850"/><stop offset="0.544828" stop-color="#70C850"/><stop offset="0.551724" stop-color="#71C850"/><stop offset="0.558621" stop-color="#72C950"/><stop offset="0.565517" stop-color="#73C94F"/><stop offset="0.572414" stop-color="#74C950"/><stop offset="0.57931" stop-color="#75C950"/><stop offset="0.586207" stop-color="#76C950"/><stop offset="0.593103" stop-color="#76CA50"/><stop offset="0.6" stop-color="#77CA50"/><stop offset="0.606897" stop-color="#78CA50"/><stop offset="0.613793" stop-color="#79CA50"/><stop offset="0.62069" stop-color="#7ACA50"/><stop offset="0.627586" stop-color="#7BCA50"/><stop offset="0.634483" stop-color="#7BCB4F"/><stop offset="0.641379" stop-color="#7CCB4F"/><stop offset="0.648276" stop-color="#7DCB50"/><stop offset="0.655172" stop-color="#7ECB50"/><stop offset="0.662069" stop-color="#7ECB50"/><stop offset="0.668966" stop-color="#7FCB50"/><stop offset="0.675862" stop-color="#80CC50"/><stop offset="0.682759" stop-color="#81CC50"/><stop offset="0.689655" stop-color="#81CC50"/><stop offset="0.696552" stop-color="#82CC50"/><stop offset="0.703448" stop-color="#83CC50"/><stop offset="0.710345" stop-color="#83CC50"/><stop offset="0.717241" stop-color="#84CD50"/><stop offset="0.724138" stop-color="#84CD50"/><stop offset="0.731034" stop-color="#85CD50"/><stop offset="0.737931" stop-color="#86CD50"/><stop offset="0.744828" stop-color="#86CD50"/><stop offset="0.751724" stop-color="#87CD50"/><stop offset="0.758621" stop-color="#87CD50"/><stop offset="0.765517" stop-color="#88CD50"/><stop offset="0.772414" stop-color="#88CE50"/><stop offset="0.77931" stop-color="#89CE50"/><stop offset="0.786207" stop-color="#89CE50"/><stop offset="0.793103" stop-color="#8ACE50"/><stop offset="0.8" stop-color="#8ACE50"/><stop offset="0.806897" stop-color="#8BCE50"/><stop offset="0.813793" stop-color="#8BCE50"/><stop offset="0.82069" stop-color="#8CCE50"/><stop offset="0.827586" stop-color="#8CCE50"/><stop offset="0.834483" stop-color="#8CCE50"/><stop offset="0.841379" stop-color="#8DCE50"/><stop offset="0.848276" stop-color="#8DCF50"/><stop offset="0.855172" stop-color="#8ECF50"/><stop offset="0.862069" stop-color="#8ECF50"/><stop offset="0.868966" stop-color="#8ECF50"/><stop offset="0.875862" stop-color="#8FCF50"/><stop offset="0.882759" stop-color="#8FCF50"/><stop offset="0.889655" stop-color="#8FCF50"/><stop offset="0.896552" stop-color="#8FCF50"/><stop offset="0.903448" stop-color="#90CF50"/><stop offset="0.910345" stop-color="#90CF50"/><stop offset="0.917241" stop-color="#90CF50"/><stop offset="0.924138" stop-color="#90CF50"/><stop offset="0.931035" stop-color="#91CF50"/><stop offset="0.937931" stop-color="#91CF50"/><stop offset="0.944828" stop-color="#91CF50"/><stop offset="0.951724" stop-color="#91CF50"/><stop offset="0.958621" stop-color="#91CF50"/><stop offset="0.965517" stop-color="#91CF50"/><stop offset="0.972414" stop-color="#91CF50"/><stop offset="0.97931" stop-color="#91CF50"/><stop offset="0.986207" stop-color="#91CF50"/><stop offset="0.993103" stop-color="#91CF50"/><stop offset="1" stop-color="#92D050"/></linearGradient></defs><g clip-path="url(#clip0)"><rect x="0" y="0" width="756" height="679.517" fill="#FFFFFF"/><path d="M0.33317-1.0745e-06 0.333253 25.874-0.333087 25.874-0.33317 1.0745e-06ZM3.99812 24.5413 0.000104935 32.5374-3.99796 24.5414Z" fill="#D9D9D9" transform="matrix(1.00071 0 0 -1 455.5 236.892)"/><path d="M0.33317-1.0745e-06 0.333253 25.874-0.333087 25.874-0.33317 1.0745e-06ZM3.99812 24.5413 0.000104935 32.5374-3.99796 24.5414Z" fill="#D9D9D9" transform="matrix(1.00071 0 0 -1 136.5 427.757)"/><path d="M0.33317-1.0745e-06 0.333253 25.874-0.333087 25.874-0.33317 1.0745e-06ZM3.99812 24.5413 0.000104935 32.5374-3.99796 24.5414Z" fill="#D9D9D9" transform="matrix(1.00071 0 0 -1 242.5 427.757)"/><path d="M0.33317-1.0745e-06 0.333253 25.874-0.333087 25.874-0.33317 1.0745e-06ZM3.99812 24.5413 0.000104935 32.5374-3.99796 24.5414Z" fill="#D9D9D9" transform="matrix(1.00071 0 0 -1 349.5 236.892)"/><path d="M0.33317-1.0745e-06 0.333253 25.874-0.333087 25.874-0.33317 1.0745e-06ZM3.99812 24.5413 0.000104935 32.5374-3.99796 24.5414Z" fill="#D9D9D9" transform="matrix(1.00071 0 0 -1 561.5 236.892)"/><path d="M0.33317-1.0745e-06 0.333253 25.874-0.333087 25.874-0.33317 1.0745e-06ZM3.99812 24.5413 0.000104935 32.5374-3.99796 24.5414Z" fill="#D9D9D9" transform="matrix(1.00071 0 0 -1 242.5 236.892)"/><path d="M0.33317-5.43026e-07 0.333264 57.719-0.333076 57.719-0.33317 5.43026e-07ZM3.99813 56.3863 0.000104935 64.3824-3.99795 56.3863Z" fill="#D9D9D9" transform="matrix(1.00071 0 0 -1 667.5 144.825)"/><path d="M0.33317-6.52315e-07 0.333262 46.9324-0.333078 46.9324-0.33317 6.52315e-07ZM3.99813 45.5997 0.000104935 53.5958-3.99795 45.5997Z" fill="#D9D9D9" transform="matrix(1.00071 0 0 -1 135.5 583.719)"/><path d="M0.333162-0.0023098 0.658543 46.93-0.00778157 46.9346-0.333162 0.0023098ZM4.31409 45.572 0.371576 53.5956-3.6818 45.6274Z" fill="#D9D9D9" transform="matrix(1.00071 0 0 -1 348.5 583.719)"/><path d="M454.708 583.722 454.234 536.79 454.901 536.783 455.375 583.715ZM450.58 538.159 454.5 530.123 458.581 538.079Z" fill="#D9D9D9"/><path d="M0.333162-0.00230981 0.658542 46.9299-0.0077818 46.9345-0.333162 0.00230981ZM4.31409 45.5719 0.371576 53.5955-3.6818 45.6273Z" fill="#D9D9D9" transform="matrix(1.00071 0 0 -1 561.5 583.719)"/><path d="M0.33317-6.5232e-07 0.333262 46.932-0.333078 46.932-0.33317 6.5232e-07ZM3.99813 45.5993 0.000104935 53.5954-3.99795 45.5993Z" fill="#D9D9D9" transform="matrix(1.00071 0 0 -1 667.5 583.719)"/><path d="M0.333162-0.0023098 0.658543 46.93-0.00778157 46.9346-0.333162 0.0023098ZM4.31409 45.572 0.371576 53.5956-3.6818 45.6274Z" fill="#D9D9D9" transform="matrix(1.00071 0 0 -1 242.5 583.719)"/><path d="M245.318 333.21 242.75 303.956 243.415 303.898 245.982 333.151ZM239.213 305.603 242.5 297.289 247.185 304.905Z" fill="#D9D9D9"/><path d="M0.109473-0.314671 96.9838 33.3876 96.7649 34.0169-0.109473 0.314671ZM96.9293 29.4883 103.168 35.8917 94.3019 37.0404Z" fill="#D9D9D9" transform="matrix(1.00071 0 0 -1 245.5 333.18)"/><path d="M0.0562637-0.328385 202.972 34.4381 202.859 35.0948-0.0562637 0.328385ZM202.277 30.6007 209.483 35.8917 200.927 38.482Z" fill="#D9D9D9" transform="matrix(1.00071 0 0 -1 245.5 333.18)"/><path d="M0.037624-0.331039 309.216 34.8084 309.141 35.4705-0.037624 0.331039ZM308.305 31.0164 315.798 35.8918 307.402 38.9613Z" fill="#D9D9D9" transform="matrix(1.00071 0 0 -1 245.5 333.181)"/><path d="M556.051 333.512 249.086 298.378 249.162 297.716 556.127 332.85ZM249.994 302.171 242.5 297.289 250.905 294.227Z" fill="#D9D9D9"/><path d="M556.642 333.509 356.013 298.755 356.127 298.099 556.756 332.852ZM356.701 302.594 349.5 297.289 358.068 294.715Z" fill="#D9D9D9"/><path d="M556.196 333.494 461.669 299.839 461.893 299.211 556.42 332.867ZM461.695 303.739 455.5 297.289 464.38 296.206Z" fill="#D9D9D9"/><path d="M0.329217-0.0511732 4.88475 29.2563 4.22632 29.3586-0.329217 0.0511732ZM8.30144 27.3765 5.579 35.8918 0.400241 28.6047Z" fill="#D9D9D9" transform="matrix(1.00071 0 0 -1 556.5 333.181)"/><rect x="202.5" y="237.331" width="80" height="59.9574" stroke="#000000" stroke-width="1.33363" stroke-miterlimit="8" fill="#FFFFFF"/><text font-family="Product Sans,Product Sans_MSFontService,sans-serif" font-weight="400" font-size="17" transform="matrix(1 0 0 0.99929 218.042 272)">$KEEP</text><rect x="309.5" y="237.331" width="80" height="59.9574" stroke="#000000" stroke-width="1.33363" stroke-miterlimit="8" fill="#FFFFFF"/><text font-family="Product Sans,Product Sans_MSFontService,sans-serif" font-weight="400" font-size="17" transform="matrix(1 0 0 0.99929 323.766 262)">$VERB <tspan font-size="17" x="1.24695" y="21.0149">FORM</tspan></text><rect x="415.5" y="237.331" width="80" height="59.9574" stroke="#000000" stroke-width="1.33363" stroke-miterlimit="8" fill="#FFFFFF"/><text font-family="Product Sans,Product Sans_MSFontService,sans-serif" font-weight="400" font-size="17" transform="matrix(1 0 0 0.99929 430.823 272)">$KEEP</text><rect x="521.5" y="237.331" width="81" height="59.9574" stroke="#000000" stroke-width="1.33363" stroke-miterlimit="8" fill="#FFFFFF"/><text font-family="Product Sans,Product Sans_MSFontService,sans-serif" font-weight="400" font-size="17" transform="matrix(1 0 0 0.99929 537.214 272)">$KEEP</text><path d="M0.33317-1.0745e-06 0.333253 25.874-0.333087 25.874-0.33317 1.0745e-06ZM3.99812 24.5413 0.000104935 32.5374-3.99796 24.5414Z" fill="#D9D9D9" transform="matrix(1.00071 0 0 -1 348.5 427.757)"/><path d="M0.33317-1.0745e-06 0.333253 25.874-0.333087 25.874-0.33317 1.0745e-06ZM3.99812 24.5413 0.000104935 32.5374-3.99796 24.5414Z" fill="#D9D9D9" transform="matrix(1.00071 0 0 -1 561.5 427.757)"/><path d="M0.33317-1.0745e-06 0.333253 25.874-0.333087 25.874-0.33317 1.0745e-06ZM3.99812 24.5413 0.000104935 32.5374-3.99796 24.5414Z" fill="#D9D9D9" transform="matrix(1.00071 0 0 -1 668.5 427.757)"/><rect x="184.5" y="221.343" width="433" height="88.9368" stroke="#7F7F7F" stroke-width="1.33363" stroke-miterlimit="8" stroke-dasharray="5.33451 4.00088" fill="none"/><text font-family="Product Sans,Product Sans_MSFontService,sans-serif" font-weight="400" font-size="13" transform="matrix(1 0 0 0.99929 530.98 325)">predicted tags<tspan font-size="13" x="94.7174" y="326.232">input sentence</tspan></text><path d="M83.6594 603.072 31.5 603.071" stroke="#D9D9D9" stroke-width="0.800176" stroke-miterlimit="8" fill="none" fill-rule="evenodd"/><path d="M31.5001 602.848 31.5 174.376" stroke="#D9D9D9" stroke-width="0.800176" stroke-miterlimit="8" fill="none" fill-rule="evenodd"/><path d="M31.5 174.043 89.2303 174.043 89.2303 174.709 31.5 174.709ZM87.8967 170.378 95.8984 174.376 87.8966 178.374Z" fill="#D9D9D9"/><text font-family="Product Sans,Product Sans_MSFontService,sans-serif" font-weight="400" font-size="13" transform="matrix(1 0 0 0.99929 597.039 110)">corrected sentence</text><rect x="95.0001" y="143.898" width="612" height="59.9574" fill="#F2F2F2"/><path d="M331.149 173.354C330.733 173.354 330.341 173.429 329.973 173.581 329.605 173.733 329.277 173.953 328.989 174.241 328.701 174.529 328.473 174.88 328.305 175.296 328.137 175.712 328.053 176.184 328.053 176.711 328.053 177.239 328.137 177.71 328.305 178.126 328.473 178.542 328.701 178.894 328.989 179.181 329.277 179.469 329.605 179.689 329.973 179.841 330.341 179.993 330.733 180.069 331.149 180.069 331.549 180.069 331.937 179.993 332.313 179.841 332.689 179.689 333.021 179.469 333.309 179.181 333.597 178.894 333.825 178.542 333.993 178.126 334.161 177.71 334.245 177.239 334.245 176.711 334.245 176.184 334.161 175.712 333.993 175.296 333.825 174.88 333.597 174.529 333.309 174.241 333.021 173.953 332.689 173.733 332.313 173.581 331.937 173.429 331.549 173.354 331.149 173.354ZM317.581 173.354C317.165 173.354 316.769 173.429 316.393 173.581 316.017 173.733 315.685 173.953 315.397 174.241 315.109 174.529 314.877 174.88 314.701 175.296 314.525 175.712 314.437 176.184 314.437 176.711 314.437 177.239 314.525 177.71 314.701 178.126 314.877 178.542 315.109 178.894 315.397 179.181 315.685 179.469 316.017 179.689 316.393 179.841 316.769 179.993 317.165 180.069 317.581 180.069 317.997 180.069 318.393 179.989 318.769 179.829 319.145 179.669 319.477 179.445 319.765 179.157 320.053 178.87 320.285 178.518 320.461 178.102 320.637 177.686 320.725 177.223 320.725 176.711 320.725 176.199 320.637 175.736 320.461 175.32 320.285 174.904 320.053 174.553 319.765 174.265 319.477 173.977 319.145 173.753 318.769 173.593 318.393 173.433 317.997 173.354 317.581 173.354ZM344.069 170.452C345.189 170.452 346.189 170.671 347.069 171.111 347.949 171.551 348.597 172.25 349.013 173.21L346.301 174.313C346.077 173.849 345.749 173.513 345.317 173.306 344.885 173.098 344.453 172.994 344.021 172.994 343.573 172.994 343.181 173.086 342.845 173.27 342.509 173.453 342.341 173.689 342.341 173.977 342.341 174.249 342.481 174.465 342.761 174.625 343.041 174.784 343.421 174.928 343.901 175.056L345.701 175.488C346.901 175.776 347.793 176.235 348.377 176.867 348.961 177.499 349.253 178.246 349.253 179.109 349.253 179.621 349.133 180.109 348.893 180.572 348.653 181.036 348.313 181.448 347.873 181.807 347.433 182.167 346.905 182.451 346.289 182.659 345.673 182.867 344.989 182.971 344.237 182.971 343.469 182.971 342.785 182.875 342.185 182.683 341.585 182.491 341.065 182.239 340.625 181.927 340.185 181.616 339.813 181.256 339.509 180.848 339.205 180.44 338.973 180.029 338.813 179.613L341.621 178.414C341.893 179.021 342.257 179.473 342.713 179.769 343.169 180.065 343.677 180.213 344.237 180.213 344.813 180.213 345.269 180.109 345.605 179.901 345.941 179.693 346.109 179.445 346.109 179.157 346.109 178.838 345.969 178.578 345.689 178.378 345.409 178.178 344.925 177.998 344.237 177.838L342.581 177.479C342.213 177.399 341.833 177.271 341.441 177.095 341.049 176.919 340.693 176.695 340.373 176.423 340.053 176.152 339.789 175.824 339.581 175.44 339.373 175.056 339.269 174.609 339.269 174.097 339.269 173.521 339.393 173.01 339.641 172.562 339.889 172.114 340.229 171.735 340.661 171.423 341.093 171.111 341.601 170.871 342.185 170.703 342.769 170.536 343.397 170.452 344.069 170.452ZM331.149 170.452C332.061 170.452 332.897 170.607 333.657 170.919 334.417 171.231 335.073 171.663 335.625 172.214 336.177 172.766 336.609 173.425 336.921 174.193 337.233 174.96 337.389 175.8 337.389 176.711 337.389 177.622 337.233 178.462 336.921 179.229 336.609 179.997 336.177 180.656 335.625 181.208 335.073 181.76 334.417 182.191 333.657 182.503 332.897 182.815 332.061 182.971 331.149 182.971 330.237 182.971 329.401 182.815 328.641 182.503 327.881 182.191 327.225 181.76 326.673 181.208 326.121 180.656 325.689 179.997 325.377 179.229 325.065 178.462 324.909 177.622 324.909 176.711 324.909 175.8 325.065 174.96 325.377 174.193 325.689 173.425 326.121 172.766 326.673 172.214 327.225 171.663 327.881 171.231 328.641 170.919 329.401 170.607 330.237 170.452 331.149 170.452ZM318.229 170.452C318.981 170.452 319.697 170.607 320.377 170.919 321.057 171.231 321.657 171.663 322.177 172.214 322.697 172.766 323.109 173.425 323.413 174.193 323.717 174.96 323.869 175.8 323.869 176.711 323.869 177.622 323.717 178.462 323.413 179.229 323.109 179.997 322.697 180.656 322.177 181.208 321.657 181.76 321.057 182.191 320.377 182.503 319.697 182.815 318.981 182.971 318.229 182.971 317.333 182.971 316.581 182.795 315.973 182.443 315.365 182.091 314.917 181.668 314.629 181.172L314.437 181.172 314.629 182.851 314.629 187.767 311.485 187.767 311.485 170.835 314.437 170.835 314.437 172.25 314.629 172.25C314.917 171.755 315.365 171.331 315.973 170.979 316.581 170.627 317.333 170.452 318.229 170.452ZM352.877 167.238 356.021 167.238 356.021 170.835 358.901 170.835 358.901 173.521 356.021 173.521 356.021 178.217C356.021 178.497 356.049 178.757 356.105 178.996 356.161 179.235 356.269 179.437 356.429 179.601 356.653 179.865 356.973 179.997 357.389 179.997 357.661 179.997 357.877 179.969 358.037 179.913 358.197 179.857 358.349 179.781 358.493 179.685L359.381 182.443C359.013 182.619 358.617 182.751 358.193 182.839 357.769 182.927 357.301 182.971 356.789 182.971 356.197 182.971 355.665 182.877 355.193 182.689 354.721 182.501 354.325 182.244 354.005 181.918 353.253 181.184 352.877 180.139 352.877 178.785L352.877 173.521 350.813 173.521 350.813 170.835 352.877 170.835Z" fill="url(#fill1)" fill-rule="evenodd"/><text fill="#000000" fill-opacity="0" font-family="Arial,Arial_MSFontService,sans-serif" font-size="20.5294" x="311.485" y="185.201">post</text><path d="M361.092 173.761 369.228 173.761 369.228 176.543 361.092 176.543Z" fill="url(#fill2)" fill-rule="evenodd"/><text fill="#000000" fill-opacity="0" font-family="Arial,Arial_MSFontService,sans-serif" font-size="2.78203" x="361.092" y="176.195">-</text><path d="M401.496 173.354C401.08 173.354 400.688 173.429 400.32 173.581 399.952 173.733 399.624 173.953 399.336 174.241 399.048 174.529 398.82 174.88 398.652 175.296 398.484 175.712 398.4 176.184 398.4 176.711 398.4 177.239 398.484 177.71 398.652 178.126 398.82 178.542 399.048 178.894 399.336 179.181 399.624 179.469 399.952 179.689 400.32 179.841 400.688 179.993 401.08 180.069 401.496 180.069 401.896 180.069 402.284 179.993 402.66 179.841 403.036 179.689 403.368 179.469 403.656 179.181 403.944 178.894 404.172 178.542 404.34 178.126 404.508 177.71 404.592 177.239 404.592 176.711 404.592 176.184 404.508 175.712 404.34 175.296 404.172 174.88 403.944 174.529 403.656 174.241 403.368 173.953 403.036 173.733 402.66 173.581 402.284 173.429 401.896 173.354 401.496 173.354ZM377.928 173.354C377.512 173.354 377.116 173.429 376.74 173.581 376.364 173.733 376.032 173.953 375.744 174.241 375.456 174.529 375.224 174.88 375.048 175.296 374.872 175.712 374.784 176.184 374.784 176.711 374.784 177.239 374.872 177.71 375.048 178.126 375.224 178.542 375.456 178.894 375.744 179.181 376.032 179.469 376.364 179.689 376.74 179.841 377.116 179.993 377.512 180.069 377.928 180.069 378.344 180.069 378.74 179.989 379.116 179.829 379.492 179.669 379.824 179.445 380.112 179.157 380.4 178.87 380.632 178.518 380.808 178.102 380.984 177.686 381.072 177.223 381.072 176.711 381.072 176.199 380.984 175.736 380.808 175.32 380.632 174.904 380.4 174.553 380.112 174.265 379.824 173.977 379.492 173.753 379.116 173.593 378.74 173.433 378.344 173.354 377.928 173.354ZM485.472 173.282C485.088 173.282 484.712 173.352 484.344 173.493 483.976 173.635 483.648 173.847 483.36 174.129 483.072 174.412 482.84 174.753 482.664 175.154 482.488 175.554 482.4 176.013 482.4 176.531 482.4 177.049 482.488 177.508 482.664 177.909 482.84 178.309 483.072 178.646 483.36 178.921 483.648 179.196 483.976 179.404 484.344 179.545 484.712 179.686 485.088 179.757 485.472 179.757 485.856 179.757 486.236 179.686 486.612 179.545 486.988 179.404 487.32 179.196 487.608 178.921 487.896 178.646 488.128 178.309 488.304 177.909 488.48 177.508 488.568 177.049 488.568 176.531 488.568 176.013 488.48 175.55 488.304 175.142 488.128 174.734 487.896 174.392 487.608 174.117 487.32 173.843 486.988 173.635 486.612 173.493 486.236 173.352 485.856 173.282 485.472 173.282ZM428.376 173.018C427.704 173.018 427.112 173.21 426.6 173.593 426.088 173.977 425.728 174.513 425.52 175.2L431.208 175.2C431.192 174.992 431.124 174.761 431.004 174.505 430.884 174.249 430.708 174.009 430.476 173.785 430.244 173.561 429.956 173.378 429.612 173.234 429.268 173.09 428.856 173.018 428.376 173.018ZM460.12 170.835 463.264 170.835 463.264 182.587 460.12 182.587ZM484.8 170.452C485.616 170.452 486.324 170.599 486.924 170.895 487.524 171.191 488.008 171.595 488.376 172.106L488.568 172.106 488.568 170.835 491.568 170.835 491.568 181.748C491.568 182.739 491.416 183.63 491.112 184.422 490.808 185.213 490.384 185.885 489.84 186.436 489.296 186.988 488.644 187.412 487.884 187.707 487.124 188.003 486.28 188.151 485.352 188.151 484.52 188.151 483.78 188.043 483.132 187.827 482.484 187.611 481.92 187.332 481.44 186.988 480.96 186.644 480.56 186.264 480.24 185.849 479.92 185.433 479.688 185.017 479.544 184.602L482.544 183.402C482.768 184.026 483.136 184.51 483.648 184.853 484.16 185.197 484.728 185.369 485.352 185.369 486.344 185.369 487.128 185.047 487.704 184.404 488.28 183.761 488.568 182.875 488.568 181.748L488.568 180.932 488.376 180.932C488.008 181.444 487.524 181.847 486.924 182.143 486.324 182.439 485.616 182.587 484.8 182.587 484.096 182.587 483.412 182.444 482.748 182.16 482.084 181.875 481.496 181.467 480.984 180.937 480.472 180.406 480.056 179.769 479.736 179.025 479.416 178.281 479.256 177.449 479.256 176.531 479.256 175.613 479.416 174.778 479.736 174.026 480.056 173.273 480.472 172.632 480.984 172.102 481.496 171.572 482.084 171.164 482.748 170.879 483.412 170.594 484.096 170.452 484.8 170.452ZM472.696 170.452C473.432 170.452 474.08 170.571 474.64 170.811 475.2 171.051 475.66 171.391 476.02 171.831 476.38 172.27 476.652 172.798 476.836 173.413 477.02 174.029 477.112 174.713 477.112 175.464L477.112 182.587 473.968 182.587 473.968 175.848C473.968 175 473.78 174.373 473.404 173.965 473.028 173.557 472.48 173.354 471.76 173.354 471.328 173.354 470.948 173.445 470.62 173.629 470.292 173.813 470.012 174.061 469.78 174.373 469.548 174.685 469.372 175.052 469.252 175.476 469.132 175.9 469.072 176.351 469.072 176.831L469.072 182.587 465.928 182.587 465.928 170.835 468.88 170.835 468.88 172.37 469.072 172.37C469.44 171.779 469.936 171.311 470.56 170.967 471.184 170.623 471.896 170.452 472.696 170.452ZM452.416 170.452C453.536 170.452 454.536 170.671 455.416 171.111 456.296 171.551 456.944 172.25 457.36 173.21L454.648 174.313C454.424 173.849 454.096 173.513 453.664 173.306 453.232 173.098 452.8 172.994 452.368 172.994 451.92 172.994 451.528 173.086 451.192 173.27 450.856 173.453 450.688 173.689 450.688 173.977 450.688 174.249 450.828 174.465 451.108 174.625 451.388 174.784 451.768 174.928 452.248 175.056L454.048 175.488C455.248 175.776 456.14 176.235 456.724 176.867 457.308 177.499 457.6 178.246 457.6 179.109 457.6 179.621 457.48 180.109 457.24 180.572 457 181.036 456.66 181.448 456.22 181.807 455.78 182.167 455.252 182.451 454.636 182.659 454.02 182.867 453.336 182.971 452.584 182.971 451.816 182.971 451.132 182.875 450.532 182.683 449.932 182.491 449.412 182.239 448.972 181.927 448.532 181.616 448.16 181.256 447.856 180.848 447.552 180.44 447.32 180.029 447.16 179.613L449.968 178.414C450.24 179.021 450.604 179.473 451.06 179.769 451.516 180.065 452.024 180.213 452.584 180.213 453.16 180.213 453.616 180.109 453.952 179.901 454.288 179.693 454.456 179.445 454.456 179.157 454.456 178.838 454.316 178.578 454.036 178.378 453.756 178.178 453.272 177.998 452.584 177.838L450.928 177.479C450.56 177.399 450.18 177.271 449.788 177.095 449.396 176.919 449.04 176.695 448.72 176.423 448.4 176.152 448.136 175.824 447.928 175.44 447.72 175.056 447.616 174.609 447.616 174.097 447.616 173.521 447.74 173.01 447.988 172.562 448.236 172.114 448.576 171.735 449.008 171.423 449.44 171.111 449.948 170.871 450.532 170.703 451.116 170.536 451.744 170.452 452.416 170.452ZM440.416 170.452C441.536 170.452 442.536 170.671 443.416 171.111 444.296 171.551 444.944 172.25 445.36 173.21L442.648 174.313C442.424 173.849 442.096 173.513 441.664 173.306 441.232 173.098 440.8 172.994 440.368 172.994 439.92 172.994 439.528 173.086 439.192 173.27 438.856 173.453 438.688 173.689 438.688 173.977 438.688 174.249 438.828 174.465 439.108 174.625 439.388 174.784 439.768 174.928 440.248 175.056L442.048 175.488C443.248 175.776 444.14 176.235 444.724 176.867 445.308 177.499 445.6 178.246 445.6 179.109 445.6 179.621 445.48 180.109 445.24 180.572 445 181.036 444.66 181.448 444.22 181.807 443.78 182.167 443.252 182.451 442.636 182.659 442.02 182.867 441.336 182.971 440.584 182.971 439.816 182.971 439.132 182.875 438.532 182.683 437.932 182.491 437.412 182.239 436.972 181.927 436.532 181.616 436.16 181.256 435.856 180.848 435.552 180.44 435.32 180.029 435.16 179.613L437.968 178.414C438.24 179.021 438.604 179.473 439.06 179.769 439.516 180.065 440.024 180.213 440.584 180.213 441.16 180.213 441.616 180.109 441.952 179.901 442.288 179.693 442.456 179.445 442.456 179.157 442.456 178.838 442.316 178.578 442.036 178.378 441.756 178.178 441.272 177.998 440.584 177.838L438.928 177.479C438.56 177.399 438.18 177.271 437.788 177.095 437.396 176.919 437.04 176.695 436.72 176.423 436.4 176.152 436.136 175.824 435.928 175.44 435.72 175.056 435.616 174.609 435.616 174.097 435.616 173.521 435.74 173.01 435.988 172.562 436.236 172.114 436.576 171.735 437.008 171.423 437.44 171.111 437.948 170.871 438.532 170.703 439.116 170.536 439.744 170.452 440.416 170.452ZM428.376 170.452C429.32 170.452 430.16 170.607 430.896 170.919 431.632 171.231 432.248 171.663 432.744 172.214 433.24 172.766 433.616 173.417 433.872 174.169 434.128 174.92 434.256 175.736 434.256 176.615 434.256 176.727 434.256 176.823 434.256 176.903 434.24 176.999 434.232 177.087 434.232 177.167 434.216 177.247 434.208 177.335 434.208 177.431L425.352 177.431C425.416 177.91 425.548 178.322 425.748 178.666 425.948 179.009 426.196 179.297 426.492 179.529 426.788 179.761 427.112 179.929 427.464 180.033 427.816 180.137 428.176 180.189 428.544 180.189 429.264 180.189 429.86 180.025 430.332 179.697 430.804 179.369 431.176 178.958 431.448 178.462L434.064 179.757C433.52 180.716 432.788 181.492 431.868 182.083 430.948 182.675 429.824 182.971 428.496 182.971 427.6 182.971 426.772 182.815 426.012 182.503 425.252 182.191 424.592 181.756 424.032 181.196 423.472 180.636 423.036 179.977 422.724 179.217 422.412 178.458 422.256 177.622 422.256 176.711 422.256 175.864 422.408 175.06 422.712 174.301 423.016 173.541 423.44 172.878 423.984 172.31 424.528 171.743 425.172 171.291 425.916 170.955 426.66 170.619 427.48 170.452 428.376 170.452ZM415.496 170.452C416.856 170.452 418 170.763 418.928 171.387 419.856 172.01 420.536 172.818 420.968 173.809L418.088 175.008C417.816 174.465 417.468 174.053 417.044 173.773 416.62 173.493 416.088 173.354 415.448 173.354 415.032 173.354 414.64 173.433 414.272 173.593 413.904 173.753 413.58 173.977 413.3 174.265 413.02 174.553 412.8 174.904 412.64 175.32 412.48 175.736 412.4 176.199 412.4 176.711 412.4 177.223 412.48 177.686 412.64 178.102 412.8 178.518 413.02 178.87 413.3 179.157 413.58 179.445 413.904 179.669 414.272 179.829 414.64 179.989 415.032 180.069 415.448 180.069 416.104 180.069 416.66 179.921 417.116 179.625 417.572 179.329 417.936 178.902 418.208 178.342L421.088 179.589C420.576 180.58 419.86 181.392 418.94 182.023 418.02 182.655 416.872 182.971 415.496 182.971 414.584 182.971 413.748 182.815 412.988 182.503 412.228 182.191 411.572 181.756 411.02 181.196 410.468 180.636 410.036 179.977 409.724 179.217 409.412 178.458 409.256 177.622 409.256 176.711 409.256 175.8 409.412 174.96 409.724 174.193 410.036 173.425 410.468 172.766 411.02 172.214 411.572 171.663 412.228 171.231 412.988 170.919 413.748 170.607 414.584 170.452 415.496 170.452ZM401.496 170.452C402.408 170.452 403.244 170.607 404.004 170.919 404.764 171.231 405.42 171.663 405.972 172.214 406.524 172.766 406.956 173.425 407.268 174.193 407.58 174.96 407.736 175.8 407.736 176.711 407.736 177.622 407.58 178.462 407.268 179.229 406.956 179.997 406.524 180.656 405.972 181.208 405.42 181.76 404.764 182.191 404.004 182.503 403.244 182.815 402.408 182.971 401.496 182.971 400.584 182.971 399.748 182.815 398.988 182.503 398.228 182.191 397.572 181.76 397.02 181.208 396.468 180.656 396.036 179.997 395.724 179.229 395.412 178.462 395.256 177.622 395.256 176.711 395.256 175.8 395.412 174.96 395.724 174.193 396.036 173.425 396.468 172.766 397.02 172.214 397.572 171.663 398.228 171.231 398.988 170.919 399.748 170.607 400.584 170.452 401.496 170.452ZM392.432 170.452C392.848 170.452 393.204 170.496 393.5 170.585 393.796 170.674 394.048 170.789 394.256 170.931L393.416 173.737C393.224 173.641 393.012 173.565 392.78 173.509 392.548 173.453 392.264 173.425 391.928 173.425 391.496 173.425 391.104 173.51 390.752 173.679 390.4 173.847 390.1 174.084 389.852 174.39 389.604 174.695 389.412 175.053 389.276 175.463 389.14 175.873 389.072 176.319 389.072 176.801L389.072 182.587 385.928 182.587 385.928 170.835 388.88 170.835 388.88 172.466 389.072 172.466C389.216 172.178 389.408 171.915 389.648 171.675 389.888 171.435 390.156 171.226 390.452 171.048 390.748 170.87 391.068 170.726 391.412 170.616 391.756 170.506 392.096 170.452 392.432 170.452ZM378.576 170.452C379.328 170.452 380.044 170.607 380.724 170.919 381.404 171.231 382.004 171.663 382.524 172.214 383.044 172.766 383.456 173.425 383.76 174.193 384.064 174.96 384.216 175.8 384.216 176.711 384.216 177.622 384.064 178.462 383.76 179.229 383.456 179.997 383.044 180.656 382.524 181.208 382.004 181.76 381.404 182.191 380.724 182.503 380.044 182.815 379.328 182.971 378.576 182.971 377.68 182.971 376.928 182.795 376.32 182.443 375.712 182.091 375.264 181.668 374.976 181.172L374.784 181.172 374.976 182.851 374.976 187.767 371.832 187.767 371.832 170.835 374.784 170.835 374.784 172.25 374.976 172.25C375.264 171.755 375.712 171.331 376.32 170.979 376.928 170.627 377.68 170.452 378.576 170.452ZM461.68 165.223C462.24 165.223 462.72 165.419 463.12 165.811 463.52 166.203 463.72 166.678 463.72 167.238 463.72 167.797 463.52 168.273 463.12 168.665 462.72 169.057 462.24 169.252 461.68 169.252 461.408 169.252 461.148 169.2 460.9 169.097 460.652 168.993 460.436 168.849 460.252 168.665 460.068 168.481 459.924 168.269 459.82 168.029 459.716 167.789 459.664 167.526 459.664 167.238 459.664 166.95 459.716 166.686 459.82 166.446 459.924 166.207 460.068 165.995 460.252 165.811 460.436 165.627 460.652 165.483 460.9 165.379 461.148 165.275 461.408 165.223 461.68 165.223Z" fill="url(#fill3)" fill-rule="evenodd"/><text fill="#000000" fill-opacity="0" font-family="Arial,Arial_MSFontService,sans-serif" font-size="22.9277" x="371.832" y="185.285">processing</text><path d="M0.333169-0.000668193 0.447617 57.0643-0.218722 57.0656-0.333169 0.000668193ZM4.10981 55.7243 0.127811 63.7283-3.88626 55.7403Z" fill="#D9D9D9" transform="matrix(1.00071 0 0 -1 135.5 144.171)"/><path d="M0.33317-5.486e-07 0.333264 57.065-0.333076 57.065-0.33317 5.486e-07ZM3.99813 55.7323 0.000104935 63.7283-3.99795 55.7323Z" fill="#D9D9D9" transform="matrix(1.00071 0 0 -1 242.5 144.171)"/><path d="M0.33317-5.486e-07 0.333264 57.065-0.333076 57.065-0.33317 5.486e-07ZM3.99813 55.7323 0.000104935 63.7283-3.99795 55.7323Z" fill="#D9D9D9" transform="matrix(1.00071 0 0 -1 348.5 144.171)"/><path d="M0.33317-5.486e-07 0.333264 57.065-0.333076 57.065-0.33317 5.486e-07ZM3.99813 55.7323 0.000104935 63.7283-3.99795 55.7323Z" fill="#D9D9D9" transform="matrix(1.00071 0 0 -1 455.5 144.171)"/><path d="M0.33317-5.48599e-07 0.333264 57.0651-0.333076 57.0651-0.33317 5.48599e-07ZM3.99813 55.7324 0.000104935 63.7284-3.99795 55.7324Z" fill="#D9D9D9" transform="matrix(1.00071 0 0 -1 561.5 144.171)"/><text font-family="Product Sans,Product Sans_MSFontService,sans-serif" font-weight="400" font-size="13" transform="matrix(1 0 0 0.99929 622.258 559)">Gector pipeline</text><rect x="95.5" y="42.4698" width="81" height="37.973" stroke="#000000" stroke-width="1.33363" stroke-miterlimit="8" fill="none"/><text font-family="Product Sans,Product Sans_MSFontService,sans-serif" font-weight="400" font-size="17" transform="matrix(1 0 0 0.99929 114.609 67)">[CLS]</text><rect x="627.5" y="42.4698" width="80" height="37.973" stroke="#000000" stroke-width="1.33363" stroke-miterlimit="8" fill="none"/><text font-family="Product Sans,Product Sans_MSFontService,sans-serif" font-weight="400" font-size="17" transform="matrix(1 0 0 0.99929 647.647 67)">[SEP]</text><rect x="202.5" y="42.4698" width="80" height="37.973" stroke="#000000" stroke-width="1.33363" stroke-miterlimit="8" fill="none"/><text font-family="Product Sans,Product Sans_MSFontService,sans-serif" font-weight="400" font-size="17" transform="matrix(1 0 0 0.99929 231.252 67)">He</text><rect x="308.5" y="42.4698" width="80" height="37.973" stroke="#000000" stroke-width="1.33363" stroke-miterlimit="8" fill="none"/><text font-family="Product Sans,Product Sans_MSFontService,sans-serif" font-weight="400" font-size="17" transform="matrix(1 0 0 0.99929 328.891 67)">plays</text><rect x="415.5" y="42.4698" width="80" height="37.973" stroke="#000000" stroke-width="1.33363" stroke-miterlimit="8" fill="none"/><text font-family="Product Sans,Product Sans_MSFontService,sans-serif" font-weight="400" font-size="17" transform="matrix(1 0 0 0.99929 425.78 67)">football</text><rect x="521.5" y="42.4698" width="80" height="37.973" stroke="#000000" stroke-width="1.33363" stroke-miterlimit="8" fill="none"/><text font-family="Product Sans,Product Sans_MSFontService,sans-serif" font-weight="400" font-size="17" transform="matrix(1 0 0 0.99929 559.01 67)">.</text><rect x="83.5" y="128.409" width="638" height="412.707" stroke="#7F7F7F" stroke-width="1.33363" stroke-miterlimit="8" stroke-dasharray="5.33451 4.00088" fill="none"/><rect x="95.5" y="583.086" width="81" height="38.9723" stroke="#000000" stroke-width="1.33363" stroke-miterlimit="8" fill="none"/><text font-family="Product Sans,Product Sans_MSFontService,sans-serif" font-weight="400" font-size="17" transform="matrix(1 0 0 0.99929 114.609 607)">[CLS]</text><rect x="627.5" y="583.086" width="80" height="38.9723" stroke="#000000" stroke-width="1.33363" stroke-miterlimit="8" fill="none"/><text font-family="Product Sans,Product Sans_MSFontService,sans-serif" font-weight="400" font-size="17" transform="matrix(1 0 0 0.99929 647.647 607)">[SEP]</text><rect x="202.5" y="583.086" width="80" height="38.9723" stroke="#000000" stroke-width="1.33363" stroke-miterlimit="8" fill="none"/><text font-family="Product Sans,Product Sans_MSFontService,sans-serif" font-weight="400" font-size="17" transform="matrix(1 0 0 0.99929 231.253 607)">He</text><rect x="308.5" y="583.086" width="80" height="38.9723" stroke="#000000" stroke-width="1.33363" stroke-miterlimit="8" fill="none"/><text font-family="Product Sans,Product Sans_MSFontService,sans-serif" font-weight="400" font-size="17" transform="matrix(1 0 0 0.99929 332.809 607)">play</text><rect x="415.5" y="583.086" width="80" height="38.9723" stroke="#000000" stroke-width="1.33363" stroke-miterlimit="8" fill="none"/><text font-family="Product Sans,Product Sans_MSFontService,sans-serif" font-weight="400" font-size="17" transform="matrix(1 0 0 0.99929 425.78 607)">football</text><rect x="521.5" y="583.086" width="80" height="38.9723" stroke="#000000" stroke-width="1.33363" stroke-miterlimit="8" fill="none"/><text font-family="Product Sans,Product Sans_MSFontService,sans-serif" font-weight="400" font-size="17" transform="matrix(1 0 0 0.99929 559.01 607)">.</text><rect x="83.5" y="31.4776" width="638" height="60.9567" stroke="#7F7F7F" stroke-width="1.33363" stroke-miterlimit="8" stroke-dasharray="5.33451 4.00088" fill="none"/><rect x="95.0001" y="426.697" width="612" height="102.927" fill="#F2F2F2"/><path d="M377.469 478.853 377.469 483.266 381.069 483.266C381.885 483.266 382.509 483.062 382.941 482.654 383.373 482.246 383.589 481.723 383.589 481.083 383.589 480.444 383.369 479.912 382.929 479.488 382.489 479.064 381.837 478.853 380.973 478.853ZM406.469 472.041 406.469 476.814 409.469 476.814C410.205 476.814 410.809 476.59 411.281 476.143 411.753 475.695 411.989 475.127 411.989 474.44 411.989 474.136 411.937 473.84 411.833 473.552 411.729 473.265 411.573 473.009 411.365 472.785 411.157 472.561 410.897 472.381 410.585 472.245 410.273 472.109 409.917 472.041 409.517 472.041ZM377.469 471.97 377.469 476.071 380.709 476.071C381.461 476.071 382.041 475.867 382.449 475.459 382.857 475.051 383.061 474.568 383.061 474.008 383.061 473.448 382.861 472.969 382.461 472.569 382.061 472.169 381.509 471.97 380.805 471.97ZM417.077 469.068 429.917 469.068 429.917 472.137 425.117 472.137 425.117 486.239 421.877 486.239 421.877 472.137 417.077 472.137ZM403.229 469.068 409.493 469.068C410.357 469.068 411.141 469.203 411.845 469.475 412.549 469.747 413.153 470.123 413.657 470.603 414.161 471.082 414.549 471.654 414.821 472.317 415.093 472.981 415.229 473.704 415.229 474.488 415.229 475.063 415.133 475.603 414.941 476.107 414.749 476.61 414.485 477.066 414.149 477.474 413.813 477.881 413.421 478.241 412.973 478.553 412.525 478.865 412.053 479.108 411.557 479.284L411.533 479.452 416.141 486.048 416.141 486.239 412.421 486.239 407.981 479.788 406.469 479.788 406.469 486.239 403.229 486.239ZM389.229 469.068 400.125 469.068 400.125 472.137 392.469 472.137 392.469 476.119 399.357 476.119 399.357 479.188 392.469 479.188 392.469 483.17 400.125 483.17 400.125 486.239 389.229 486.239ZM374.229 469.068 380.949 469.068C381.685 469.068 382.373 469.184 383.013 469.415 383.653 469.647 384.209 469.967 384.681 470.375 385.153 470.782 385.525 471.258 385.797 471.802 386.069 472.345 386.205 472.929 386.205 473.552 386.205 474.464 385.985 475.227 385.545 475.843 385.105 476.458 384.557 476.926 383.901 477.246L383.901 477.438C384.781 477.757 385.489 478.257 386.025 478.937 386.561 479.616 386.829 480.46 386.829 481.467 386.829 482.202 386.681 482.862 386.385 483.445 386.089 484.029 385.685 484.529 385.173 484.944 384.661 485.36 384.065 485.68 383.385 485.904 382.705 486.127 381.973 486.239 381.189 486.239L374.229 486.239Z" fill="url(#fill4)" fill-rule="evenodd"/><text fill="#000000" fill-opacity="0" font-family="Arial,Arial_MSFontService,sans-serif" font-size="17.1718" x="374.229" y="484.093">BERT</text><rect x="95.0001" y="333.763" width="612" height="60.9567" fill="#F2F2F2"/><path d="M413.577 367.137C412.825 367.137 412.245 367.301 411.837 367.629 411.429 367.956 411.225 368.36 411.225 368.84 411.225 369.319 411.421 369.703 411.813 369.991 412.205 370.279 412.657 370.423 413.169 370.423 413.585 370.423 413.969 370.347 414.321 370.195 414.673 370.043 414.973 369.843 415.221 369.595 415.469 369.347 415.661 369.06 415.797 368.732 415.933 368.404 416.001 368.064 416.001 367.713 415.633 367.537 415.253 367.397 414.861 367.293 414.469 367.189 414.041 367.137 413.577 367.137ZM379.577 367.137C378.825 367.137 378.245 367.301 377.837 367.629 377.429 367.956 377.225 368.36 377.225 368.84 377.225 369.319 377.421 369.703 377.813 369.991 378.205 370.279 378.657 370.423 379.169 370.423 379.585 370.423 379.969 370.347 380.321 370.195 380.673 370.043 380.973 369.843 381.221 369.595 381.469 369.347 381.661 369.06 381.797 368.732 381.933 368.404 382.001 368.064 382.001 367.713 381.633 367.537 381.253 367.397 380.861 367.293 380.469 367.189 380.041 367.137 379.577 367.137ZM440.201 362.916C439.529 362.916 438.937 363.108 438.425 363.492 437.913 363.875 437.553 364.411 437.345 365.098L443.033 365.098C443.017 364.891 442.949 364.659 442.829 364.403 442.709 364.147 442.533 363.907 442.301 363.683 442.069 363.46 441.781 363.276 441.437 363.132 441.093 362.988 440.681 362.916 440.201 362.916ZM367.201 362.916C366.529 362.916 365.937 363.108 365.425 363.492 364.913 363.875 364.553 364.411 364.345 365.098L370.033 365.098C370.017 364.891 369.949 364.659 369.829 364.403 369.709 364.147 369.533 363.907 369.301 363.683 369.069 363.46 368.781 363.276 368.437 363.132 368.093 362.988 367.681 362.916 367.201 362.916ZM420.505 360.734 424.081 360.734 427.057 367.856 427.225 367.856 430.081 360.734 433.585 360.734 426.217 377.665 422.833 377.665 425.449 371.91ZM341.945 360.734 345.089 360.734 345.089 372.485 341.945 372.485ZM462.241 360.35C463.361 360.35 464.361 360.57 465.241 361.009 466.121 361.449 466.769 362.149 467.185 363.108L464.473 364.211C464.249 363.747 463.921 363.412 463.489 363.204 463.057 362.996 462.625 362.892 462.193 362.892 461.745 362.892 461.353 362.984 461.017 363.168 460.681 363.352 460.513 363.587 460.513 363.875 460.513 364.147 460.653 364.363 460.933 364.523 461.213 364.683 461.593 364.827 462.073 364.955L463.873 365.386C465.073 365.674 465.965 366.134 466.549 366.765 467.133 367.397 467.425 368.144 467.425 369.008 467.425 369.519 467.305 370.007 467.065 370.471 466.825 370.934 466.485 371.346 466.045 371.706 465.605 372.065 465.077 372.349 464.461 372.557 463.845 372.765 463.161 372.869 462.409 372.869 461.641 372.869 460.957 372.773 460.357 372.581 459.757 372.389 459.237 372.137 458.797 371.826 458.357 371.514 457.985 371.154 457.681 370.746 457.377 370.339 457.145 369.927 456.985 369.511L459.793 368.312C460.065 368.92 460.429 369.371 460.885 369.667 461.341 369.963 461.849 370.111 462.409 370.111 462.985 370.111 463.441 370.007 463.777 369.799 464.113 369.591 464.281 369.343 464.281 369.056 464.281 368.736 464.141 368.476 463.861 368.276 463.581 368.076 463.097 367.896 462.409 367.737L460.753 367.377C460.385 367.297 460.005 367.169 459.613 366.993 459.221 366.817 458.865 366.593 458.545 366.322 458.225 366.05 457.961 365.722 457.753 365.338 457.545 364.955 457.441 364.507 457.441 363.995 457.441 363.42 457.565 362.908 457.813 362.46 458.061 362.013 458.401 361.633 458.833 361.321 459.265 361.009 459.773 360.77 460.357 360.602 460.941 360.434 461.569 360.35 462.241 360.35ZM455.257 360.35C455.673 360.35 456.029 360.394 456.325 360.483 456.621 360.572 456.873 360.687 457.081 360.829L456.241 363.635C456.049 363.54 455.837 363.464 455.605 363.408 455.373 363.352 455.089 363.324 454.753 363.324 454.321 363.324 453.929 363.408 453.577 363.577 453.225 363.746 452.925 363.983 452.677 364.288 452.429 364.593 452.237 364.951 452.101 365.361 451.965 365.771 451.897 366.217 451.897 366.699L451.897 372.485 448.753 372.485 448.753 360.734 451.705 360.734 451.705 362.364 451.897 362.364C452.041 362.077 452.233 361.813 452.473 361.573 452.713 361.333 452.981 361.124 453.277 360.946 453.573 360.768 453.893 360.624 454.237 360.514 454.581 360.405 454.921 360.35 455.257 360.35ZM440.201 360.35C441.145 360.35 441.985 360.506 442.721 360.817 443.457 361.129 444.073 361.561 444.569 362.113 445.065 362.664 445.441 363.316 445.697 364.067 445.953 364.819 446.081 365.634 446.081 366.513 446.081 366.625 446.081 366.721 446.081 366.801 446.065 366.897 446.057 366.985 446.057 367.065 446.041 367.145 446.033 367.233 446.033 367.329L437.177 367.329C437.241 367.809 437.373 368.22 437.573 368.564 437.773 368.908 438.021 369.196 438.317 369.427 438.613 369.659 438.937 369.827 439.289 369.931 439.641 370.035 440.001 370.087 440.369 370.087 441.089 370.087 441.685 369.923 442.157 369.595 442.629 369.267 443.001 368.856 443.273 368.36L445.889 369.655C445.345 370.615 444.613 371.39 443.693 371.982 442.773 372.573 441.649 372.869 440.321 372.869 439.425 372.869 438.597 372.713 437.837 372.401 437.077 372.089 436.417 371.654 435.857 371.094 435.297 370.535 434.861 369.875 434.549 369.116 434.237 368.356 434.081 367.521 434.081 366.609 434.081 365.762 434.233 364.959 434.537 364.199 434.841 363.44 435.265 362.776 435.809 362.208 436.353 361.641 436.997 361.189 437.741 360.853 438.485 360.518 439.305 360.35 440.201 360.35ZM413.481 360.35C415.305 360.35 416.697 360.777 417.657 361.633 418.617 362.488 419.097 363.755 419.097 365.434L419.097 372.485 416.001 372.485 416.001 371.238 415.809 371.238C415.441 371.686 414.997 372.069 414.477 372.389 413.957 372.709 413.289 372.869 412.473 372.869 411.865 372.869 411.293 372.769 410.757 372.569 410.221 372.369 409.753 372.093 409.353 371.742 408.953 371.39 408.641 370.966 408.417 370.471 408.193 369.975 408.081 369.431 408.081 368.84 408.081 368.232 408.201 367.685 408.441 367.197 408.681 366.709 409.017 366.29 409.449 365.938 409.881 365.586 410.389 365.318 410.973 365.134 411.557 364.951 412.193 364.859 412.881 364.859 413.649 364.859 414.281 364.919 414.777 365.038 415.273 365.158 415.681 365.282 416.001 365.41L416.001 365.05C416.001 364.427 415.753 363.911 415.257 363.504 414.761 363.096 414.145 362.892 413.409 362.892 412.321 362.892 411.401 363.348 410.649 364.259L408.369 362.7C409.617 361.133 411.321 360.35 413.481 360.35ZM394.257 360.35C394.673 360.35 395.029 360.394 395.325 360.483 395.621 360.572 395.873 360.687 396.081 360.829L395.241 363.635C395.049 363.54 394.837 363.464 394.605 363.408 394.373 363.352 394.089 363.324 393.753 363.324 393.321 363.324 392.929 363.408 392.577 363.577 392.225 363.746 391.925 363.983 391.677 364.288 391.429 364.593 391.237 364.951 391.101 365.361 390.965 365.771 390.897 366.217 390.897 366.699L390.897 372.485 387.753 372.485 387.753 360.734 390.705 360.734 390.705 362.364 390.897 362.364C391.041 362.077 391.233 361.813 391.473 361.573 391.713 361.333 391.981 361.124 392.277 360.946 392.573 360.768 392.893 360.624 393.237 360.514 393.581 360.405 393.921 360.35 394.257 360.35ZM379.481 360.35C381.305 360.35 382.697 360.777 383.657 361.633 384.617 362.488 385.097 363.755 385.097 365.434L385.097 372.485 382.001 372.485 382.001 371.238 381.809 371.238C381.441 371.686 380.997 372.069 380.477 372.389 379.957 372.709 379.289 372.869 378.473 372.869 377.865 372.869 377.293 372.769 376.757 372.569 376.221 372.369 375.753 372.093 375.353 371.742 374.953 371.39 374.641 370.966 374.417 370.471 374.193 369.975 374.081 369.431 374.081 368.84 374.081 368.232 374.201 367.685 374.441 367.197 374.681 366.709 375.017 366.29 375.449 365.938 375.881 365.586 376.389 365.318 376.973 365.134 377.557 364.951 378.193 364.859 378.881 364.859 379.649 364.859 380.281 364.919 380.777 365.038 381.273 365.158 381.681 365.282 382.001 365.41L382.001 365.05C382.001 364.427 381.753 363.911 381.257 363.504 380.761 363.096 380.145 362.892 379.409 362.892 378.321 362.892 377.401 363.348 376.649 364.259L374.369 362.7C375.617 361.133 377.321 360.35 379.481 360.35ZM367.201 360.35C368.145 360.35 368.985 360.506 369.721 360.817 370.457 361.129 371.073 361.561 371.569 362.113 372.065 362.664 372.441 363.316 372.697 364.067 372.953 364.819 373.081 365.634 373.081 366.513 373.081 366.625 373.081 366.721 373.081 366.801 373.065 366.897 373.057 366.985 373.057 367.065 373.041 367.145 373.033 367.233 373.033 367.329L364.177 367.329C364.241 367.809 364.373 368.22 364.573 368.564 364.773 368.908 365.021 369.196 365.317 369.427 365.613 369.659 365.937 369.827 366.289 369.931 366.641 370.035 367.001 370.087 367.369 370.087 368.089 370.087 368.685 369.923 369.157 369.595 369.629 369.267 370.001 368.856 370.273 368.36L372.889 369.655C372.345 370.615 371.613 371.39 370.693 371.982 369.773 372.573 368.649 372.869 367.321 372.869 366.425 372.869 365.597 372.713 364.837 372.401 364.077 372.089 363.417 371.654 362.857 371.094 362.297 370.535 361.861 369.875 361.549 369.116 361.237 368.356 361.081 367.521 361.081 366.609 361.081 365.762 361.233 364.959 361.537 364.199 361.841 363.44 362.265 362.776 362.809 362.208 363.353 361.641 363.997 361.189 364.741 360.853 365.485 360.518 366.305 360.35 367.201 360.35ZM354.521 360.35C355.257 360.35 355.905 360.47 356.465 360.71 357.025 360.949 357.485 361.289 357.845 361.729 358.205 362.169 358.477 362.696 358.661 363.312 358.845 363.927 358.937 364.611 358.937 365.362L358.937 372.485 355.793 372.485 355.793 365.746C355.793 364.899 355.605 364.271 355.229 363.863 354.853 363.456 354.305 363.252 353.585 363.252 353.153 363.252 352.773 363.344 352.445 363.528 352.117 363.711 351.837 363.959 351.605 364.271 351.373 364.583 351.197 364.951 351.077 365.374 350.957 365.798 350.897 366.25 350.897 366.729L350.897 372.485 347.753 372.485 347.753 360.734 350.705 360.734 350.705 362.268 350.897 362.268C351.265 361.677 351.761 361.209 352.385 360.865 353.009 360.522 353.721 360.35 354.521 360.35ZM402.753 355.313 405.897 355.313 405.897 372.485 402.753 372.485ZM335.753 355.313 338.897 355.313 338.897 372.485 335.753 372.485ZM343.505 355.122C344.065 355.122 344.545 355.317 344.945 355.709 345.345 356.101 345.545 356.576 345.545 357.136 345.545 357.696 345.345 358.171 344.945 358.563 344.545 358.955 344.065 359.151 343.505 359.151 343.233 359.151 342.973 359.099 342.725 358.995 342.477 358.891 342.261 358.747 342.077 358.563 341.893 358.379 341.749 358.167 341.645 357.928 341.541 357.688 341.489 357.424 341.489 357.136 341.489 356.848 341.541 356.584 341.645 356.345 341.749 356.105 341.893 355.893 342.077 355.709 342.261 355.525 342.477 355.381 342.725 355.277 342.973 355.173 343.233 355.122 343.505 355.122Z" fill="url(#fill5)" fill-rule="evenodd"/><text fill="#000000" fill-opacity="0" font-family="Arial,Arial_MSFontService,sans-serif" font-size="22.544" x="335.753" y="374.848">linear layers</text><path d="M0.33317-1.0745e-06 0.333253 25.874-0.333087 25.874-0.33317 1.0745e-06ZM3.99812 24.5413 0.000104935 32.5374-3.99796 24.5414Z" fill="#D9D9D9" transform="matrix(1.00071 0 0 -1 454.5 427.757)"/><rect x="83.5" y="573.093" width="638" height="59.9574" stroke="#7F7F7F" stroke-width="1.33363" stroke-miterlimit="8" stroke-dasharray="5.33451 4.00088" fill="none"/></g></svg>