<svg width="1096" height="491" xmlns="http://www.w3.org/2000/svg" xmlns:xlink="http://www.w3.org/1999/xlink" overflow="hidden"><defs><clipPath id="clip0"><rect x="0" y="0" width="1096" height="491"/></clipPath><clipPath id="clip1"><rect x="85" y="30" width="1000" height="312"/></clipPath><clipPath id="clip2"><rect x="85" y="30" width="1000" height="312"/></clipPath><clipPath id="clip3"><rect x="85" y="30" width="1000" height="312"/></clipPath><clipPath id="clip4"><rect x="85" y="30" width="1000" height="312"/></clipPath><clipPath id="clip5"><rect x="85" y="30" width="1000" height="312"/></clipPath><clipPath id="clip6"><rect x="85" y="30" width="1000" height="312"/></clipPath><clipPath id="clip7"><rect x="85" y="30" width="1000" height="312"/></clipPath><clipPath id="clip8"><rect x="-24" y="-19" width="1125" height="524"/></clipPath><clipPath id="clip9"><rect x="-24" y="-19" width="1125" height="524"/></clipPath><clipPath id="clip10"><rect x="-24" y="-19" width="1125" height="524"/></clipPath><clipPath id="clip11"><rect x="-24" y="-19" width="1125" height="524"/></clipPath><clipPath id="clip12"><rect x="-24" y="-19" width="1125" height="524"/></clipPath><clipPath id="clip13"><rect x="-24" y="-19" width="1125" height="524"/></clipPath><clipPath id="clip14"><rect x="-24" y="-19" width="1125" height="524"/></clipPath><clipPath id="clip15"><rect x="-24" y="-19" width="1125" height="524"/></clipPath><clipPath id="clip16"><rect x="-24" y="-19" width="1125" height="524"/></clipPath><clipPath id="clip17"><rect x="-24" y="-19" width="1125" height="524"/></clipPath><clipPath id="clip18"><rect x="-24" y="-19" width="1125" height="524"/></clipPath><clipPath id="clip19"><rect x="-24" y="-19" width="1125" height="524"/></clipPath><clipPath id="clip20"><rect x="-24" y="-19" width="1125" height="524"/></clipPath><clipPath id="clip21"><rect x="-24" y="-19" width="1125" height="524"/></clipPath><clipPath id="clip22"><rect x="-24" y="-19" width="1125" height="524"/></clipPath><clipPath id="clip23"><rect x="-24" y="-19" width="1125" height="524"/></clipPath><clipPath id="clip24"><rect x="-24" y="-19" width="1125" height="524"/></clipPath><clipPath id="clip25"><rect x="-24" y="-19" width="1125" height="524"/></clipPath><clipPath id="clip26"><rect x="-24" y="-19" width="1125" height="524"/></clipPath><clipPath id="clip27"><rect x="-24" y="-19" width="1125" height="524"/></clipPath><clipPath id="clip28"><rect x="-24" y="-19" width="1125" height="524"/></clipPath><clipPath id="clip29"><rect x="-24" y="-19" width="1125" height="524"/></clipPath><clipPath id="clip30"><rect x="-24" y="-19" width="1125" height="524"/></clipPath><clipPath id="clip31"><rect x="-24" y="-19" width="1125" height="524"/></clipPath><clipPath id="clip32"><rect x="-24" y="-19" width="1125" height="524"/></clipPath><clipPath id="clip33"><rect x="-24" y="-19" width="1125" height="524"/></clipPath><clipPath id="clip34"><rect x="-24" y="-19" width="1125" height="524"/></clipPath><clipPath id="clip35"><rect x="-24" y="-19" width="1125" height="524"/></clipPath><clipPath id="clip36"><rect x="-24" y="-19" width="1125" height="524"/></clipPath><clipPath id="clip37"><rect x="-24" y="-19" width="1125" height="524"/></clipPath><clipPath id="clip38"><rect x="-24" y="-19" width="1125" height="524"/></clipPath><clipPath id="clip39"><rect x="-24" y="-19" width="1125" height="524"/></clipPath><clipPath id="clip40"><rect x="-24" y="-19" width="1125" height="524"/></clipPath><clipPath id="clip41"><rect x="-24" y="-19" width="1125" height="524"/></clipPath><clipPath id="clip42"><rect x="-24" y="-19" width="1125" height="524"/></clipPath><clipPath id="clip43"><rect x="-24" y="-19" width="1125" height="524"/></clipPath><clipPath id="clip44"><rect x="-24" y="-19" width="1125" height="524"/></clipPath><clipPath id="clip45"><rect x="-24" y="-19" width="1125" height="524"/></clipPath><clipPath id="clip46"><rect x="-24" y="-19" width="1125" height="524"/></clipPath><clipPath id="clip47"><rect x="-24" y="-19" width="1125" height="524"/></clipPath><clipPath id="clip48"><rect x="-24" y="-19" width="1125" height="524"/></clipPath><clipPath id="clip49"><rect x="-24" y="-19" width="1125" height="524"/></clipPath><clipPath id="clip50"><rect x="-24" y="-19" width="1125" height="524"/></clipPath><clipPath id="clip51"><rect x="-24" y="-19" width="1125" height="524"/></clipPath><clipPath id="clip52"><rect x="-24" y="-19" width="1125" height="524"/></clipPath><clipPath id="clip53"><rect x="-24" y="-19" width="1125" height="524"/></clipPath><clipPath id="clip54"><rect x="-24" y="-19" width="1125" height="524"/></clipPath><clipPath id="clip55"><rect x="-24" y="-19" width="1125" height="524"/></clipPath><clipPath id="clip56"><rect x="-24" y="-19" width="1125" height="524"/></clipPath><clipPath id="clip57"><rect x="-24" y="-19" width="1125" height="524"/></clipPath></defs><g clip-path="url(#clip0)"><rect x="0" y="0" width="1096" height="490.667" fill="#FFFFFF"/><g clip-path="url(#clip1)"><path d="M119 311.788 150 311.788 150 340.769 119 340.769ZM453 71.9511 483 71.9511 483 340.769 453 340.769ZM786 149.898 816 149.898 816 340.769 786 340.769Z" fill="#D9D9D9"/></g><g clip-path="url(#clip2)"><path d="M159 302.794 189 302.794 189 340.769 159 340.769ZM492 31.9783 523 31.9783 523 340.769 492 340.769ZM825 155.894 856 155.894 856 340.769 825 340.769Z" fill="#FDDE4B"/></g><g clip-path="url(#clip3)"><path d="M198 294.8 229 294.8 229 340.769 198 340.769ZM531 37.9742 562 37.9742 562 340.769 531 340.769ZM864 169.885 895 169.885 895 340.769 864 340.769Z" fill="#5DBD6F"/></g><g clip-path="url(#clip4)"><path d="M237 304.793 268 304.793 268 340.769 237 340.769ZM570 52.964 601 52.964 601 340.769 570 340.769ZM903 164.888 934 164.888 934 340.769 903 340.769Z" fill="#009BD8"/></g><g clip-path="url(#clip5)"><path d="M276 300.796 307 300.796 307 340.769 276 340.769ZM609 46.9681 640 46.9681 640 340.769 609 340.769ZM942 159.891 973 159.891 973 340.769 942 340.769Z" fill="#F3CB03"/></g><g clip-path="url(#clip6)"><path d="M315 304.793 346 304.793 346 340.769 315 340.769ZM648 46.9681 679 46.9681 679 340.769 648 340.769ZM981 176.88 1012 176.88 1012 340.769 981 340.769Z" fill="#44A657"/></g><g clip-path="url(#clip7)"><path d="M354 300.796 385 300.796 385 340.769 354 340.769ZM687 41.9715 718 41.9715 718 340.769 687 340.769ZM1020 170.884 1051 170.884 1051 340.769 1020 340.769Z" fill="#0083B8"/></g><g clip-path="url(#clip8)"><path d="M85.5001 341.268 1084.5 341.268" stroke="#D9D9D9" stroke-linejoin="round" stroke-miterlimit="10" fill="none" fill-rule="evenodd"/></g><g clip-path="url(#clip9)"><text fill="#404040" font-family="Product Sans,Product Sans_MSFontService,sans-serif" font-weight="400" font-size="16" transform="matrix(1 0 0 0.999322 120.189 301)">53.7</text></g><g clip-path="url(#clip10)"><text fill="#404040" font-family="Product Sans,Product Sans_MSFontService,sans-serif" font-weight="400" font-size="16" transform="matrix(1 0 0 0.999322 453.184 61)">67.6</text></g><g clip-path="url(#clip11)"><text fill="#404040" font-family="Product Sans,Product Sans_MSFontService,sans-serif" font-weight="700" font-size="16" transform="matrix(1 0 0 0.999322 786.523 140)">63.1</text></g><g clip-path="url(#clip12)"><text fill="#404040" font-family="Product Sans,Product Sans_MSFontService,sans-serif" font-weight="400" font-size="16" transform="matrix(1 0 0 0.999322 158.881 292)">54.2</text></g><g clip-path="url(#clip13)"><text fill="#404040" font-family="Product Sans,Product Sans_MSFontService,sans-serif" font-weight="700" font-size="16" transform="matrix(1 0 0 0.999322 491.353 22)">69.9</text></g><g clip-path="url(#clip14)"><text fill="#404040" font-family="Product Sans,Product Sans_MSFontService,sans-serif" font-weight="400" font-size="16" transform="matrix(1 0 0 0.999322 825.635 146)">62.7</text></g><g clip-path="url(#clip15)"><text fill="#404040" font-family="Product Sans,Product Sans_MSFontService,sans-serif" font-weight="700" font-size="16" transform="matrix(1 0 0 0.999322 197.144 284)">54.7</text></g><g clip-path="url(#clip16)"><text fill="#404040" font-family="Product Sans,Product Sans_MSFontService,sans-serif" font-weight="400" font-size="16" transform="matrix(1 0 0 0.999322 531.242 28)">69.6</text></g><g clip-path="url(#clip17)"><text fill="#404040" font-family="Product Sans,Product Sans_MSFontService,sans-serif" font-weight="400" font-size="16" transform="matrix(1 0 0 0.999322 865.648 159)">61.9</text></g><g clip-path="url(#clip18)"><text fill="#404040" font-family="Product Sans,Product Sans_MSFontService,sans-serif" font-weight="400" font-size="16" transform="matrix(1 0 0 0.999322 238.233 294)">54.1</text></g><g clip-path="url(#clip19)"><text fill="#404040" font-family="Product Sans,Product Sans_MSFontService,sans-serif" font-weight="400" font-size="16" transform="matrix(1 0 0 0.999322 570.621 43)">68.7</text></g><g clip-path="url(#clip20)"><text fill="#404040" font-family="Product Sans,Product Sans_MSFontService,sans-serif" font-weight="400" font-size="16" transform="matrix(1 0 0 0.999322 903.923 154)">62.2</text></g><g clip-path="url(#clip21)"><text fill="#404040" font-family="Product Sans,Product Sans_MSFontService,sans-serif" font-weight="400" font-size="16" transform="matrix(1 0 0 0.999322 276.192 290)">54.3</text></g><g clip-path="url(#clip22)"><text fill="#404040" font-family="Product Sans,Product Sans_MSFontService,sans-serif" font-weight="400" font-size="16" transform="matrix(1 0 0 0.999322 608.797 37)">69.0</text></g><g clip-path="url(#clip23)"><text fill="#404040" font-family="Product Sans,Product Sans_MSFontService,sans-serif" font-weight="400" font-size="16" transform="matrix(1 0 0 0.999322 942.776 149)">62.5</text></g><g clip-path="url(#clip24)"><text fill="#404040" font-family="Product Sans,Product Sans_MSFontService,sans-serif" font-weight="400" font-size="16" transform="matrix(1 0 0 0.999322 316.498 294)">54.1</text></g><g clip-path="url(#clip25)"><text fill="#404040" font-family="Product Sans,Product Sans_MSFontService,sans-serif" font-weight="400" font-size="16" transform="matrix(1 0 0 0.999322 647.93 37)">69.0</text></g><g clip-path="url(#clip26)"><text fill="#404040" font-family="Product Sans,Product Sans_MSFontService,sans-serif" font-weight="400" font-size="16" transform="matrix(1 0 0 0.999322 982.995 167)">61.5</text></g><g clip-path="url(#clip27)"><text fill="#404040" font-family="Product Sans,Product Sans_MSFontService,sans-serif" font-weight="400" font-size="16" transform="matrix(1 0 0 0.999322 354.457 290)">54.3</text></g><g clip-path="url(#clip28)"><text fill="#404040" font-family="Product Sans,Product Sans_MSFontService,sans-serif" font-weight="400" font-size="16" transform="matrix(1 0 0 0.999322 687.916 32)">69.3</text></g><g clip-path="url(#clip29)"><text fill="#404040" font-family="Product Sans,Product Sans_MSFontService,sans-serif" font-weight="400" font-size="16" transform="matrix(1 0 0 0.999322 1022.18 160)">61.9</text></g><g clip-path="url(#clip30)"><text fill="#595959" font-family="Product Sans,Product Sans_MSFontService,sans-serif" font-weight="400" font-size="16" transform="matrix(1 0 0 0.999322 53.785 345)">52</text></g><g clip-path="url(#clip31)"><text fill="#595959" font-family="Product Sans,Product Sans_MSFontService,sans-serif" font-weight="400" font-size="16" transform="matrix(1 0 0 0.999322 52.685 311)">54</text></g><g clip-path="url(#clip32)"><text fill="#595959" font-family="Product Sans,Product Sans_MSFontService,sans-serif" font-weight="400" font-size="16" transform="matrix(1 0 0 0.999322 53.325 276)">56</text></g><g clip-path="url(#clip33)"><text fill="#595959" font-family="Product Sans,Product Sans_MSFontService,sans-serif" font-weight="400" font-size="16" transform="matrix(1 0 0 0.999322 53.405 242)">58</text></g><g clip-path="url(#clip34)"><text fill="#595959" font-family="Product Sans,Product Sans_MSFontService,sans-serif" font-weight="400" font-size="16" transform="matrix(1 0 0 0.999322 52.005 207)">60</text></g><g clip-path="url(#clip35)"><text fill="#595959" font-family="Product Sans,Product Sans_MSFontService,sans-serif" font-weight="400" font-size="16" transform="matrix(1 0 0 0.999322 53.885 173)">62</text></g><g clip-path="url(#clip36)"><text fill="#595959" font-family="Product Sans,Product Sans_MSFontService,sans-serif" font-weight="400" font-size="16" transform="matrix(1 0 0 0.999322 52.7851 138)">64</text></g><g clip-path="url(#clip37)"><text fill="#595959" font-family="Product Sans,Product Sans_MSFontService,sans-serif" font-weight="400" font-size="16" transform="matrix(1 0 0 0.999322 53.4251 104)">66</text></g><g clip-path="url(#clip38)"><text fill="#595959" font-family="Product Sans,Product Sans_MSFontService,sans-serif" font-weight="400" font-size="16" transform="matrix(1 0 0 0.999322 53.5051 69)">68</text></g><g clip-path="url(#clip39)"><text fill="#595959" font-family="Product Sans,Product Sans_MSFontService,sans-serif" font-weight="400" font-size="16" transform="matrix(1 0 0 0.999322 52.4184 35)">70</text></g><g clip-path="url(#clip40)"><text fill="#595959" font-family="Product Sans,Product Sans_MSFontService,sans-serif" font-weight="400" font-size="16" transform="matrix(1 0 0 0.999322 197.879 366)">BEA-2019 (dev)</text></g><g clip-path="url(#clip41)"><text fill="#595959" font-family="Product Sans,Product Sans_MSFontService,sans-serif" font-weight="400" font-size="16" transform="matrix(1 0 0 0.999322 530.261 366)">BEA-2019 (test)</text></g><g clip-path="url(#clip42)"><text fill="#595959" font-family="Product Sans,Product Sans_MSFontService,sans-serif" font-weight="400" font-size="16" transform="matrix(1 0 0 0.999322 853.64 366)">CoNLL-2014 (test)</text></g><g clip-path="url(#clip43)"><text fill="#595959" font-family="Product Sans,Product Sans_MSFontService,sans-serif" font-weight="700" font-size="18" transform="matrix(6.12323e-17 -0.998644 1.00068 6.11908e-17 35.905 238)">F 0.5 score</text></g><g clip-path="url(#clip44)"><rect x="155" y="438.702" width="9" height="8.9939" fill="#D9D9D9"/></g><g clip-path="url(#clip45)"><text fill="#7F7F7F" font-family="Product Sans,Product Sans_MSFontService,sans-serif" font-weight="400" font-size="16" transform="matrix(1 0 0 0.999322 167.784 447)">Baseline</text></g><g clip-path="url(#clip46)"><rect x="246" y="438.702" width="9" height="8.9939" fill="#FDDE4B"/></g><g clip-path="url(#clip47)"><text fill="#7F7F7F" font-family="Product Sans,Product Sans_MSFontService,sans-serif" font-weight="400" font-size="16" transform="matrix(1 0 0 0.999322 258.406 447)">Random (1)</text></g><g clip-path="url(#clip48)"><rect x="357" y="438.702" width="9" height="8.9939" fill="#5DBD6F"/></g><g clip-path="url(#clip49)"><text fill="#7F7F7F" font-family="Product Sans,Product Sans_MSFontService,sans-serif" font-weight="400" font-size="16" transform="matrix(1 0 0 0.999322 369.548 447)">Min. Attention (1)</text></g><g clip-path="url(#clip50)"><rect x="509" y="438.702" width="9" height="8.9939" fill="#009BD8"/></g><g clip-path="url(#clip51)"><text fill="#7F7F7F" font-family="Product Sans,Product Sans_MSFontService,sans-serif" font-weight="400" font-size="16" transform="matrix(1 0 0 0.999322 521.478 447)">Max. Attention (1)</text></g><g clip-path="url(#clip52)"><rect x="664" y="438.702" width="9" height="8.9939" fill="#F3CB03"/></g><g clip-path="url(#clip53)"><text fill="#7F7F7F" font-family="Product Sans,Product Sans_MSFontService,sans-serif" font-weight="400" font-size="16" transform="matrix(1 0 0 0.999322 676.914 447)">Random (2)</text></g><g clip-path="url(#clip54)"><rect x="778" y="438.702" width="8" height="8.9939" fill="#44A657"/></g><g clip-path="url(#clip55)"><text fill="#7F7F7F" font-family="Product Sans,Product Sans_MSFontService,sans-serif" font-weight="400" font-size="16" transform="matrix(1 0 0 0.999322 790.229 447)">Min. Attention (2)</text></g><g clip-path="url(#clip56)"><rect x="932" y="438.702" width="8" height="8.9939" fill="#0083B8"/></g><g clip-path="url(#clip57)"><text fill="#7F7F7F" font-family="Product Sans,Product Sans_MSFontService,sans-serif" font-weight="400" font-size="16" transform="matrix(1 0 0 0.999322 944.332 447)">Max. Attention (2)</text></g><path d="M135.5 458.189 1086.04 458.189" stroke="#A6A6A6" stroke-width="0.666667" stroke-miterlimit="8" fill="none" fill-rule="evenodd"/><text fill="#7F7F7F" font-family="Product Sans,Product Sans_MSFontService,sans-serif" font-weight="400" font-size="16" transform="matrix(1 0 0 0.999322 671.959 477)">Perturbation <tspan font-size="16" x="91.1667" y="0">method</tspan><tspan font-size="16" x="149.333" y="0">during</tspan><tspan font-size="16" x="197.833" y="0">training</tspan><tspan font-size="16" x="254.5" y="0">(</tspan><tspan font-size="16" x="259.833" y="0">no</tspan><tspan font-size="16" x="277.5" y="0">. </tspan><tspan font-size="16" x="284.667" y="0">of</tspan><tspan font-size="16" x="303" y="0">perturbations</tspan>)</text></g></svg>