<svg width="1096" height="491" xmlns="http://www.w3.org/2000/svg" xmlns:xlink="http://www.w3.org/1999/xlink" overflow="hidden"><defs><clipPath id="clip0"><rect x="0" y="0" width="1096" height="491"/></clipPath><clipPath id="clip1"><rect x="87" y="31" width="989" height="312"/></clipPath><clipPath id="clip2"><rect x="87" y="31" width="989" height="312"/></clipPath><clipPath id="clip3"><rect x="87" y="31" width="989" height="312"/></clipPath><clipPath id="clip4"><rect x="87" y="31" width="989" height="312"/></clipPath><clipPath id="clip5"><rect x="-20" y="-15" width="1125" height="521"/></clipPath><clipPath id="clip6"><rect x="-20" y="-15" width="1125" height="521"/></clipPath><clipPath id="clip7"><rect x="-20" y="-15" width="1125" height="521"/></clipPath><clipPath id="clip8"><rect x="-20" y="-15" width="1125" height="521"/></clipPath><clipPath id="clip9"><rect x="-20" y="-15" width="1125" height="521"/></clipPath><clipPath id="clip10"><rect x="-20" y="-15" width="1125" height="521"/></clipPath><clipPath id="clip11"><rect x="-20" y="-15" width="1125" height="521"/></clipPath><clipPath id="clip12"><rect x="-20" y="-15" width="1125" height="521"/></clipPath><clipPath id="clip13"><rect x="-20" y="-15" width="1125" height="521"/></clipPath><clipPath id="clip14"><rect x="-20" y="-15" width="1125" height="521"/></clipPath><clipPath id="clip15"><rect x="-20" y="-15" width="1125" height="521"/></clipPath><clipPath id="clip16"><rect x="-20" y="-15" width="1125" height="521"/></clipPath><clipPath id="clip17"><rect x="-20" y="-15" width="1125" height="521"/></clipPath><clipPath id="clip18"><rect x="-20" y="-15" width="1125" height="521"/></clipPath><clipPath id="clip19"><rect x="-20" y="-15" width="1125" height="521"/></clipPath><clipPath id="clip20"><rect x="-20" y="-15" width="1125" height="521"/></clipPath><clipPath id="clip21"><rect x="-20" y="-15" width="1125" height="521"/></clipPath><clipPath id="clip22"><rect x="-20" y="-15" width="1125" height="521"/></clipPath><clipPath id="clip23"><rect x="-20" y="-15" width="1125" height="521"/></clipPath><clipPath id="clip24"><rect x="-20" y="-15" width="1125" height="521"/></clipPath><clipPath id="clip25"><rect x="-20" y="-15" width="1125" height="521"/></clipPath><clipPath id="clip26"><rect x="-20" y="-15" width="1125" height="521"/></clipPath><clipPath id="clip27"><rect x="-20" y="-15" width="1125" height="521"/></clipPath><clipPath id="clip28"><rect x="-20" y="-15" width="1125" height="521"/></clipPath><clipPath id="clip29"><rect x="-20" y="-15" width="1125" height="521"/></clipPath><clipPath id="clip30"><rect x="-20" y="-15" width="1125" height="521"/></clipPath><clipPath id="clip31"><rect x="-20" y="-15" width="1125" height="521"/></clipPath><clipPath id="clip32"><rect x="-20" y="-15" width="1125" height="521"/></clipPath><clipPath id="clip33"><rect x="-20" y="-15" width="1125" height="521"/></clipPath><clipPath id="clip34"><rect x="-20" y="-15" width="1125" height="521"/></clipPath><clipPath id="clip35"><rect x="-20" y="-15" width="1125" height="521"/></clipPath><clipPath id="clip36"><rect x="-20" y="-15" width="1125" height="521"/></clipPath><clipPath id="clip37"><rect x="-20" y="-15" width="1125" height="521"/></clipPath><clipPath id="clip38"><rect x="-20" y="-15" width="1125" height="521"/></clipPath><clipPath id="clip39"><rect x="-20" y="-15" width="1125" height="521"/></clipPath></defs><g clip-path="url(#clip0)"><rect x="0" y="0" width="1096" height="490.667" fill="#FFFFFF"/><g clip-path="url(#clip1)"><path d="M139 248.831 186 248.831 186 342.767 139 342.767ZM468 178.879 515 178.879 515 342.767 468 342.767ZM798 298.797 845 298.797 845 342.767 798 342.767Z" fill="#D9D9D9"/></g><g clip-path="url(#clip2)"><path d="M199 131.91 246 131.91 246 342.767 199 342.767ZM528 95.9349 575 95.9349 575 342.767 528 342.767ZM858 216.853 905 216.853 905 342.767 858 342.767Z" fill="#FDDE4B"/></g><g clip-path="url(#clip3)"><path d="M258 185.874 306 185.874 306 342.767 258 342.767ZM588 74.9491 635 74.9491 635 342.767 588 342.767ZM918 287.805 965 287.805 965 342.767 918 342.767Z" fill="#5DBD6F"/></g><g clip-path="url(#clip4)"><path d="M318 171.883 365 171.883 365 342.767 318 342.767ZM648 158.892 695 158.892 695 342.767 648 342.767ZM977 176.88 1024 176.88 1024 342.767 977 342.767Z" fill="#009BD8"/></g><g clip-path="url(#clip5)"><path d="M87.5001 343.267 1075.5 343.267" stroke="#D9D9D9" stroke-linejoin="round" stroke-miterlimit="10" fill="none" fill-rule="evenodd"/></g><g clip-path="url(#clip6)"><text fill="#404040" font-family="Product Sans,Product Sans_MSFontService,sans-serif" font-weight="400" font-size="16" transform="matrix(1 0 0 0.999322 143.651 239)">69.01</text></g><g clip-path="url(#clip7)"><text fill="#404040" font-family="Product Sans,Product Sans_MSFontService,sans-serif" font-weight="400" font-size="16" transform="matrix(1 0 0 0.999322 474.091 168)">75.81</text></g><g clip-path="url(#clip8)"><text fill="#404040" font-family="Product Sans,Product Sans_MSFontService,sans-serif" font-weight="400" font-size="16" transform="matrix(1 0 0 0.999322 802.251 288)">64.22</text></g><g clip-path="url(#clip9)"><text fill="#404040" font-family="Product Sans,Product Sans_MSFontService,sans-serif" font-weight="700" font-size="16" transform="matrix(1 0 0 0.999322 201.468 122)">80.27</text></g><g clip-path="url(#clip10)"><text fill="#404040" font-family="Product Sans,Product Sans_MSFontService,sans-serif" font-weight="400" font-size="16" transform="matrix(1 0 0 0.999322 532.755 86)">83.76</text></g><g clip-path="url(#clip11)"><text fill="#404040" font-family="Product Sans,Product Sans_MSFontService,sans-serif" font-weight="400" font-size="16" transform="matrix(1 0 0 0.999322 861.664 207)">72.08</text></g><g clip-path="url(#clip12)"><text fill="#404040" font-family="Product Sans,Product Sans_MSFontService,sans-serif" font-weight="400" font-size="16" transform="matrix(1 0 0 0.999322 262.065 176)">75.09</text></g><g clip-path="url(#clip13)"><text fill="#404040" font-family="Product Sans,Product Sans_MSFontService,sans-serif" font-weight="700" font-size="16" transform="matrix(1 0 0 0.999322 591.261 65)">85.75</text></g><g clip-path="url(#clip14)"><text fill="#404040" font-family="Product Sans,Product Sans_MSFontService,sans-serif" font-weight="400" font-size="16" transform="matrix(1 0 0 0.999322 921.458 277)">65.34</text></g><g clip-path="url(#clip15)"><text fill="#404040" font-family="Product Sans,Product Sans_MSFontService,sans-serif" font-weight="400" font-size="16" transform="matrix(1 0 0 0.999322 322.292 161)">76.49</text></g><g clip-path="url(#clip16)"><text fill="#404040" font-family="Product Sans,Product Sans_MSFontService,sans-serif" font-weight="400" font-size="16" transform="matrix(1 0 0 0.999322 652.701 148)">77.73</text></g><g clip-path="url(#clip17)"><text fill="#404040" font-family="Product Sans,Product Sans_MSFontService,sans-serif" font-weight="700" font-size="16" transform="matrix(1 0 0 0.999322 980.645 167)">75.95</text></g><g clip-path="url(#clip18)"><text fill="#595959" font-family="Product Sans,Product Sans_MSFontService,sans-serif" font-weight="400" font-size="16" transform="matrix(1 0 0 0.999322 53.6016 347)">60</text></g><g clip-path="url(#clip19)"><text fill="#595959" font-family="Product Sans,Product Sans_MSFontService,sans-serif" font-weight="400" font-size="16" transform="matrix(1 0 0 0.999322 54.9216 295)">65</text></g><g clip-path="url(#clip20)"><text fill="#595959" font-family="Product Sans,Product Sans_MSFontService,sans-serif" font-weight="400" font-size="16" transform="matrix(1 0 0 0.999322 54.0149 243)">70</text></g><g clip-path="url(#clip21)"><text fill="#595959" font-family="Product Sans,Product Sans_MSFontService,sans-serif" font-weight="400" font-size="16" transform="matrix(1 0 0 0.999322 55.3349 191)">75</text></g><g clip-path="url(#clip22)"><text fill="#595959" font-family="Product Sans,Product Sans_MSFontService,sans-serif" font-weight="400" font-size="16" transform="matrix(1 0 0 0.999322 53.6816 139)">80</text></g><g clip-path="url(#clip23)"><text fill="#595959" font-family="Product Sans,Product Sans_MSFontService,sans-serif" font-weight="400" font-size="16" transform="matrix(1 0 0 0.999322 55.0016 87)">85</text></g><g clip-path="url(#clip24)"><text fill="#595959" font-family="Product Sans,Product Sans_MSFontService,sans-serif" font-weight="400" font-size="16" transform="matrix(1 0 0 0.999322 53.6016 36)">90</text></g><g clip-path="url(#clip25)"><text fill="#595959" font-family="Product Sans,Product Sans_MSFontService,sans-serif" font-weight="400" font-size="16" transform="matrix(1 0 0 0.999322 223.218 368)">Random</text></g><g clip-path="url(#clip26)"><text fill="#595959" font-family="Product Sans,Product Sans_MSFontService,sans-serif" font-weight="400" font-size="16" transform="matrix(1 0 0 0.999322 532.358 368)">Min. Attention</text></g><g clip-path="url(#clip27)"><text fill="#595959" font-family="Product Sans,Product Sans_MSFontService,sans-serif" font-weight="400" font-size="16" transform="matrix(1 0 0 0.999322 860.138 368)">Max. Attention</text></g><g clip-path="url(#clip28)"><text fill="#595959" font-family="Product Sans,Product Sans_MSFontService,sans-serif" font-weight="700" font-size="18" transform="matrix(6.12323e-17 -0.998644 1.00068 6.11908e-17 39.7549 237)">F 0.5 score</text></g><g clip-path="url(#clip29)"><text fill="#595959" font-family="Product Sans,Product Sans_MSFontService,sans-serif" font-weight="700" font-size="18" transform="matrix(1 0 0 0.999322 494.987 398)">Type </text></g><g clip-path="url(#clip30)"><text fill="#595959" font-family="Product Sans,Product Sans_MSFontService,sans-serif" font-weight="700" font-size="18" transform="matrix(1 0 0 0.999322 539.461 398)">of</text></g><g clip-path="url(#clip31)"><text fill="#595959" font-family="Product Sans,Product Sans_MSFontService,sans-serif" font-weight="700" font-size="18" transform="matrix(1 0 0 0.999322 560.614 398)">attack</text></g><g clip-path="url(#clip32)"><rect x="648" y="439.702" width="9" height="8.9939" fill="#D9D9D9"/></g><g clip-path="url(#clip33)"><text fill="#7F7F7F" font-family="Product Sans,Product Sans_MSFontService,sans-serif" font-weight="400" font-size="16" transform="matrix(1 0 0 0.999322 661.007 449)">Baseline</text></g><g clip-path="url(#clip34)"><rect x="739" y="439.702" width="8" height="8.9939" fill="#FDDE4B"/></g><g clip-path="url(#clip35)"><text fill="#7F7F7F" font-family="Product Sans,Product Sans_MSFontService,sans-serif" font-weight="400" font-size="16" transform="matrix(1 0 0 0.999322 751.256 449)">Random</text></g><g clip-path="url(#clip36)"><rect x="829" y="439.702" width="9" height="8.9939" fill="#5DBD6F"/></g><g clip-path="url(#clip37)"><text fill="#7F7F7F" font-family="Product Sans,Product Sans_MSFontService,sans-serif" font-weight="400" font-size="16" transform="matrix(1 0 0 0.999322 841.851 449)">Min. Attention</text></g><g clip-path="url(#clip38)"><rect x="961" y="439.702" width="8" height="8.9939" fill="#009BD8"/></g><g clip-path="url(#clip39)"><text fill="#7F7F7F" font-family="Product Sans,Product Sans_MSFontService,sans-serif" font-weight="400" font-size="16" transform="matrix(1 0 0 0.999322 973.233 449)">Max. Attention</text></g><path d="M646.5 459.188 1076.16 459.188" stroke="#A6A6A6" stroke-width="0.666667" stroke-miterlimit="8" fill="none" fill-rule="evenodd"/><text fill="#7F7F7F" font-family="Product Sans,Product Sans_MSFontService,sans-serif" font-weight="400" font-size="16" transform="matrix(1 0 0 0.999322 814.572 478)">Perturbation <tspan font-size="16" x="91.1667" y="0">method</tspan><tspan font-size="16" x="149.333" y="0">during</tspan><tspan font-size="16" x="197.833" y="0">training</tspan></text></g></svg>